<svg xmlns="http://www.w3.org/2000/svg" version="1.1" xmlns:xlink="http://www.w3.org/1999/xlink" xmlns:svgjs="http://svgjs.dev/svgjs" width="700" height="700"><svg width="700" height="700" viewBox="0 0 700 700" fill="none" xmlns="http://www.w3.org/2000/svg">
<circle cx="350" cy="350" r="350" fill="#6C9548"></circle>
<path d="M388.352 328.386C406.762 318.846 423.622 307.336 438.942 293.836C454.252 280.336 465.372 266.396 472.302 251.996C476.492 242.456 478.592 232.116 478.592 220.956C478.592 206.916 474.262 194.416 465.602 183.436C456.942 172.466 444.772 164.366 429.092 159.146C417.242 155.726 404.392 154.016 390.532 154.016C375.942 154.016 361.132 155.726 346.102 159.146C331.062 162.566 318.072 167.156 307.132 172.916C291.272 180.836 281.152 190.016 276.782 200.446C274.962 204.946 273.812 208.316 273.362 210.566C272.902 212.816 273.452 214.306 275.002 215.016C276.552 215.736 278.142 216.006 279.792 215.826C281.432 215.646 284.532 215.106 289.092 214.206C289.642 214.026 290.232 213.936 290.872 213.936C291.512 213.936 292.102 213.846 292.652 213.666H292.102C318.902 208.626 338.682 205.746 351.442 205.026C366.392 204.486 378.332 207.906 387.262 215.286C396.192 222.666 400.662 232.116 400.662 243.626C400.662 258.746 393.182 272.146 378.242 283.846C362.562 296.086 333.482 311.556 291.012 330.276C288.822 330.996 285.952 332.216 282.402 333.916C278.852 335.626 276.972 336.476 276.792 336.476C274.972 337.196 273.552 337.916 272.552 338.636C271.552 339.356 270.862 340.436 270.502 341.876C270.132 343.316 269.912 344.486 269.822 345.386C269.732 346.286 269.682 347.906 269.682 350.246V355.376C269.682 360.596 270.232 363.836 271.322 365.096C272.412 366.356 275.602 366.626 280.892 365.906C296.752 363.386 314.022 358.886 332.712 352.406C351.392 345.926 369.942 337.926 388.352 328.386Z" fill="white"></path>
<path d="M471.739 303.474C465.359 301.054 460.939 299.974 458.479 300.254C456.019 300.534 452.959 301.984 449.319 304.594C440.019 312.804 432.179 320.444 425.799 327.534V326.974L424.159 328.654H424.709C424.339 329.034 423.889 329.404 423.339 329.774C420.239 332.384 418.229 334.204 417.319 335.234C416.409 336.264 416.36 337.284 417.18 338.314C418 339.344 420.139 340.414 423.609 341.534L423.06 340.694C423.61 340.884 424.329 341.214 425.249 341.674C426.159 342.144 427.159 342.704 428.259 343.354C429.349 344.014 429.989 344.334 430.169 344.334C441.829 349.374 450.899 357.434 457.379 368.534C463.849 379.634 467.089 391.804 467.089 405.034C467.089 418.094 464.359 430.304 458.889 441.684C441.209 477.114 409.669 494.834 364.279 494.834C342.219 494.834 318.889 490.074 294.279 480.564C294.279 490.454 293.909 501.544 293.189 513.854C315.239 526.724 341.319 533.814 371.399 535.114C402.389 536.234 432.689 529.654 462.319 515.394C491.939 501.124 515.23 481.124 532.19 455.394C545.68 435.444 552.419 415.394 552.419 395.254C552.419 385.744 550.51 376.234 546.68 366.724C535.91 342.084 510.929 321.014 471.739 303.474Z" fill="white"></path>
<path d="M255.81 172.905V173.445C256.9 169.665 256.36 166.155 254.17 162.915V162.375L248.15 158.055H248.7C248.33 157.695 248.02 157.605 247.74 157.785C247.47 157.965 247.15 157.875 246.78 157.515C239.85 152.655 235.2 152.835 232.83 158.055H233.38C217.34 185.045 211.79 225.625 202.67 277.635C193.55 329.645 189 383.715 189 439.865C189 475.505 191.25 509.745 195.76 542.585C196.08 544.885 198.41 546.315 200.61 545.575C202.92 544.795 205.8 543.845 209.24 542.705C215.26 540.725 219.54 539.285 222.09 538.385C241.39 531.205 257.86 525.565 271.5 521.485C273.27 520.955 274.37 519.185 274.08 517.355C256.55 407.145 247.79 329.935 247.79 285.725C247.8 251.905 245.78 213.575 255.81 172.905Z" fill="white"></path>
</svg><style>@media (prefers-color-scheme: light) { :root { filter: none; } }
@media (prefers-color-scheme: dark) { :root { filter: none; } }
</style></svg>