<?xml version="1.0" standalone="no"?>
<!DOCTYPE svg PUBLIC "-//W3C//DTD SVG 20010904//EN"
 "http://www.w3.org/TR/2001/REC-SVG-20010904/DTD/svg10.dtd">
<svg version="1.0" xmlns="http://www.w3.org/2000/svg"
 width="937.000000pt" height="937.000000pt" viewBox="0 0 937.000000 937.000000"
 preserveAspectRatio="xMidYMid meet">
<metadata>
Created by potrace 1.14, written by Peter Selinger 2001-2017
</metadata>
<g transform="translate(0.000000,937.000000) scale(0.100000,-0.100000)"
fill="#000000" stroke="none">
<path d="M2655 8550 c-8 -14 -44 -135 -51 -175 -2 -16 -7 -37 -9 -45 -2 -8 -7
-33 -10 -55 -3 -23 -7 -52 -10 -65 -3 -14 -7 -58 -11 -99 -3 -42 -8 -80 -11
-85 -3 -5 -1 -6 5 -2 9 5 10 0 4 -16 -9 -27 -3 -258 9 -346 3 -19 -6 -18 -63
3 -83 29 -85 30 -143 50 -27 9 -57 19 -65 22 -8 4 -17 7 -20 8 -23 8 -57 22
-115 46 -28 12 -79 32 -85 34 -3 0 -34 15 -69 33 -67 34 -80 32 -82 -13 0 -11
-2 -27 -5 -35 -12 -46 -22 -106 -18 -112 3 -5 1 -8 -3 -8 -5 0 -9 -10 -9 -22
-1 -13 -4 -39 -8 -58 -3 -19 -8 -48 -10 -65 -2 -16 -7 -55 -11 -85 -4 -30 -9
-73 -11 -95 -2 -22 -7 -71 -10 -110 -8 -81 -8 -392 0 -478 7 -81 16 -159 21
-177 2 -8 7 -29 10 -47 3 -18 11 -62 19 -98 7 -36 12 -65 10 -65 -7 0 -139 95
-142 102 -2 4 -8 8 -14 8 -9 0 -141 92 -158 110 -3 3 -32 25 -65 50 -64 48
-91 69 -109 85 -6 6 -36 30 -66 55 -30 25 -66 55 -80 67 -17 16 -26 19 -31 11
-4 -7 -6 -15 -4 -18 2 -3 6 -44 10 -91 3 -47 8 -103 10 -125 13 -111 17 -142
22 -169 3 -16 6 -41 8 -55 1 -14 8 -54 15 -90 7 -36 14 -74 16 -85 4 -20 19
-90 24 -110 5 -22 -2 -23 -47 -8 -94 32 -352 178 -393 223 -3 3 -27 23 -55 45
-57 46 -61 49 -143 129 l-60 58 4 -63 c2 -35 6 -93 9 -129 3 -36 8 -92 10
-125 2 -33 4 -60 5 -60 1 0 3 -13 4 -30 2 -16 7 -50 11 -75 4 -25 9 -58 11
-75 4 -36 15 -103 21 -130 2 -11 5 -31 7 -45 2 -14 9 -43 14 -65 6 -22 13 -56
16 -75 6 -39 74 -292 89 -330 10 -27 30 -95 29 -97 -1 -2 9 -28 23 -58 13 -31
24 -58 24 -60 -1 -13 44 -121 86 -211 25 -53 45 -103 45 -110 0 -7 4 -14 8
-16 4 -1 20 -29 36 -60 15 -32 32 -60 37 -63 5 -4 7 -11 4 -16 -4 -5 -1 -9 4
-9 6 0 11 -7 11 -15 0 -8 5 -15 10 -15 6 0 10 -6 10 -12 0 -7 22 -47 50 -88
27 -41 50 -78 50 -81 0 -4 -12 -11 -28 -17 -220 -82 -515 -216 -550 -249 -7
-7 -20 -13 -28 -13 -8 0 -14 -3 -14 -7 0 -5 -18 -17 -40 -27 -22 -11 -40 -23
-40 -28 0 -4 -5 -8 -11 -8 -11 0 -125 -75 -147 -97 -7 -7 -17 -13 -20 -13 -4
0 -18 -10 -32 -22 -14 -13 -43 -36 -65 -53 -54 -40 -177 -149 -262 -232 l-31
-31 26 -19 c41 -31 374 -193 395 -193 4 0 26 -8 50 -18 58 -26 154 -63 169
-66 7 -2 20 -6 28 -9 79 -32 336 -108 515 -152 61 -15 117 -30 125 -33 8 -3
18 -5 21 -4 4 1 22 -3 40 -9 19 -5 48 -12 64 -14 17 -3 44 -8 60 -12 17 -3 37
-7 45 -9 8 -1 42 -7 75 -14 33 -6 74 -13 90 -16 17 -2 46 -7 65 -10 19 -3 46
-8 60 -10 14 -2 40 -6 58 -10 18 -3 56 -7 85 -10 28 -3 61 -7 72 -9 11 -2 28
-4 38 -4 17 -1 3 -26 -59 -106 -8 -11 -35 -51 -59 -90 -25 -38 -49 -75 -55
-82 -5 -7 -10 -19 -10 -27 0 -8 -4 -17 -8 -20 -8 -5 -70 -127 -105 -206 -61
-140 -151 -416 -173 -534 -2 -11 -6 -32 -9 -46 -10 -45 -21 -101 -31 -160 -3
-19 -8 -38 -10 -42 -6 -10 122 -2 301 18 22 2 60 6 85 9 25 3 56 7 70 10 14 3
39 7 55 10 46 6 107 16 135 21 14 2 41 7 60 10 19 3 67 12 105 21 82 17 93 19
165 34 30 6 62 14 70 17 20 7 18 7 85 22 72 16 60 13 115 30 25 7 52 15 60 16
8 2 89 28 180 58 91 31 172 58 181 60 9 2 48 18 88 35 39 17 72 30 74 30 4 -1
50 18 110 45 63 28 68 30 66 19 -1 -5 0 -10 1 -13 1 -3 3 -12 5 -20 19 -85
164 -400 208 -455 7 -8 66 -97 102 -154 6 -9 12 -18 15 -21 3 -3 32 -39 65
-80 113 -142 296 -327 410 -415 14 -11 33 -27 43 -36 29 -26 199 -149 206
-149 4 0 16 -9 28 -20 20 -19 22 -19 51 -2 17 9 38 23 46 30 9 7 52 39 96 70
44 31 85 61 91 67 7 5 33 28 60 50 26 22 60 52 76 67 16 16 31 28 33 28 4 0
115 111 180 182 72 77 265 326 265 342 0 3 14 25 30 49 17 25 30 49 30 55 0 5
7 15 15 22 8 7 12 16 9 21 -3 5 -1 9 3 9 5 0 17 19 28 43 10 23 31 68 46 99
15 32 25 58 22 58 -3 0 -1 6 4 13 5 6 20 46 34 87 13 41 24 76 25 78 1 2 16
-4 33 -12 17 -9 33 -17 36 -17 5 0 54 -20 110 -44 35 -15 70 -27 70 -24 0 1
18 -7 40 -17 22 -11 94 -37 160 -58 66 -21 127 -42 135 -46 8 -4 71 -22 140
-40 69 -18 132 -35 140 -38 8 -3 24 -7 35 -9 38 -8 50 -11 50 -13 0 -1 8 -3
19 -5 10 -2 39 -9 65 -15 25 -6 57 -13 71 -15 14 -3 36 -7 50 -10 14 -3 36 -8
50 -11 32 -7 70 -14 95 -18 11 -2 36 -7 55 -11 19 -3 46 -7 60 -9 14 -2 41 -6
60 -10 19 -3 53 -8 75 -11 22 -2 50 -6 62 -9 12 -3 53 -7 90 -11 37 -3 86 -8
108 -10 119 -14 194 -15 190 -2 -2 6 -7 30 -10 52 -13 88 -16 101 -25 130 -5
17 -11 44 -13 60 -3 17 -17 73 -32 125 -15 52 -28 102 -30 110 -15 69 -182
471 -204 490 -3 3 -13 19 -21 35 -21 42 -113 187 -161 251 -32 44 -36 54 -22
55 26 1 61 5 118 13 90 12 120 16 142 20 12 3 43 8 70 12 26 3 57 8 68 10 11
3 36 7 55 10 41 7 63 12 70 14 3 1 10 3 15 4 79 13 433 94 446 101 3 2 16 6
30 9 52 10 270 77 394 121 72 26 135 48 140 49 11 3 16 5 130 52 44 18 94 40
110 48 17 9 36 16 43 16 6 0 12 5 12 10 0 6 3 9 8 8 10 -2 93 38 171 84 l63
37 -59 58 c-73 72 -147 139 -197 178 -21 17 -47 38 -58 47 -10 9 -44 33 -74
54 -30 20 -54 41 -54 46 0 4 -5 8 -11 8 -7 0 -32 15 -58 33 -65 46 -168 105
-318 183 -55 29 -104 50 -107 47 -3 -4 -6 -2 -6 4 0 6 -9 13 -20 16 -11 3 -24
6 -28 7 -4 1 -23 10 -42 19 -19 10 -81 35 -136 56 -86 32 -101 40 -97 56 3 11
9 19 14 19 5 0 9 7 9 15 0 8 5 15 10 15 6 0 10 4 10 8 0 5 21 45 47 88 27 44
64 111 83 149 19 39 39 73 43 76 5 3 9 9 8 12 0 8 24 66 60 144 16 34 29 65
29 68 0 3 7 22 17 43 9 20 17 39 18 42 5 21 39 117 44 125 3 6 6 15 7 20 2 11
32 111 41 135 4 8 7 20 9 25 28 109 65 256 68 275 3 14 8 36 10 50 14 61 17
77 22 110 7 44 12 77 19 114 3 15 8 47 10 70 2 22 6 50 8 61 4 18 9 66 23 223
2 29 6 89 8 133 l5 81 -47 -47 c-122 -120 -236 -211 -352 -281 -36 -22 -74
-45 -85 -51 -29 -18 -81 -41 -153 -69 l-62 -24 5 28 c3 15 7 38 10 52 3 14 7
36 10 50 3 14 7 36 10 50 2 13 7 40 10 60 3 20 8 47 10 60 3 14 8 43 10 64 2
21 7 56 10 76 16 108 34 340 27 340 -2 0 -30 -22 -61 -48 -31 -27 -65 -56 -76
-65 -11 -9 -47 -38 -80 -64 -33 -26 -68 -56 -79 -65 -11 -10 -28 -20 -38 -24
-10 -3 -18 -9 -18 -13 0 -4 -23 -22 -50 -40 -28 -18 -56 -38 -63 -44 -16 -15
-195 -137 -201 -137 -3 0 0 15 5 33 5 17 12 46 15 62 2 17 7 37 10 46 2 9 6
34 9 55 2 22 6 53 9 69 26 148 27 539 1 740 -10 81 -17 132 -21 155 -3 14 -7
47 -10 74 -3 28 -8 54 -10 58 -3 5 -8 25 -10 46 -3 20 -7 48 -10 62 -3 14 -7
39 -10 55 -8 44 -16 47 -65 29 -24 -9 -48 -17 -54 -18 -5 -2 -17 -6 -25 -9
-16 -6 -186 -58 -204 -62 -6 -1 -19 -5 -28 -9 -9 -4 -22 -9 -30 -10 -26 -5
-104 -27 -123 -35 -11 -5 -45 -15 -75 -24 -30 -9 -110 -35 -177 -57 -68 -22
-125 -40 -129 -40 -3 0 -4 19 0 43 24 168 24 366 1 557 -3 25 -8 52 -10 60 -2
8 -7 35 -10 59 -3 23 -8 47 -11 52 -3 5 -8 22 -10 37 -3 15 -12 53 -22 84 -16
57 -27 65 -59 45 -7 -5 -13 -6 -13 -3 0 5 -202 -62 -265 -89 -100 -42 -135
-59 -135 -67 0 -5 -4 -7 -8 -4 -5 3 -34 -11 -66 -30 -31 -18 -59 -34 -61 -34
-8 0 -170 -114 -173 -122 -2 -4 -10 -8 -17 -8 -7 0 -15 -3 -17 -7 -1 -5 -30
-30 -63 -58 -33 -27 -92 -82 -132 -122 -67 -67 -72 -70 -90 -55 -10 10 -54 49
-98 87 -44 39 -85 75 -91 80 -6 6 -29 24 -50 40 -21 17 -53 42 -70 58 -17 15
-36 27 -42 27 -6 0 -12 3 -14 8 -5 11 -127 102 -137 102 -5 0 -11 4 -13 9 -5
13 -158 111 -174 111 -7 0 -16 -5 -19 -11 -4 -5 -17 -14 -28 -20 -18 -7 -91
-55 -132 -87 -5 -4 -53 -39 -105 -77 -52 -38 -100 -77 -107 -85 -7 -8 -13 -12
-13 -8 0 4 -10 -3 -23 -15 -12 -12 -45 -40 -72 -62 -44 -36 -71 -59 -154 -134
-14 -13 -63 -59 -108 -104 -46 -44 -83 -76 -83 -71 0 33 -294 324 -409 404
-20 14 -44 33 -55 43 -11 9 -23 17 -26 17 -4 0 -17 9 -30 20 -13 11 -29 20
-37 20 -7 0 -13 3 -13 8 0 4 -10 12 -23 18 -12 6 -67 34 -122 63 -55 28 -105
51 -112 51 -7 0 -13 5 -13 10 0 6 -10 10 -23 10 -13 0 -27 4 -32 9 -8 7 -64
28 -95 36 -3 1 -12 5 -20 8 -8 3 -42 14 -75 23 -33 9 -65 19 -71 21 -7 2 -15
-1 -19 -7z"/>
</g>
</svg>
