<svg width="937" height="774" viewBox="0 0 937 774" fill="none" xmlns="http://www.w3.org/2000/svg">
<path fill-rule="evenodd" clip-rule="evenodd" d="M467.919 462.622C414.24 610.237 99.2346 550.908 0 489.107C120.423 364.095 333.37 362.329 467.919 462.622Z" fill="#9D8954"/>
<path fill-rule="evenodd" clip-rule="evenodd" d="M467.92 462.622C521.95 610.237 836.958 550.908 936.192 489.107C815.769 364.095 602.822 362.329 467.92 462.622Z" fill="#9D8954"/>
<path fill-rule="evenodd" clip-rule="evenodd" d="M467.922 462.623C508.179 614.83 273.339 676.984 156.447 682.986C184.346 511.71 300.177 456.973 467.922 462.623Z" fill="#C4AB69"/>
<path fill-rule="evenodd" clip-rule="evenodd" d="M467.917 462.623C428.011 614.83 662.853 676.984 779.745 682.986C751.495 511.71 635.661 456.973 467.917 462.623Z" fill="#C4AB69"/>
<path fill-rule="evenodd" clip-rule="evenodd" d="M467.919 462.622C654.733 530.424 590.461 695.698 467.919 773.743C345.38 695.698 281.459 530.424 467.919 462.622Z" fill="#D0BC87"/>
<path fill-rule="evenodd" clip-rule="evenodd" d="M318.54 240.141C267.334 159.27 239.435 79.1049 265.568 0C353.501 21.8952 398.352 85.1085 432.254 159.27C394.465 186.109 356.325 212.947 318.54 240.141ZM591.52 240.141C642.726 159.27 670.272 79.1049 644.492 0C556.559 21.8952 511.708 85.1085 477.806 159.27C515.595 186.109 553.382 212.947 591.52 240.141Z" fill="#D4768E"/>
<path fill-rule="evenodd" clip-rule="evenodd" d="M467.918 498.29C423.069 443.553 377.865 388.814 333.016 334.076C220.716 192.819 168.805 306.531 64.2715 197.762C73.1011 429.778 232.723 589.048 467.918 498.29C513.121 443.553 557.97 388.814 603.175 334.076C715.475 192.819 767.034 306.531 871.919 197.762C863.089 429.778 703.114 589.048 467.918 498.29Z" fill="#EC839E"/>
<path fill-rule="evenodd" clip-rule="evenodd" d="M557.971 220.011C580.22 96.0569 646.611 99.9415 742.312 66.7461C773.742 215.419 734.19 282.519 629.659 370.805C605.644 320.304 581.983 270.156 557.971 220.011ZM377.866 220.011C355.617 96.0569 269.804 105.943 193.877 66.7461C162.447 215.419 201.999 282.519 306.53 370.805C330.191 320.304 354.205 270.156 377.866 220.011Z" fill="#EC839E"/>
<path fill-rule="evenodd" clip-rule="evenodd" d="M467.923 498.288C761.74 391.284 660.74 131.016 467.923 8.47388C275.105 131.016 174.105 391.284 467.923 498.288Z" fill="#F09CB1"/>
<path fill-rule="evenodd" clip-rule="evenodd" d="M467.922 498.286C418.835 212.238 324.897 342.195 123.605 166.328C132.433 349.257 252.856 520.181 467.922 498.286C517.362 212.238 611.3 342.195 812.592 166.328C803.764 349.257 682.988 520.181 467.922 498.286Z" fill="#EE8FA8"/>
</svg>
