<svg width="2352" height="313" viewBox="0 0 2352 313" fill="none" xmlns="http://www.w3.org/2000/svg">
<path d="M452.757 235.001C442.424 235.001 433.34 233.918 425.507 231.751C417.674 229.584 412.09 227.168 408.757 224.501C400.424 218.001 396.257 210.501 396.257 202.001C396.257 194.834 399.34 187.668 405.507 180.501C411.84 173.168 421.424 166.501 434.257 160.501C447.09 154.334 463.257 149.501 482.757 146.001C491.09 144.501 499.507 143.334 508.007 142.501C516.674 141.668 525.34 141.251 534.007 141.251C541.34 141.251 548.674 141.584 556.007 142.251C563.507 142.918 570.84 144.001 578.007 145.501C580.34 146.001 583.007 146.668 586.007 147.501C589.007 148.168 592.09 149.001 595.257 150.001C609.09 135.834 622.59 121.751 635.757 107.751C648.924 93.751 661.674 81.9176 674.007 72.251C682.674 65.4176 690.757 60.751 698.257 58.251C705.757 55.751 712.424 54.501 718.257 54.501C725.09 54.501 730.674 55.5843 735.007 57.751C739.507 59.751 742.424 61.4176 743.757 62.751C744.257 63.251 744.257 63.751 743.757 64.251C743.257 64.751 742.757 64.751 742.257 64.251C741.424 63.251 739.424 62.1676 736.257 61.001C733.09 59.8343 729.007 59.251 724.007 59.251C717.84 59.251 710.59 60.6676 702.257 63.501C693.924 66.3343 684.674 71.6676 674.507 79.501C662.007 89.3343 649.59 100.668 637.257 113.501C625.09 126.168 612.674 138.918 600.007 151.751C606.507 154.084 612.424 157.251 617.757 161.251C623.257 165.251 626.424 170.168 627.257 176.001V177.001C627.257 177.668 627.09 178.001 626.757 178.001C626.257 178.001 625.757 177.501 625.257 176.501C624.59 174.668 622.674 173.084 619.507 171.751C616.507 170.418 613.007 169.334 609.007 168.501C605.007 167.668 601.174 167.001 597.507 166.501C593.84 166.001 591.09 165.668 589.257 165.501L586.507 165.251C572.674 178.584 558.34 190.918 543.507 202.251C528.84 213.418 513.257 221.834 496.757 227.501C488.924 230.168 481.257 232.084 473.757 233.251C466.424 234.418 459.424 235.001 452.757 235.001ZM646.007 247.251C638.507 241.918 633.007 235.501 629.507 228.001C626.007 220.501 624.257 212.418 624.257 203.751C624.257 195.084 625.757 186.418 628.757 177.751C631.757 168.918 636.09 159.751 641.757 150.251C647.59 140.751 653.924 131.501 660.757 122.501C667.59 113.334 674.174 105.001 680.507 97.501C687.007 89.8343 692.424 83.501 696.757 78.501C701.257 73.501 703.924 70.4176 704.757 69.251C705.757 67.9176 706.507 67.251 707.007 67.251C707.674 67.251 708.174 67.8343 708.507 69.001C708.84 70.001 709.007 71.1676 709.007 72.501C709.007 75.1676 708.59 77.0843 707.757 78.251C703.424 83.751 698.257 90.751 692.257 99.251C686.257 107.751 680.174 117.251 674.007 127.751C667.84 138.084 662.09 148.751 656.757 159.751C651.424 170.751 647.09 181.501 643.757 192.001C640.59 202.501 639.007 212.084 639.007 220.751C639.007 225.751 639.674 230.334 641.007 234.501C642.34 238.668 644.507 242.334 647.507 245.501C647.674 245.668 647.757 245.918 647.757 246.251C647.757 246.584 647.59 246.918 647.257 247.251C646.924 247.584 646.507 247.584 646.007 247.251ZM453.507 230.751C459.674 230.751 466.34 230.168 473.507 229.001C480.674 228.001 488.09 226.334 495.757 224.001C510.09 219.501 524.34 211.834 538.507 201.001C552.674 190.168 566.59 178.084 580.257 164.751C578.09 164.584 575.924 164.501 573.757 164.501C571.59 164.501 569.34 164.501 567.007 164.501C555.34 164.501 543.174 165.084 530.507 166.251C518.007 167.418 506.09 169.084 494.757 171.251C476.424 174.418 461.424 178.418 449.757 183.251C438.257 187.918 429.757 192.834 424.257 198.001C418.924 203.168 416.257 208.084 416.257 212.751C416.257 217.251 418.507 221.168 423.007 224.501C425.34 226.168 429.174 227.584 434.507 228.751C439.84 230.084 446.174 230.751 453.507 230.751ZM659.325 226.251C657.659 226.251 655.659 225.834 653.325 225.001C650.992 224.334 648.659 223.001 646.325 221.001C648.159 218.501 650.825 215.168 654.325 211.001C657.659 206.668 661.242 201.918 665.075 196.751C668.909 191.584 672.492 186.418 675.825 181.251C673.159 183.918 670.242 186.751 667.075 189.751C663.909 192.751 660.742 195.501 657.575 198.001C656.909 198.501 656.242 198.751 655.575 198.751C654.909 198.751 654.575 198.418 654.575 197.751C654.575 196.751 655.325 195.584 656.825 194.251C661.492 190.084 666.575 185.418 672.075 180.251C677.742 175.084 681.909 169.668 684.575 164.001C685.409 162.001 685.825 160.168 685.825 158.501C685.825 156.334 685.409 155.001 684.575 154.501C683.909 154.001 683.575 153.334 683.575 152.501C683.575 151.001 684.325 150.251 685.825 150.251C686.659 150.251 687.325 150.418 687.825 150.751C689.659 151.584 691.409 153.168 693.075 155.501C694.742 157.834 695.575 161.418 695.575 166.251C695.575 170.751 694.659 175.751 692.825 181.251C694.659 178.418 696.492 175.751 698.325 173.251C700.159 170.584 701.909 168.168 703.575 166.001C706.909 161.668 710.409 158.418 714.075 156.251C717.909 153.918 721.242 152.751 724.075 152.751C728.742 152.751 731.075 155.418 731.075 160.751C731.075 163.751 730.075 167.668 728.075 172.501C726.242 176.668 723.742 181.668 720.575 187.501C723.409 183.668 726.242 180.001 729.075 176.501C732.075 173.001 734.659 170.084 736.825 167.751C741.659 162.918 746.242 159.418 750.575 157.251C755.075 155.084 759.159 154.001 762.825 154.001C767.159 154.001 770.575 155.251 773.075 157.751C775.742 160.084 777.075 163.334 777.075 167.501C777.075 170.501 776.325 173.751 774.825 177.251C773.825 179.251 772.159 181.918 769.825 185.251C767.492 188.584 764.992 192.084 762.325 195.751C759.659 199.418 757.409 202.751 755.575 205.751C753.742 208.751 752.825 210.918 752.825 212.251C752.825 213.918 753.742 214.751 755.575 214.751C758.409 214.751 761.659 213.501 765.325 211.001C769.659 208.001 774.325 204.418 779.325 200.251C784.325 196.084 788.409 192.668 791.575 190.001C792.242 189.334 792.825 189.001 793.325 189.001C793.992 189.001 794.325 189.418 794.325 190.251C794.325 191.251 793.909 192.168 793.075 193.001C790.575 195.334 787.325 198.251 783.325 201.751C779.492 205.251 775.325 208.751 770.825 212.251C766.325 215.751 761.909 218.751 757.575 221.251C753.242 223.584 749.409 224.751 746.075 224.751C741.742 224.751 738.159 223.751 735.325 221.751C732.659 219.751 731.325 216.584 731.325 212.251C731.325 209.418 731.909 206.251 733.075 202.751C734.242 199.251 736.575 195.168 740.075 190.501C743.575 185.668 747.325 181.001 751.325 176.501C755.325 171.834 758.659 168.001 761.325 165.001C763.325 162.668 764.325 160.918 764.325 159.751C764.325 158.251 763.325 157.501 761.325 157.501C758.992 157.501 755.492 158.751 750.825 161.251C746.325 163.751 741.492 167.751 736.325 173.251C732.992 176.751 729.575 181.168 726.075 186.501C722.742 191.834 719.742 197.251 717.075 202.751C714.409 208.084 712.325 212.834 710.825 217.001C709.659 220.001 707.492 221.501 704.325 221.501C702.659 221.501 701.075 221.001 699.575 220.001C698.242 219.001 697.909 217.918 698.575 216.751C702.742 209.418 706.825 202.168 710.825 195.001C714.992 187.834 718.742 180.334 722.075 172.501C724.409 167.334 725.575 163.418 725.575 160.751C725.575 158.418 724.575 157.251 722.575 157.251C720.575 157.251 717.825 158.501 714.325 161.001C710.992 163.334 708.075 166.001 705.575 169.001C701.575 173.668 697.742 178.918 694.075 184.751C690.409 190.418 687.242 195.584 684.575 200.251C682.409 203.751 680.159 207.168 677.825 210.501C675.492 213.834 672.909 217.001 670.075 220.001C666.409 224.168 662.825 226.251 659.325 226.251ZM772.97 292.251C764.97 292.251 757.636 291.001 750.97 288.501C744.136 286.168 738.47 282.418 733.97 277.251C729.47 272.084 726.47 265.168 724.97 256.501C724.636 255.168 724.97 254.501 725.97 254.501C726.636 254.501 727.136 255.084 727.47 256.251C729.303 265.584 733.886 273.168 741.22 279.001C748.386 284.834 756.636 287.751 765.97 287.751C774.636 287.751 783.386 285.418 792.22 280.751C801.053 276.251 809.636 270.001 817.97 262.001C826.303 254.168 834.136 245.251 841.47 235.251C849.303 224.584 856.386 213.501 862.72 202.001C869.22 190.501 875.47 178.918 881.47 167.251C879.303 170.418 877.053 173.668 874.72 177.001C872.386 180.334 870.053 183.418 867.72 186.251C863.22 191.918 858.053 197.751 852.22 203.751C846.553 209.584 840.886 214.584 835.22 218.751C829.553 222.751 824.386 224.751 819.72 224.751C816.053 224.751 812.97 223.751 810.47 221.751C808.136 219.751 806.97 216.668 806.97 212.501C806.97 208.834 807.636 205.501 808.97 202.501C810.303 199.334 811.803 196.418 813.47 193.751C816.303 189.084 819.72 184.334 823.72 179.501C827.72 174.668 831.22 170.584 834.22 167.251C836.053 165.084 836.97 163.334 836.97 162.001C836.97 160.334 836.053 159.501 834.22 159.501C832.053 159.501 829.303 160.834 825.97 163.501C821.97 166.334 817.886 169.751 813.72 173.751C809.553 177.584 805.636 181.251 801.97 184.751C798.303 188.251 795.303 191.001 792.97 193.001C791.803 193.834 790.97 194.251 790.47 194.251C789.803 194.251 789.47 193.918 789.47 193.251C789.47 192.251 790.053 191.251 791.22 190.251C794.553 187.418 798.053 184.084 801.72 180.251C805.553 176.418 809.303 172.668 812.97 169.001C816.803 165.168 820.303 162.084 823.47 159.751C825.97 157.751 828.553 156.334 831.22 155.501C833.886 154.501 836.386 154.001 838.72 154.001C842.72 154.001 846.053 155.168 848.72 157.501C851.553 159.834 852.97 163.084 852.97 167.251C852.97 170.418 852.136 173.751 850.47 177.251C848.47 181.418 845.886 185.584 842.72 189.751C839.72 193.751 836.803 197.668 833.97 201.501C831.803 204.668 830.22 207.251 829.22 209.251C828.22 211.251 827.72 212.668 827.72 213.501C827.72 215.001 828.386 215.751 829.72 215.751C831.053 215.751 832.97 215.001 835.47 213.501C838.136 212.001 840.803 210.084 843.47 207.751C847.97 203.584 852.886 198.501 858.22 192.501C863.72 186.334 869.053 179.918 874.22 173.251C879.386 166.584 883.886 160.418 887.72 154.751C890.053 149.251 892.553 144.418 895.22 140.251C897.886 136.084 901.303 134.001 905.47 134.001C907.803 134.001 909.636 134.668 910.97 136.001C912.47 137.334 913.22 138.668 913.22 140.001C913.22 141.168 912.72 142.168 911.72 143.001C910.72 143.668 909.053 143.918 906.72 143.751C904.886 143.418 902.803 143.751 900.47 144.751C898.136 145.751 895.72 148.918 893.22 154.251C890.553 160.251 887.97 167.251 885.47 175.251C883.136 183.251 880.303 191.834 876.97 201.001C873.636 210.168 869.22 219.584 863.72 229.251C858.386 239.084 851.22 248.751 842.22 258.251C833.386 267.584 822.886 275.584 810.72 282.251C798.72 288.918 786.136 292.251 772.97 292.251ZM970.954 119.251C969.954 119.251 968.871 118.834 967.704 118.001C964.704 115.168 963.204 111.584 963.204 107.251C963.204 102.084 965.371 96.751 969.704 91.251C974.204 85.5843 980.787 81.0843 989.454 77.751C999.287 73.9176 1009.95 70.751 1021.45 68.251C1032.95 65.5843 1044.7 63.6676 1056.7 62.501C1068.87 61.1676 1080.54 60.501 1091.7 60.501C1095.87 60.501 1099.95 60.5843 1103.95 60.751C1107.95 60.9176 1111.79 61.1676 1115.45 61.501C1139.95 63.8343 1158.62 68.501 1171.45 75.501C1184.45 82.501 1190.95 89.8343 1190.95 97.501C1190.95 100.668 1189.87 103.668 1187.7 106.501C1186.7 107.834 1185.2 109.168 1183.2 110.501C1181.37 111.668 1179.87 112.251 1178.7 112.251C1177.7 112.251 1177.2 111.751 1177.2 110.751C1177.2 109.584 1178.04 107.668 1179.7 105.001C1181.7 102.001 1182.7 99.251 1182.7 96.751C1182.7 91.9176 1179.62 88.1676 1173.45 85.501C1167.45 82.6676 1159.54 80.751 1149.7 79.751C1140.04 78.5843 1129.62 78.001 1118.45 78.001C1110.79 78.001 1103.04 78.251 1095.2 78.751C1087.37 79.0843 1080.04 79.5843 1073.2 80.251C1070.04 80.5843 1065.2 81.1676 1058.7 82.001C1052.37 82.8343 1045.2 83.9176 1037.2 85.251C1029.2 86.4176 1021.12 87.9176 1012.95 89.751C1004.79 91.4176 997.287 93.3343 990.454 95.501C983.621 97.6676 978.037 100.084 973.704 102.751C969.537 105.251 967.454 108.084 967.454 111.251C967.454 113.418 968.704 115.668 971.204 118.001C971.537 118.334 971.704 118.584 971.704 118.751C971.704 119.084 971.454 119.251 970.954 119.251ZM1039.7 245.251C1031.04 244.584 1025.12 241.834 1021.95 237.001C1018.79 232.168 1017.2 226.501 1017.2 220.001C1017.2 214.501 1017.95 208.834 1019.45 203.001C1020.95 197.168 1022.54 191.834 1024.2 187.001C1025.87 182.334 1028.04 177.418 1030.7 172.251C1033.54 167.084 1037.29 160.918 1041.95 153.751C1046.79 146.584 1053.04 137.584 1060.7 126.751C1068.37 115.918 1077.87 102.501 1089.2 86.501C1091.2 84.001 1092.95 82.751 1094.45 82.751C1095.45 82.751 1096.12 83.1676 1096.45 84.001C1096.95 84.6676 1097.04 85.3343 1096.7 86.001C1081.04 109.168 1068.95 129.084 1060.45 145.751C1052.12 162.251 1045.95 176.334 1041.95 188.001C1041.12 190.334 1040.04 193.668 1038.7 198.001C1037.54 202.168 1036.45 206.751 1035.45 211.751C1034.45 216.584 1033.95 221.168 1033.95 225.501C1033.95 230.168 1034.79 234.168 1036.45 237.501C1038.12 240.834 1041.04 242.501 1045.2 242.501C1047.7 242.501 1050.04 241.668 1052.2 240.001C1053.04 239.501 1053.54 239.251 1053.7 239.251C1054.04 239.251 1054.2 239.418 1054.2 239.751C1054.2 240.251 1053.7 240.918 1052.7 241.751C1049.54 244.584 1045.2 245.751 1039.7 245.251ZM1129.86 225.251C1125.69 225.251 1122.36 224.084 1119.86 221.751C1117.53 219.418 1116.36 216.251 1116.36 212.251C1116.36 209.751 1116.94 206.918 1118.11 203.751C1119.28 200.584 1121.11 197.334 1123.61 194.001C1127.44 188.834 1131.11 184.334 1134.61 180.501C1138.11 176.501 1140.69 172.918 1142.36 169.751C1144.03 166.751 1144.86 164.418 1144.86 162.751C1144.86 160.251 1143.36 159.001 1140.36 159.001C1137.69 159.001 1133.86 160.501 1128.86 163.501C1124.03 166.334 1118.94 171.001 1113.61 177.501C1110.61 181.168 1107.19 185.501 1103.36 190.501C1099.53 195.334 1096.44 199.834 1094.11 204.001C1093.11 205.834 1092.11 207.751 1091.11 209.751C1090.28 211.584 1088.94 214.751 1087.11 219.251C1086.61 220.418 1085.19 221.668 1082.86 223.001C1080.69 224.334 1078.94 225.001 1077.61 225.001C1076.61 225.001 1076.11 224.584 1076.11 223.751C1076.11 223.084 1076.36 222.251 1076.86 221.251C1077.69 219.751 1079.53 215.001 1082.36 207.001C1085.36 199.001 1089.11 189.584 1093.61 178.751C1091.11 181.418 1088.36 184.334 1085.36 187.501C1082.36 190.501 1079.03 193.418 1075.36 196.251C1074.69 196.918 1073.94 197.251 1073.11 197.251C1072.11 197.251 1071.61 196.834 1071.61 196.001C1071.61 195.334 1072.36 194.418 1073.86 193.251C1077.69 189.918 1081.53 186.418 1085.36 182.751C1089.19 178.918 1093.36 174.168 1097.86 168.501C1099.36 164.834 1102.03 159.584 1105.86 152.751C1109.69 145.751 1114.28 138.001 1119.61 129.501C1124.94 121.001 1130.86 112.501 1137.36 104.001C1143.86 95.501 1150.53 87.9176 1157.36 81.251C1163.53 75.251 1169.94 70.6676 1176.61 67.501C1183.44 64.3343 1189.61 62.751 1195.11 62.751C1199.94 62.751 1203.86 63.9176 1206.86 66.251C1209.86 68.5843 1211.36 72.3343 1211.36 77.501C1211.36 82.6676 1209.94 88.1676 1207.11 94.001C1204.28 99.8343 1201.28 104.501 1198.11 108.001C1190.94 116.001 1182.44 123.334 1172.61 130.001C1162.94 136.668 1152.78 142.334 1142.11 147.001C1141.78 147.168 1141.44 147.334 1141.11 147.501C1140.78 147.501 1140.44 147.501 1140.11 147.501C1138.94 147.501 1138.36 147.084 1138.36 146.251C1138.36 145.251 1139.28 144.418 1141.11 143.751C1147.44 140.918 1153.86 137.418 1160.36 133.251C1167.03 129.084 1173.19 124.584 1178.86 119.751C1184.53 114.918 1189.28 110.084 1193.11 105.251C1197.61 99.5843 1200.53 95.001 1201.86 91.501C1203.19 87.8343 1203.86 84.751 1203.86 82.251C1203.86 78.9176 1202.03 77.251 1198.36 77.251C1196.69 77.251 1194.28 78.0843 1191.11 79.751C1187.94 81.251 1184.19 83.751 1179.86 87.251C1173.19 92.5843 1166.28 99.0843 1159.11 106.751C1152.11 114.418 1145.19 122.751 1138.36 131.751C1131.69 140.751 1125.36 149.918 1119.36 159.251C1113.36 168.584 1107.94 177.668 1103.11 186.501C1105.11 183.668 1107.19 180.834 1109.36 178.001C1111.53 175.001 1113.69 172.334 1115.86 170.001C1120.86 164.501 1125.78 160.501 1130.61 158.001C1135.44 155.501 1139.78 154.251 1143.61 154.251C1147.94 154.251 1151.44 155.584 1154.11 158.251C1156.78 160.751 1158.11 164.168 1158.11 168.501C1158.11 170.834 1157.69 173.168 1156.86 175.501C1156.19 177.668 1155.36 179.668 1154.36 181.501C1153.03 184.334 1151.28 187.668 1149.11 191.501C1146.94 195.334 1144.86 198.918 1142.86 202.251C1139.03 208.418 1137.11 212.834 1137.11 215.501C1137.11 217.001 1137.78 217.751 1139.11 217.751C1140.78 217.751 1143.53 216.584 1147.36 214.251C1150.36 212.418 1153.69 210.084 1157.36 207.251C1161.19 204.251 1164.94 201.168 1168.61 198.001C1172.44 194.834 1175.69 192.084 1178.36 189.751C1181.19 187.251 1183.03 185.584 1183.86 184.751C1184.86 183.751 1185.61 183.251 1186.11 183.251C1186.61 183.251 1186.86 183.501 1186.86 184.001C1186.86 184.834 1186.28 186.001 1185.11 187.501C1180.78 192.001 1175.36 197.084 1168.86 202.751C1162.36 208.418 1155.03 213.918 1146.86 219.251C1143.69 221.418 1140.61 223.001 1137.61 224.001C1134.78 224.834 1132.19 225.251 1129.86 225.251ZM1190.44 225.251C1185.27 225.251 1181.27 223.668 1178.44 220.501C1175.61 217.168 1174.19 212.918 1174.19 207.751C1174.19 202.918 1175.44 197.584 1177.94 191.751C1180.61 185.918 1184.77 180.001 1190.44 174.001C1196.27 167.668 1203.52 162.584 1212.19 158.751C1220.86 154.751 1229.11 152.751 1236.94 152.751C1243.27 152.751 1248.69 154.168 1253.19 157.001C1257.69 159.668 1260.69 163.084 1262.19 167.251C1264.02 167.251 1266.27 167.751 1268.94 168.751C1271.77 169.751 1273.19 171.584 1273.19 174.251C1273.19 176.084 1272.27 178.168 1270.44 180.501C1269.27 182.168 1267.19 184.668 1264.19 188.001C1261.36 191.334 1258.69 194.918 1256.19 198.751C1254.19 201.751 1252.61 204.584 1251.44 207.251C1250.27 209.751 1249.69 211.918 1249.69 213.751C1249.69 216.251 1250.94 217.501 1253.44 217.501C1256.27 217.501 1260.52 215.918 1266.19 212.751C1272.36 209.251 1278.27 205.251 1283.94 200.751C1289.61 196.251 1294.02 192.668 1297.19 190.001C1298.02 189.334 1298.61 189.001 1298.94 189.001C1299.61 189.001 1299.94 189.418 1299.94 190.251C1299.94 191.251 1299.52 192.168 1298.69 193.001C1297.19 194.334 1294.27 196.834 1289.94 200.501C1285.61 204.168 1280.61 208.001 1274.94 212.001C1269.44 216.001 1264.02 219.251 1258.69 221.751C1256.02 222.918 1253.52 223.834 1251.19 224.501C1249.02 225.001 1247.02 225.251 1245.19 225.251C1240.69 225.251 1237.27 224.001 1234.94 221.501C1232.61 218.834 1231.44 215.418 1231.44 211.251C1231.44 209.584 1231.69 207.834 1232.19 206.001C1232.69 204.168 1233.27 202.334 1233.94 200.501L1235.69 196.251C1231.36 201.584 1227.02 206.084 1222.69 209.751C1218.36 213.251 1214.02 216.334 1209.69 219.001C1206.02 221.168 1202.52 222.751 1199.19 223.751C1196.02 224.751 1193.11 225.251 1190.44 225.251ZM1198.19 218.751C1201.19 218.751 1205.52 217.001 1211.19 213.501C1216.86 209.834 1223.44 204.251 1230.94 196.751C1231.94 195.751 1233.77 194.001 1236.44 191.501C1239.27 188.834 1242.27 185.918 1245.44 182.751C1248.61 179.418 1251.27 176.168 1253.44 173.001C1255.77 169.668 1256.94 166.918 1256.94 164.751C1256.94 161.584 1254.19 160.001 1248.69 160.001C1243.86 160.001 1238.02 161.918 1231.19 165.751C1224.52 169.418 1218.11 174.918 1211.94 182.251C1205.61 189.751 1200.94 196.251 1197.94 201.751C1195.11 207.084 1193.69 211.168 1193.69 214.001C1193.69 217.168 1195.19 218.751 1198.19 218.751ZM1351.33 148.501C1349 148.501 1347.25 147.751 1346.08 146.251C1344.92 144.751 1344.33 143.168 1344.33 141.501C1344.33 138.168 1345.92 134.918 1349.08 131.751C1352.25 128.418 1355.58 126.751 1359.08 126.751C1361.42 126.751 1363.17 127.501 1364.33 129.001C1365.5 130.501 1366.08 132.084 1366.08 133.751C1366.08 137.251 1364.5 140.584 1361.33 143.751C1358.33 146.918 1355 148.501 1351.33 148.501ZM1313.08 225.251C1306.25 225.251 1301.58 223.834 1299.08 221.001C1296.75 218.001 1295.58 214.668 1295.58 211.001C1295.58 208.001 1296.08 205.168 1297.08 202.501C1298.08 199.668 1298.92 197.668 1299.58 196.501C1300.58 194.834 1301.92 192.918 1303.58 190.751C1305.42 188.584 1307.42 186.251 1309.58 183.751C1306.25 186.584 1303.08 189.334 1300.08 192.001C1297.25 194.668 1294.92 196.668 1293.08 198.001C1292.58 198.501 1292.08 198.751 1291.58 198.751C1290.92 198.751 1290.58 198.334 1290.58 197.501C1290.58 196.168 1291.5 194.834 1293.33 193.501C1297.67 189.834 1301.83 185.834 1305.83 181.501C1310 177.168 1313.92 173.168 1317.58 169.501C1321.25 165.668 1324.5 163.001 1327.33 161.501C1330.33 159.834 1332.75 158.751 1334.58 158.251C1336.42 157.751 1337.92 157.501 1339.08 157.501C1340.92 157.501 1342.25 157.834 1343.08 158.501C1343.92 159.001 1344.08 159.584 1343.58 160.251C1340.75 163.084 1337.92 166.751 1335.08 171.251C1332.42 175.584 1329.92 180.168 1327.58 185.001C1325.25 189.834 1323.33 194.418 1321.83 198.751C1320.5 203.084 1319.83 206.751 1319.83 209.751C1319.83 213.918 1321.5 216.001 1324.83 216.001C1328 216.001 1332.08 214.584 1337.08 211.751C1342.25 208.751 1347.58 205.001 1353.08 200.501C1358.75 196.001 1364 191.584 1368.83 187.251C1369.5 186.584 1370.08 186.251 1370.58 186.251C1371.42 186.251 1371.83 186.668 1371.83 187.501C1372 188.334 1371.83 188.918 1371.33 189.251C1365.83 194.418 1359.58 199.834 1352.58 205.501C1345.75 211.001 1338.83 215.668 1331.83 219.501C1325 223.334 1318.75 225.251 1313.08 225.251ZM1724.33 282.251C1720.17 282.251 1715.67 281.168 1710.83 279.001C1706.17 277.001 1702.25 273.918 1699.08 269.751C1696.08 265.751 1694.75 260.834 1695.08 255.001C1695.25 251.501 1695.58 248.001 1696.08 244.501C1696.75 241.168 1698.08 237.084 1700.08 232.251C1702.25 227.418 1705.58 221.168 1710.08 213.501C1714.75 205.668 1721.17 195.751 1729.33 183.751C1737.67 171.751 1748.25 156.751 1761.08 138.751C1767.25 130.251 1771.58 123.251 1774.08 117.751C1776.58 112.251 1777.83 107.918 1777.83 104.751C1777.83 102.084 1777.08 100.168 1775.58 99.001C1774.08 97.8343 1772.17 97.251 1769.83 97.251C1766.5 97.251 1762.5 98.251 1757.83 100.251C1753.33 102.251 1749 104.834 1744.83 108.001C1737 113.834 1729 120.501 1720.83 128.001C1712.67 135.334 1704.75 142.918 1697.08 150.751C1689.42 158.584 1682.25 166.168 1675.58 173.501C1670.08 182.334 1664.92 190.418 1660.08 197.751C1655.25 204.918 1651.75 210.084 1649.58 213.251C1648.92 214.418 1647.83 215.251 1646.33 215.751C1645 216.251 1643.67 216.501 1642.33 216.501C1640 216.501 1637.92 215.918 1636.08 214.751C1634.25 213.418 1633.83 211.834 1634.83 210.001C1634.83 210.001 1635.83 208.251 1637.83 204.751C1639.83 201.251 1642.42 196.584 1645.58 190.751C1648.92 184.918 1652.42 178.501 1656.08 171.501C1659.92 164.501 1663.58 157.584 1667.08 150.751C1670.58 143.751 1673.58 137.334 1676.08 131.501C1678.75 125.668 1680.5 121.084 1681.33 117.751C1682.33 113.418 1682.83 109.418 1682.83 105.751C1682.83 102.084 1682.17 99.1676 1680.83 97.001C1679.5 94.6676 1677.17 93.501 1673.83 93.501C1671.67 93.501 1668.92 94.1676 1665.58 95.501C1662.25 96.8343 1658.33 98.9176 1653.83 101.751C1646.17 106.751 1637.5 113.334 1627.83 121.501C1618.33 129.501 1608.42 138.501 1598.08 148.501C1587.92 158.334 1577.75 168.501 1567.58 179.001C1557.58 189.334 1548.25 199.418 1539.58 209.251C1539.08 209.751 1538.5 210.001 1537.83 210.001C1531.5 218.168 1526.75 223.501 1523.58 226.001C1520.58 228.501 1519.08 229.001 1519.08 227.501C1519.08 224.168 1523.67 216.751 1532.83 205.251C1540 196.418 1547.67 187.084 1555.83 177.251C1564.17 167.251 1571.92 157.334 1579.08 147.501C1586.42 137.668 1592.25 128.501 1596.58 120.001C1600.92 111.501 1603.08 104.334 1603.08 98.501C1603.08 90.6676 1599.83 85.251 1593.33 82.251C1587 79.251 1578.92 77.751 1569.08 77.751C1561.25 77.751 1552.83 78.501 1543.83 80.001C1535 81.3343 1526.17 83.0843 1517.33 85.251C1508.67 87.251 1500.67 89.4176 1493.33 91.751C1486 93.9176 1480.08 95.751 1475.58 97.251C1468.25 99.751 1461.5 102.418 1455.33 105.251C1449.17 108.084 1444.25 111.001 1440.58 114.001C1437.08 116.834 1435.33 119.751 1435.33 122.751C1435.33 125.584 1437.25 128.334 1441.08 131.001C1441.42 131.168 1441.58 131.418 1441.58 131.751C1441.58 132.084 1441.17 132.251 1440.33 132.251C1439.5 132.251 1438.67 132.001 1437.83 131.501C1433 128.168 1430.58 123.334 1430.58 117.001C1430.58 112.334 1432.17 107.418 1435.33 102.251C1438.5 97.0843 1443.42 92.6676 1450.08 89.001C1458.58 84.1676 1468.08 79.8343 1478.58 76.001C1489.08 72.001 1499.92 68.6676 1511.08 66.001C1522.25 63.1676 1533.25 61.0843 1544.08 59.751C1555.08 58.251 1565.25 57.501 1574.58 57.501C1586.92 57.501 1596.58 58.751 1603.58 61.251C1610.75 63.751 1615.83 67.1676 1618.83 71.501C1621.83 75.8343 1623.33 80.6676 1623.33 86.001C1623.33 93.1676 1621.17 100.751 1616.83 108.751C1612.67 116.751 1608 123.918 1602.83 130.251C1598.17 135.918 1592.17 143.001 1584.83 151.501C1577.67 160.001 1570.58 168.584 1563.58 177.251C1573.75 166.584 1584.08 156.168 1594.58 146.001C1605.08 135.834 1615.25 126.584 1625.08 118.251C1634.92 109.918 1643.75 103.168 1651.58 98.001C1660.08 92.501 1667.5 88.5843 1673.83 86.251C1680.33 83.751 1685.83 82.501 1690.33 82.501C1696.67 82.501 1701.17 84.4176 1703.83 88.251C1706.67 92.0843 1708.08 96.8343 1708.08 102.501C1708.08 108.501 1706.67 115.001 1703.83 122.001C1702 126.501 1699.58 131.668 1696.58 137.501C1693.58 143.168 1690.25 149.084 1686.58 155.251C1695.25 146.251 1704.42 137.251 1714.08 128.251C1723.92 119.251 1733.42 111.334 1742.58 104.501C1750.58 98.6676 1759 93.8343 1767.83 90.001C1776.67 86.1676 1784.17 84.251 1790.33 84.251C1794 84.251 1796.92 85.0843 1799.08 86.751C1801.25 88.251 1802.33 90.751 1802.33 94.251C1802.33 97.251 1801.33 101.084 1799.33 105.751C1797.33 110.418 1794.17 116.001 1789.83 122.501C1772.83 147.668 1759 169.334 1748.33 187.501C1737.83 205.501 1730.08 220.501 1725.08 232.501C1720.08 244.501 1717.25 254.084 1716.58 261.251C1716.42 262.084 1716.33 262.918 1716.33 263.751C1716.33 264.584 1716.33 265.418 1716.33 266.251C1716.33 270.918 1717.08 274.168 1718.58 276.001C1720.25 278.001 1722.08 279.001 1724.08 279.001C1726.58 279.001 1728.92 278.084 1731.08 276.251C1731.75 275.918 1732.17 275.751 1732.33 275.751C1733.17 275.751 1733.83 276.168 1734.33 277.001C1734.83 277.834 1734.67 278.668 1733.83 279.501C1731.5 281.334 1728.33 282.251 1724.33 282.251ZM1775.89 225.251C1770.72 225.251 1766.72 223.668 1763.89 220.501C1761.05 217.168 1759.64 212.918 1759.64 207.751C1759.64 202.918 1760.89 197.584 1763.39 191.751C1766.05 185.918 1770.22 180.001 1775.89 174.001C1781.72 167.668 1788.97 162.584 1797.64 158.751C1806.3 154.751 1814.55 152.751 1822.39 152.751C1828.72 152.751 1834.14 154.168 1838.64 157.001C1843.14 159.668 1846.14 163.084 1847.64 167.251C1849.47 167.251 1851.72 167.751 1854.39 168.751C1857.22 169.751 1858.64 171.584 1858.64 174.251C1858.64 176.084 1857.72 178.168 1855.89 180.501C1854.72 182.168 1852.64 184.668 1849.64 188.001C1846.8 191.334 1844.14 194.918 1841.64 198.751C1839.64 201.751 1838.05 204.584 1836.89 207.251C1835.72 209.751 1835.14 211.918 1835.14 213.751C1835.14 216.251 1836.39 217.501 1838.89 217.501C1841.72 217.501 1845.97 215.918 1851.64 212.751C1857.8 209.251 1863.72 205.251 1869.39 200.751C1875.05 196.251 1879.47 192.668 1882.64 190.001C1883.47 189.334 1884.05 189.001 1884.39 189.001C1885.05 189.001 1885.39 189.418 1885.39 190.251C1885.39 191.251 1884.97 192.168 1884.14 193.001C1882.64 194.334 1879.72 196.834 1875.39 200.501C1871.05 204.168 1866.05 208.001 1860.39 212.001C1854.89 216.001 1849.47 219.251 1844.14 221.751C1841.47 222.918 1838.97 223.834 1836.64 224.501C1834.47 225.001 1832.47 225.251 1830.64 225.251C1826.14 225.251 1822.72 224.001 1820.39 221.501C1818.05 218.834 1816.89 215.418 1816.89 211.251C1816.89 209.584 1817.14 207.834 1817.64 206.001C1818.14 204.168 1818.72 202.334 1819.39 200.501L1821.14 196.251C1816.8 201.584 1812.47 206.084 1808.14 209.751C1803.8 213.251 1799.47 216.334 1795.14 219.001C1791.47 221.168 1787.97 222.751 1784.64 223.751C1781.47 224.751 1778.55 225.251 1775.89 225.251ZM1783.64 218.751C1786.64 218.751 1790.97 217.001 1796.64 213.501C1802.3 209.834 1808.89 204.251 1816.39 196.751C1817.39 195.751 1819.22 194.001 1821.89 191.501C1824.72 188.834 1827.72 185.918 1830.89 182.751C1834.05 179.418 1836.72 176.168 1838.89 173.001C1841.22 169.668 1842.39 166.918 1842.39 164.751C1842.39 161.584 1839.64 160.001 1834.14 160.001C1829.3 160.001 1823.47 161.918 1816.64 165.751C1809.97 169.418 1803.55 174.918 1797.39 182.251C1791.05 189.751 1786.39 196.251 1783.39 201.751C1780.55 207.084 1779.14 211.168 1779.14 214.001C1779.14 217.168 1780.64 218.751 1783.64 218.751ZM1895.28 227.751C1888.62 227.751 1882.78 226.501 1877.78 224.001C1872.62 221.334 1868.87 216.501 1866.53 209.501C1866.37 208.834 1866.62 208.418 1867.28 208.251C1867.78 208.084 1868.12 208.418 1868.28 209.251C1869.95 212.918 1872.12 215.501 1874.78 217.001C1877.45 218.501 1880.37 219.251 1883.53 219.251C1888.87 219.251 1893.53 217.668 1897.53 214.501C1901.7 211.334 1905.37 207.334 1908.53 202.501C1911.87 197.668 1914.78 192.751 1917.28 187.751C1919.95 182.584 1922.45 178.168 1924.78 174.501C1928.45 168.334 1932.78 162.751 1937.78 157.751C1942.95 152.751 1947.62 149.668 1951.78 148.501C1950.78 148.001 1949.53 147.751 1948.03 147.751C1943.87 147.751 1939.28 149.001 1934.28 151.501C1929.28 154.001 1924.2 157.251 1919.03 161.251C1914.03 165.251 1909.12 169.501 1904.28 174.001C1899.62 178.334 1895.28 182.418 1891.28 186.251C1887.45 189.918 1884.37 192.834 1882.03 195.001C1880.7 196.168 1879.7 196.751 1879.03 196.751C1878.37 196.751 1878.03 196.418 1878.03 195.751C1878.03 194.751 1878.45 193.834 1879.28 193.001C1884.28 188.668 1889.45 183.834 1894.78 178.501C1900.12 173.001 1905.53 167.751 1911.03 162.751C1916.53 157.584 1922.12 153.334 1927.78 150.001C1933.45 146.668 1939.2 145.001 1945.03 145.001C1945.7 145.001 1946.28 145.001 1946.78 145.001C1947.45 145.001 1948.12 145.084 1948.78 145.251C1950.62 145.418 1952.28 145.918 1953.78 146.751C1955.45 147.584 1955.95 148.168 1955.28 148.501C1951.45 150.168 1948.45 153.501 1946.28 158.501C1944.12 163.501 1942.12 169.334 1940.28 176.001C1938.45 182.668 1936.2 189.418 1933.53 196.251C1931.03 203.084 1927.37 209.168 1922.53 214.501C1924.87 213.668 1928.53 211.751 1933.53 208.751C1938.53 205.751 1944.03 202.084 1950.03 197.751C1956.03 193.251 1961.62 188.334 1966.78 183.001C1967.45 182.334 1968.12 182.001 1968.78 182.001C1969.62 182.001 1970.03 182.418 1970.03 183.251C1970.03 183.918 1969.7 184.584 1969.03 185.251C1964.53 189.584 1959.53 194.251 1954.03 199.251C1948.53 204.084 1942.53 208.668 1936.03 213.001C1929.7 217.334 1923.12 220.918 1916.28 223.751C1909.45 226.418 1902.45 227.751 1895.28 227.751ZM1971.94 227.751C1965.28 227.751 1959.44 226.501 1954.44 224.001C1949.28 221.334 1945.53 216.501 1943.19 209.501C1943.03 208.834 1943.28 208.418 1943.94 208.251C1944.44 208.084 1944.78 208.418 1944.94 209.251C1946.61 212.918 1948.78 215.501 1951.44 217.001C1954.11 218.501 1957.03 219.251 1960.19 219.251C1965.53 219.251 1970.19 217.668 1974.19 214.501C1978.36 211.334 1982.03 207.334 1985.19 202.501C1988.53 197.668 1991.44 192.751 1993.94 187.751C1996.61 182.584 1999.11 178.168 2001.44 174.501C2005.11 168.334 2009.44 162.751 2014.44 157.751C2019.61 152.751 2024.28 149.668 2028.44 148.501C2027.44 148.001 2026.19 147.751 2024.69 147.751C2020.53 147.751 2015.94 149.001 2010.94 151.501C2005.94 154.001 2000.86 157.251 1995.69 161.251C1990.69 165.251 1985.78 169.501 1980.94 174.001C1976.28 178.334 1971.94 182.418 1967.94 186.251C1964.11 189.918 1961.03 192.834 1958.69 195.001C1957.36 196.168 1956.36 196.751 1955.69 196.751C1955.03 196.751 1954.69 196.418 1954.69 195.751C1954.69 194.751 1955.11 193.834 1955.94 193.001C1960.94 188.668 1966.11 183.834 1971.44 178.501C1976.78 173.001 1982.19 167.751 1987.69 162.751C1993.19 157.584 1998.78 153.334 2004.44 150.001C2010.11 146.668 2015.86 145.001 2021.69 145.001C2022.36 145.001 2022.94 145.001 2023.44 145.001C2024.11 145.001 2024.78 145.084 2025.44 145.251C2027.28 145.418 2028.94 145.918 2030.44 146.751C2032.11 147.584 2032.61 148.168 2031.94 148.501C2028.11 150.168 2025.11 153.501 2022.94 158.501C2020.78 163.501 2018.78 169.334 2016.94 176.001C2015.11 182.668 2012.86 189.418 2010.19 196.251C2007.69 203.084 2004.03 209.168 1999.19 214.501C2001.53 213.668 2005.19 211.751 2010.19 208.751C2015.19 205.751 2020.69 202.084 2026.69 197.751C2032.69 193.251 2038.28 188.334 2043.44 183.001C2044.11 182.334 2044.78 182.001 2045.44 182.001C2046.28 182.001 2046.69 182.418 2046.69 183.251C2046.69 183.918 2046.36 184.584 2045.69 185.251C2041.19 189.584 2036.19 194.251 2030.69 199.251C2025.19 204.084 2019.19 208.668 2012.69 213.001C2006.36 217.334 1999.78 220.918 1992.94 223.751C1986.11 226.418 1979.11 227.751 1971.94 227.751ZM2048.1 225.251C2042.94 225.251 2038.94 223.668 2036.1 220.501C2033.27 217.168 2031.85 212.918 2031.85 207.751C2031.85 202.918 2033.1 197.584 2035.6 191.751C2038.27 185.918 2042.44 180.001 2048.1 174.001C2053.94 167.668 2061.19 162.584 2069.85 158.751C2078.52 154.751 2086.77 152.751 2094.6 152.751C2100.94 152.751 2106.35 154.168 2110.85 157.001C2115.35 159.668 2118.35 163.084 2119.85 167.251C2121.69 167.251 2123.94 167.751 2126.6 168.751C2129.44 169.751 2130.85 171.584 2130.85 174.251C2130.85 176.084 2129.94 178.168 2128.1 180.501C2126.94 182.168 2124.85 184.668 2121.85 188.001C2119.02 191.334 2116.35 194.918 2113.85 198.751C2111.85 201.751 2110.27 204.584 2109.1 207.251C2107.94 209.751 2107.35 211.918 2107.35 213.751C2107.35 216.251 2108.6 217.501 2111.1 217.501C2113.94 217.501 2118.19 215.918 2123.85 212.751C2130.02 209.251 2135.94 205.251 2141.6 200.751C2147.27 196.251 2151.69 192.668 2154.85 190.001C2155.69 189.334 2156.27 189.001 2156.6 189.001C2157.27 189.001 2157.6 189.418 2157.6 190.251C2157.6 191.251 2157.19 192.168 2156.35 193.001C2154.85 194.334 2151.94 196.834 2147.6 200.501C2143.27 204.168 2138.27 208.001 2132.6 212.001C2127.1 216.001 2121.69 219.251 2116.35 221.751C2113.69 222.918 2111.19 223.834 2108.85 224.501C2106.69 225.001 2104.69 225.251 2102.85 225.251C2098.35 225.251 2094.94 224.001 2092.6 221.501C2090.27 218.834 2089.1 215.418 2089.1 211.251C2089.1 209.584 2089.35 207.834 2089.85 206.001C2090.35 204.168 2090.94 202.334 2091.6 200.501L2093.35 196.251C2089.02 201.584 2084.69 206.084 2080.35 209.751C2076.02 213.251 2071.69 216.334 2067.35 219.001C2063.69 221.168 2060.19 222.751 2056.85 223.751C2053.69 224.751 2050.77 225.251 2048.1 225.251ZM2055.85 218.751C2058.85 218.751 2063.19 217.001 2068.85 213.501C2074.52 209.834 2081.1 204.251 2088.6 196.751C2089.6 195.751 2091.44 194.001 2094.1 191.501C2096.94 188.834 2099.94 185.918 2103.1 182.751C2106.27 179.418 2108.94 176.168 2111.1 173.001C2113.44 169.668 2114.6 166.918 2114.6 164.751C2114.6 161.584 2111.85 160.001 2106.35 160.001C2101.52 160.001 2095.69 161.918 2088.85 165.751C2082.19 169.418 2075.77 174.918 2069.6 182.251C2063.27 189.751 2058.6 196.251 2055.6 201.751C2052.77 207.084 2051.35 211.168 2051.35 214.001C2051.35 217.168 2052.85 218.751 2055.85 218.751ZM2131 291.751C2120.83 291.751 2112.42 290.584 2105.75 288.251C2099.08 285.918 2093.75 282.751 2089.75 278.751C2087.08 275.918 2084.58 272.168 2082.25 267.501C2079.92 263.001 2078.75 259.168 2078.75 256.001C2078.75 254.834 2079 254.251 2079.5 254.251C2080.67 254.251 2081.42 254.918 2081.75 256.251C2081.75 256.751 2082.33 258.668 2083.5 262.001C2084.5 265.334 2086.42 269.001 2089.25 273.001C2092.08 277.001 2096.25 280.501 2101.75 283.501C2107.25 286.501 2114.42 288.001 2123.25 288.001C2133.75 288.001 2143.17 285.501 2151.5 280.501C2159.83 275.668 2167.25 269.251 2173.75 261.251C2180.42 253.418 2186.5 244.834 2192 235.501C2197.5 226.168 2202.75 217.001 2207.75 208.001C2212.75 199.001 2217.83 191.084 2223 184.251C2220.83 186.584 2218.08 189.501 2214.75 193.001C2211.58 196.334 2208.17 199.751 2204.5 203.251C2200.83 206.751 2197.33 209.918 2194 212.751C2190.67 215.584 2187.92 217.668 2185.75 219.001C2182.08 221.168 2178.58 222.751 2175.25 223.751C2172.08 224.751 2169.17 225.251 2166.5 225.251C2161.33 225.251 2157.33 223.668 2154.5 220.501C2151.67 217.168 2150.25 212.918 2150.25 207.751C2150.25 202.918 2151.5 197.584 2154 191.751C2156.67 185.918 2160.83 180.001 2166.5 174.001C2172.33 167.668 2179.58 162.584 2188.25 158.751C2196.92 154.751 2205.17 152.751 2213 152.751C2215.83 152.751 2218.58 153.084 2221.25 153.751C2223.92 154.251 2226.33 155.168 2228.5 156.501C2231.5 158.334 2233.67 160.084 2235 161.751C2236.5 163.251 2237.58 165.084 2238.25 167.251C2239.25 167.251 2240.83 167.751 2243 168.751C2245.17 169.584 2247.17 170.668 2249 172.001C2250.83 173.168 2251.75 174.418 2251.75 175.751C2251.75 176.418 2251.08 177.168 2249.75 178.001C2246.42 179.668 2242.67 183.668 2238.5 190.001C2234.33 196.168 2229.67 203.584 2224.5 212.251C2219.5 220.751 2213.83 229.584 2207.5 238.751C2201.33 248.084 2194.42 256.751 2186.75 264.751C2179.08 272.751 2170.58 279.251 2161.25 284.251C2152.08 289.251 2142 291.751 2131 291.751ZM2173.5 218.751C2176.83 218.751 2180.92 217.084 2185.75 213.751C2189.42 211.251 2193.42 208.168 2197.75 204.501C2202.08 200.668 2206.33 196.668 2210.5 192.501C2214.67 188.334 2218.25 184.501 2221.25 181.001C2226.75 174.668 2229.5 169.501 2229.5 165.501C2229.5 162.168 2227.5 160.501 2223.5 160.501C2219.5 160.501 2214 162.418 2207 166.251C2203 168.418 2198.75 171.501 2194.25 175.501C2189.75 179.501 2185.5 183.834 2181.5 188.501C2177.67 193.168 2174.58 197.501 2172.25 201.501C2169.58 206.334 2168.25 210.251 2168.25 213.251C2168.25 216.918 2170 218.751 2173.5 218.751ZM2279.55 227.501C2272.22 227.501 2266.05 225.751 2261.05 222.251C2256.22 218.584 2253.8 213.334 2253.8 206.501C2253.8 199.168 2255.55 192.334 2259.05 186.001C2262.55 179.668 2267.22 174.168 2273.05 169.501C2278.89 164.668 2285.22 160.918 2292.05 158.251C2299.05 155.584 2305.97 154.251 2312.8 154.251C2319.64 154.251 2324.72 155.501 2328.05 158.001C2331.39 160.334 2333.05 163.251 2333.05 166.751C2333.05 170.084 2331.47 173.668 2328.3 177.501C2325.3 181.168 2320.89 184.418 2315.05 187.251C2311.39 188.918 2307.14 190.418 2302.3 191.751C2297.64 192.918 2293.55 193.501 2290.05 193.501C2287.39 193.501 2286.05 193.084 2286.05 192.251C2286.05 191.584 2287.22 191.251 2289.55 191.251C2291.72 191.251 2295.05 190.668 2299.55 189.501C2304.22 188.168 2308.72 186.418 2313.05 184.251C2317.89 181.584 2321.3 178.918 2323.3 176.251C2325.3 173.584 2326.3 171.168 2326.3 169.001C2326.3 167.001 2325.47 165.334 2323.8 164.001C2322.3 162.668 2320.14 162.001 2317.3 162.001C2314.64 162.001 2311.64 162.751 2308.3 164.251C2303.47 166.418 2298.47 170.001 2293.3 175.001C2288.3 179.834 2284.14 185.168 2280.8 191.001C2277.47 196.834 2275.8 202.418 2275.8 207.751C2275.8 211.418 2276.8 214.501 2278.8 217.001C2280.97 219.501 2284.14 220.751 2288.3 220.751C2292.64 220.751 2297.64 219.418 2303.3 216.751C2308.97 213.918 2314.72 210.501 2320.55 206.501C2326.39 202.334 2331.8 198.168 2336.8 194.001C2341.8 189.834 2345.8 186.334 2348.8 183.501C2349.8 182.501 2350.55 182.001 2351.05 182.001C2351.55 182.001 2351.8 182.418 2351.8 183.251C2351.8 184.418 2351.3 185.418 2350.3 186.251C2343.97 192.084 2337.05 198.168 2329.55 204.501C2322.22 210.834 2314.3 216.251 2305.8 220.751C2297.47 225.084 2288.72 227.334 2279.55 227.501Z" fill="#EC839E"/>
<path fill-rule="evenodd" clip-rule="evenodd" d="M168.892 183.981C149.518 237.261 35.8181 215.847 0 193.54C43.4659 148.418 120.328 147.781 168.892 183.981Z" fill="#9D8954"/>
<path fill-rule="evenodd" clip-rule="evenodd" d="M168.893 183.981C188.394 237.261 302.094 215.847 337.913 193.54C294.447 148.418 217.585 147.781 168.893 183.981Z" fill="#9D8954"/>
<path fill-rule="evenodd" clip-rule="evenodd" d="M168.894 183.98C183.424 238.918 98.6602 261.352 56.4688 263.518C66.5387 201.698 108.347 181.941 168.894 183.98Z" fill="#C4AB69"/>
<path fill-rule="evenodd" clip-rule="evenodd" d="M168.892 183.98C154.488 238.918 239.253 261.352 281.444 263.518C271.247 201.698 229.438 181.941 168.892 183.98Z" fill="#C4AB69"/>
<path fill-rule="evenodd" clip-rule="evenodd" d="M168.893 183.981C236.322 208.454 213.123 268.109 168.893 296.279C124.663 268.109 101.591 208.454 168.893 183.981Z" fill="#D0BC87"/>
<path fill-rule="evenodd" clip-rule="evenodd" d="M114.975 103.677C96.4924 74.4877 86.4225 45.5524 95.8552 17C127.594 24.903 143.783 47.7194 156.019 74.4877C142.38 84.1748 128.613 93.8619 114.975 103.677ZM213.506 103.677C231.988 74.4877 241.93 45.5524 232.625 17C200.887 24.903 184.698 47.7194 172.461 74.4877C186.101 84.1748 199.74 93.8619 213.506 103.677Z" fill="#D4768E"/>
<path fill-rule="evenodd" clip-rule="evenodd" d="M168.892 196.856C152.704 177.099 136.388 157.341 120.2 137.584C79.6659 86.5977 60.9289 127.641 23.1982 88.3818C26.3852 172.127 83.9998 229.614 168.892 196.856C185.208 177.099 201.396 157.341 217.712 137.584C258.246 86.5977 276.856 127.641 314.714 88.3818C311.527 172.127 253.785 229.614 168.892 196.856Z" fill="#EC839E"/>
<path fill-rule="evenodd" clip-rule="evenodd" d="M201.396 96.4108C209.427 51.6704 233.39 53.0725 267.933 41.0908C279.278 94.7535 265.001 118.973 227.272 150.839C218.604 132.611 210.064 114.511 201.396 96.4108ZM136.389 96.4108C128.358 51.6704 97.3842 55.2387 69.9787 41.0908C58.6343 94.7535 72.9105 118.973 110.64 150.839C119.181 132.611 127.848 114.511 136.389 96.4108Z" fill="#EC839E"/>
<path fill-rule="evenodd" clip-rule="evenodd" d="M168.894 196.855C274.945 158.233 238.49 64.2903 168.894 20.0596C99.2975 64.2903 62.8421 158.233 168.894 196.855Z" fill="#F09CB1"/>
<path fill-rule="evenodd" clip-rule="evenodd" d="M168.893 196.854C151.175 93.6069 117.269 140.514 44.6143 77.0361C47.8005 143.063 91.2664 204.757 168.893 196.854C186.738 93.6069 220.645 140.514 293.3 77.0361C290.113 143.063 246.52 204.757 168.893 196.854Z" fill="#EE8FA8"/>
</svg>
