<svg width="2449" height="360" viewBox="0 0 2449 360" fill="none" xmlns="http://www.w3.org/2000/svg">
<path d="M549.75 258C539.417 258 530.333 256.917 522.5 254.75C514.667 252.583 509.083 250.167 505.75 247.5C497.417 241 493.25 233.5 493.25 225C493.25 217.833 496.333 210.667 502.5 203.5C508.833 196.167 518.417 189.5 531.25 183.5C544.083 177.333 560.25 172.5 579.75 169C588.083 167.5 596.5 166.333 605 165.5C613.667 164.667 622.333 164.25 631 164.25C638.333 164.25 645.667 164.583 653 165.25C660.5 165.917 667.833 167 675 168.5C677.333 169 680 169.667 683 170.5C686 171.167 689.083 172 692.25 173C706.083 158.833 719.583 144.75 732.75 130.75C745.917 116.75 758.667 104.917 771 95.25C779.667 88.4167 787.75 83.75 795.25 81.25C802.75 78.75 809.417 77.5 815.25 77.5C822.083 77.5 827.667 78.5833 832 80.75C836.5 82.75 839.417 84.4167 840.75 85.75C841.25 86.25 841.25 86.75 840.75 87.25C840.25 87.75 839.75 87.75 839.25 87.25C838.417 86.25 836.417 85.1667 833.25 84C830.083 82.8333 826 82.25 821 82.25C814.833 82.25 807.583 83.6667 799.25 86.5C790.917 89.3333 781.667 94.6667 771.5 102.5C759 112.333 746.583 123.667 734.25 136.5C722.083 149.167 709.667 161.917 697 174.75C703.5 177.083 709.417 180.25 714.75 184.25C720.25 188.25 723.417 193.167 724.25 199V200C724.25 200.667 724.083 201 723.75 201C723.25 201 722.75 200.5 722.25 199.5C721.583 197.667 719.667 196.083 716.5 194.75C713.5 193.417 710 192.333 706 191.5C702 190.667 698.167 190 694.5 189.5C690.833 189 688.083 188.667 686.25 188.5L683.5 188.25C669.667 201.583 655.333 213.917 640.5 225.25C625.833 236.417 610.25 244.833 593.75 250.5C585.917 253.167 578.25 255.083 570.75 256.25C563.417 257.417 556.417 258 549.75 258ZM743 270.25C735.5 264.917 730 258.5 726.5 251C723 243.5 721.25 235.417 721.25 226.75C721.25 218.083 722.75 209.417 725.75 200.75C728.75 191.917 733.083 182.75 738.75 173.25C744.583 163.75 750.917 154.5 757.75 145.5C764.583 136.333 771.167 128 777.5 120.5C784 112.833 789.417 106.5 793.75 101.5C798.25 96.5 800.917 93.4167 801.75 92.25C802.75 90.9167 803.5 90.25 804 90.25C804.667 90.25 805.167 90.8333 805.5 92C805.833 93 806 94.1667 806 95.5C806 98.1667 805.583 100.083 804.75 101.25C800.417 106.75 795.25 113.75 789.25 122.25C783.25 130.75 777.167 140.25 771 150.75C764.833 161.083 759.083 171.75 753.75 182.75C748.417 193.75 744.083 204.5 740.75 215C737.583 225.5 736 235.083 736 243.75C736 248.75 736.667 253.333 738 257.5C739.333 261.667 741.5 265.333 744.5 268.5C744.667 268.667 744.75 268.917 744.75 269.25C744.75 269.583 744.583 269.917 744.25 270.25C743.917 270.583 743.5 270.583 743 270.25ZM550.5 253.75C556.667 253.75 563.333 253.167 570.5 252C577.667 251 585.083 249.333 592.75 247C607.083 242.5 621.333 234.833 635.5 224C649.667 213.167 663.583 201.083 677.25 187.75C675.083 187.583 672.917 187.5 670.75 187.5C668.583 187.5 666.333 187.5 664 187.5C652.333 187.5 640.167 188.083 627.5 189.25C615 190.417 603.083 192.083 591.75 194.25C573.417 197.417 558.417 201.417 546.75 206.25C535.25 210.917 526.75 215.833 521.25 221C515.917 226.167 513.25 231.083 513.25 235.75C513.25 240.25 515.5 244.167 520 247.5C522.333 249.167 526.167 250.583 531.5 251.75C536.833 253.083 543.167 253.75 550.5 253.75ZM756.318 249.25C754.652 249.25 752.652 248.833 750.318 248C747.985 247.333 745.652 246 743.318 244C745.152 241.5 747.818 238.167 751.318 234C754.652 229.667 758.235 224.917 762.068 219.75C765.902 214.583 769.485 209.417 772.818 204.25C770.152 206.917 767.235 209.75 764.068 212.75C760.902 215.75 757.735 218.5 754.568 221C753.902 221.5 753.235 221.75 752.568 221.75C751.902 221.75 751.568 221.417 751.568 220.75C751.568 219.75 752.318 218.583 753.818 217.25C758.485 213.083 763.568 208.417 769.068 203.25C774.735 198.083 778.902 192.667 781.568 187C782.402 185 782.818 183.167 782.818 181.5C782.818 179.333 782.402 178 781.568 177.5C780.902 177 780.568 176.333 780.568 175.5C780.568 174 781.318 173.25 782.818 173.25C783.652 173.25 784.318 173.417 784.818 173.75C786.652 174.583 788.402 176.167 790.068 178.5C791.735 180.833 792.568 184.417 792.568 189.25C792.568 193.75 791.652 198.75 789.818 204.25C791.652 201.417 793.485 198.75 795.318 196.25C797.152 193.583 798.902 191.167 800.568 189C803.902 184.667 807.402 181.417 811.068 179.25C814.902 176.917 818.235 175.75 821.068 175.75C825.735 175.75 828.068 178.417 828.068 183.75C828.068 186.75 827.068 190.667 825.068 195.5C823.235 199.667 820.735 204.667 817.568 210.5C820.402 206.667 823.235 203 826.068 199.5C829.068 196 831.652 193.083 833.818 190.75C838.652 185.917 843.235 182.417 847.568 180.25C852.068 178.083 856.152 177 859.818 177C864.152 177 867.568 178.25 870.068 180.75C872.735 183.083 874.068 186.333 874.068 190.5C874.068 193.5 873.318 196.75 871.818 200.25C870.818 202.25 869.152 204.917 866.818 208.25C864.485 211.583 861.985 215.083 859.318 218.75C856.652 222.417 854.402 225.75 852.568 228.75C850.735 231.75 849.818 233.917 849.818 235.25C849.818 236.917 850.735 237.75 852.568 237.75C855.402 237.75 858.652 236.5 862.318 234C866.652 231 871.318 227.417 876.318 223.25C881.318 219.083 885.402 215.667 888.568 213C889.235 212.333 889.818 212 890.318 212C890.985 212 891.318 212.417 891.318 213.25C891.318 214.25 890.902 215.167 890.068 216C887.568 218.333 884.318 221.25 880.318 224.75C876.485 228.25 872.318 231.75 867.818 235.25C863.318 238.75 858.902 241.75 854.568 244.25C850.235 246.583 846.402 247.75 843.068 247.75C838.735 247.75 835.152 246.75 832.318 244.75C829.652 242.75 828.318 239.583 828.318 235.25C828.318 232.417 828.902 229.25 830.068 225.75C831.235 222.25 833.568 218.167 837.068 213.5C840.568 208.667 844.318 204 848.318 199.5C852.318 194.833 855.652 191 858.318 188C860.318 185.667 861.318 183.917 861.318 182.75C861.318 181.25 860.318 180.5 858.318 180.5C855.985 180.5 852.485 181.75 847.818 184.25C843.318 186.75 838.485 190.75 833.318 196.25C829.985 199.75 826.568 204.167 823.068 209.5C819.735 214.833 816.735 220.25 814.068 225.75C811.402 231.083 809.318 235.833 807.818 240C806.652 243 804.485 244.5 801.318 244.5C799.652 244.5 798.068 244 796.568 243C795.235 242 794.902 240.917 795.568 239.75C799.735 232.417 803.818 225.167 807.818 218C811.985 210.833 815.735 203.333 819.068 195.5C821.402 190.333 822.568 186.417 822.568 183.75C822.568 181.417 821.568 180.25 819.568 180.25C817.568 180.25 814.818 181.5 811.318 184C807.985 186.333 805.068 189 802.568 192C798.568 196.667 794.735 201.917 791.068 207.75C787.402 213.417 784.235 218.583 781.568 223.25C779.402 226.75 777.152 230.167 774.818 233.5C772.485 236.833 769.902 240 767.068 243C763.402 247.167 759.818 249.25 756.318 249.25ZM869.963 315.25C861.963 315.25 854.63 314 847.963 311.5C841.13 309.167 835.463 305.417 830.963 300.25C826.463 295.083 823.463 288.167 821.963 279.5C821.63 278.167 821.963 277.5 822.963 277.5C823.63 277.5 824.13 278.083 824.463 279.25C826.296 288.583 830.88 296.167 838.213 302C845.38 307.833 853.63 310.75 862.963 310.75C871.63 310.75 880.38 308.417 889.213 303.75C898.046 299.25 906.63 293 914.963 285C923.296 277.167 931.13 268.25 938.463 258.25C946.296 247.583 953.38 236.5 959.713 225C966.213 213.5 972.463 201.917 978.463 190.25C976.296 193.417 974.046 196.667 971.713 200C969.38 203.333 967.046 206.417 964.713 209.25C960.213 214.917 955.046 220.75 949.213 226.75C943.546 232.583 937.88 237.583 932.213 241.75C926.546 245.75 921.38 247.75 916.713 247.75C913.046 247.75 909.963 246.75 907.463 244.75C905.13 242.75 903.963 239.667 903.963 235.5C903.963 231.833 904.63 228.5 905.963 225.5C907.296 222.333 908.796 219.417 910.463 216.75C913.296 212.083 916.713 207.333 920.713 202.5C924.713 197.667 928.213 193.583 931.213 190.25C933.046 188.083 933.963 186.333 933.963 185C933.963 183.333 933.046 182.5 931.213 182.5C929.046 182.5 926.296 183.833 922.963 186.5C918.963 189.333 914.88 192.75 910.713 196.75C906.546 200.583 902.63 204.25 898.963 207.75C895.296 211.25 892.296 214 889.963 216C888.796 216.833 887.963 217.25 887.463 217.25C886.796 217.25 886.463 216.917 886.463 216.25C886.463 215.25 887.046 214.25 888.213 213.25C891.546 210.417 895.046 207.083 898.713 203.25C902.546 199.417 906.296 195.667 909.963 192C913.796 188.167 917.296 185.083 920.463 182.75C922.963 180.75 925.546 179.333 928.213 178.5C930.88 177.5 933.38 177 935.713 177C939.713 177 943.046 178.167 945.713 180.5C948.546 182.833 949.963 186.083 949.963 190.25C949.963 193.417 949.13 196.75 947.463 200.25C945.463 204.417 942.88 208.583 939.713 212.75C936.713 216.75 933.796 220.667 930.963 224.5C928.796 227.667 927.213 230.25 926.213 232.25C925.213 234.25 924.713 235.667 924.713 236.5C924.713 238 925.38 238.75 926.713 238.75C928.046 238.75 929.963 238 932.463 236.5C935.13 235 937.796 233.083 940.463 230.75C944.963 226.583 949.88 221.5 955.213 215.5C960.713 209.333 966.046 202.917 971.213 196.25C976.38 189.583 980.88 183.417 984.713 177.75C987.046 172.25 989.546 167.417 992.213 163.25C994.88 159.083 998.296 157 1002.46 157C1004.8 157 1006.63 157.667 1007.96 159C1009.46 160.333 1010.21 161.667 1010.21 163C1010.21 164.167 1009.71 165.167 1008.71 166C1007.71 166.667 1006.05 166.917 1003.71 166.75C1001.88 166.417 999.796 166.75 997.463 167.75C995.13 168.75 992.713 171.917 990.213 177.25C987.546 183.25 984.963 190.25 982.463 198.25C980.13 206.25 977.296 214.833 973.963 224C970.63 233.167 966.213 242.583 960.713 252.25C955.38 262.083 948.213 271.75 939.213 281.25C930.38 290.583 919.88 298.583 907.713 305.25C895.713 311.917 883.13 315.25 869.963 315.25ZM1067.95 142.25C1066.95 142.25 1065.86 141.833 1064.7 141C1061.7 138.167 1060.2 134.583 1060.2 130.25C1060.2 125.083 1062.36 119.75 1066.7 114.25C1071.2 108.583 1077.78 104.083 1086.45 100.75C1096.28 96.9167 1106.95 93.75 1118.45 91.25C1129.95 88.5833 1141.7 86.6667 1153.7 85.5C1165.86 84.1667 1177.53 83.5 1188.7 83.5C1192.86 83.5 1196.95 83.5833 1200.95 83.75C1204.95 83.9167 1208.78 84.1667 1212.45 84.5C1236.95 86.8333 1255.61 91.5 1268.45 98.5C1281.45 105.5 1287.95 112.833 1287.95 120.5C1287.95 123.667 1286.86 126.667 1284.7 129.5C1283.7 130.833 1282.2 132.167 1280.2 133.5C1278.36 134.667 1276.86 135.25 1275.7 135.25C1274.7 135.25 1274.2 134.75 1274.2 133.75C1274.2 132.583 1275.03 130.667 1276.7 128C1278.7 125 1279.7 122.25 1279.7 119.75C1279.7 114.917 1276.61 111.167 1270.45 108.5C1264.45 105.667 1256.53 103.75 1246.7 102.75C1237.03 101.583 1226.61 101 1215.45 101C1207.78 101 1200.03 101.25 1192.2 101.75C1184.36 102.083 1177.03 102.583 1170.2 103.25C1167.03 103.583 1162.2 104.167 1155.7 105C1149.36 105.833 1142.2 106.917 1134.2 108.25C1126.2 109.417 1118.11 110.917 1109.95 112.75C1101.78 114.417 1094.28 116.333 1087.45 118.5C1080.61 120.667 1075.03 123.083 1070.7 125.75C1066.53 128.25 1064.45 131.083 1064.45 134.25C1064.45 136.417 1065.7 138.667 1068.2 141C1068.53 141.333 1068.7 141.583 1068.7 141.75C1068.7 142.083 1068.45 142.25 1067.95 142.25ZM1136.7 268.25C1128.03 267.583 1122.11 264.833 1118.95 260C1115.78 255.167 1114.2 249.5 1114.2 243C1114.2 237.5 1114.95 231.833 1116.45 226C1117.95 220.167 1119.53 214.833 1121.2 210C1122.86 205.333 1125.03 200.417 1127.7 195.25C1130.53 190.083 1134.28 183.917 1138.95 176.75C1143.78 169.583 1150.03 160.583 1157.7 149.75C1165.36 138.917 1174.86 125.5 1186.2 109.5C1188.2 107 1189.95 105.75 1191.45 105.75C1192.45 105.75 1193.11 106.167 1193.45 107C1193.95 107.667 1194.03 108.333 1193.7 109C1178.03 132.167 1165.95 152.083 1157.45 168.75C1149.11 185.25 1142.95 199.333 1138.95 211C1138.11 213.333 1137.03 216.667 1135.7 221C1134.53 225.167 1133.45 229.75 1132.45 234.75C1131.45 239.583 1130.95 244.167 1130.95 248.5C1130.95 253.167 1131.78 257.167 1133.45 260.5C1135.11 263.833 1138.03 265.5 1142.2 265.5C1144.7 265.5 1147.03 264.667 1149.2 263C1150.03 262.5 1150.53 262.25 1150.7 262.25C1151.03 262.25 1151.2 262.417 1151.2 262.75C1151.2 263.25 1150.7 263.917 1149.7 264.75C1146.53 267.583 1142.2 268.75 1136.7 268.25ZM1226.85 248.25C1222.68 248.25 1219.35 247.083 1216.85 244.75C1214.52 242.417 1213.35 239.25 1213.35 235.25C1213.35 232.75 1213.93 229.917 1215.1 226.75C1216.27 223.583 1218.1 220.333 1220.6 217C1224.43 211.833 1228.1 207.333 1231.6 203.5C1235.1 199.5 1237.68 195.917 1239.35 192.75C1241.02 189.75 1241.85 187.417 1241.85 185.75C1241.85 183.25 1240.35 182 1237.35 182C1234.68 182 1230.85 183.5 1225.85 186.5C1221.02 189.333 1215.93 194 1210.6 200.5C1207.6 204.167 1204.18 208.5 1200.35 213.5C1196.52 218.333 1193.43 222.833 1191.1 227C1190.1 228.833 1189.1 230.75 1188.1 232.75C1187.27 234.583 1185.93 237.75 1184.1 242.25C1183.6 243.417 1182.18 244.667 1179.85 246C1177.68 247.333 1175.93 248 1174.6 248C1173.6 248 1173.1 247.583 1173.1 246.75C1173.1 246.083 1173.35 245.25 1173.85 244.25C1174.68 242.75 1176.52 238 1179.35 230C1182.35 222 1186.1 212.583 1190.6 201.75C1188.1 204.417 1185.35 207.333 1182.35 210.5C1179.35 213.5 1176.02 216.417 1172.35 219.25C1171.68 219.917 1170.93 220.25 1170.1 220.25C1169.1 220.25 1168.6 219.833 1168.6 219C1168.6 218.333 1169.35 217.417 1170.85 216.25C1174.68 212.917 1178.52 209.417 1182.35 205.75C1186.18 201.917 1190.35 197.167 1194.85 191.5C1196.35 187.833 1199.02 182.583 1202.85 175.75C1206.68 168.75 1211.27 161 1216.6 152.5C1221.93 144 1227.85 135.5 1234.35 127C1240.85 118.5 1247.52 110.917 1254.35 104.25C1260.52 98.25 1266.93 93.6667 1273.6 90.5C1280.43 87.3333 1286.6 85.75 1292.1 85.75C1296.93 85.75 1300.85 86.9167 1303.85 89.25C1306.85 91.5833 1308.35 95.3333 1308.35 100.5C1308.35 105.667 1306.93 111.167 1304.1 117C1301.27 122.833 1298.27 127.5 1295.1 131C1287.93 139 1279.43 146.333 1269.6 153C1259.93 159.667 1249.77 165.333 1239.1 170C1238.77 170.167 1238.43 170.333 1238.1 170.5C1237.77 170.5 1237.43 170.5 1237.1 170.5C1235.93 170.5 1235.35 170.083 1235.35 169.25C1235.35 168.25 1236.27 167.417 1238.1 166.75C1244.43 163.917 1250.85 160.417 1257.35 156.25C1264.02 152.083 1270.18 147.583 1275.85 142.75C1281.52 137.917 1286.27 133.083 1290.1 128.25C1294.6 122.583 1297.52 118 1298.85 114.5C1300.18 110.833 1300.85 107.75 1300.85 105.25C1300.85 101.917 1299.02 100.25 1295.35 100.25C1293.68 100.25 1291.27 101.083 1288.1 102.75C1284.93 104.25 1281.18 106.75 1276.85 110.25C1270.18 115.583 1263.27 122.083 1256.1 129.75C1249.1 137.417 1242.18 145.75 1235.35 154.75C1228.68 163.75 1222.35 172.917 1216.35 182.25C1210.35 191.583 1204.93 200.667 1200.1 209.5C1202.1 206.667 1204.18 203.833 1206.35 201C1208.52 198 1210.68 195.333 1212.85 193C1217.85 187.5 1222.77 183.5 1227.6 181C1232.43 178.5 1236.77 177.25 1240.6 177.25C1244.93 177.25 1248.43 178.583 1251.1 181.25C1253.77 183.75 1255.1 187.167 1255.1 191.5C1255.1 193.833 1254.68 196.167 1253.85 198.5C1253.18 200.667 1252.35 202.667 1251.35 204.5C1250.02 207.333 1248.27 210.667 1246.1 214.5C1243.93 218.333 1241.85 221.917 1239.85 225.25C1236.02 231.417 1234.1 235.833 1234.1 238.5C1234.1 240 1234.77 240.75 1236.1 240.75C1237.77 240.75 1240.52 239.583 1244.35 237.25C1247.35 235.417 1250.68 233.083 1254.35 230.25C1258.18 227.25 1261.93 224.167 1265.6 221C1269.43 217.833 1272.68 215.083 1275.35 212.75C1278.18 210.25 1280.02 208.583 1280.85 207.75C1281.85 206.75 1282.6 206.25 1283.1 206.25C1283.6 206.25 1283.85 206.5 1283.85 207C1283.85 207.833 1283.27 209 1282.1 210.5C1277.77 215 1272.35 220.083 1265.85 225.75C1259.35 231.417 1252.02 236.917 1243.85 242.25C1240.68 244.417 1237.6 246 1234.6 247C1231.77 247.833 1229.18 248.25 1226.85 248.25ZM1287.43 248.25C1282.26 248.25 1278.26 246.667 1275.43 243.5C1272.6 240.167 1271.18 235.917 1271.18 230.75C1271.18 225.917 1272.43 220.583 1274.93 214.75C1277.6 208.917 1281.76 203 1287.43 197C1293.26 190.667 1300.51 185.583 1309.18 181.75C1317.85 177.75 1326.1 175.75 1333.93 175.75C1340.26 175.75 1345.68 177.167 1350.18 180C1354.68 182.667 1357.68 186.083 1359.18 190.25C1361.01 190.25 1363.26 190.75 1365.93 191.75C1368.76 192.75 1370.18 194.583 1370.18 197.25C1370.18 199.083 1369.26 201.167 1367.43 203.5C1366.26 205.167 1364.18 207.667 1361.18 211C1358.35 214.333 1355.68 217.917 1353.18 221.75C1351.18 224.75 1349.6 227.583 1348.43 230.25C1347.26 232.75 1346.68 234.917 1346.68 236.75C1346.68 239.25 1347.93 240.5 1350.43 240.5C1353.26 240.5 1357.51 238.917 1363.18 235.75C1369.35 232.25 1375.26 228.25 1380.93 223.75C1386.6 219.25 1391.01 215.667 1394.18 213C1395.01 212.333 1395.6 212 1395.93 212C1396.6 212 1396.93 212.417 1396.93 213.25C1396.93 214.25 1396.51 215.167 1395.68 216C1394.18 217.333 1391.26 219.833 1386.93 223.5C1382.6 227.167 1377.6 231 1371.93 235C1366.43 239 1361.01 242.25 1355.68 244.75C1353.01 245.917 1350.51 246.833 1348.18 247.5C1346.01 248 1344.01 248.25 1342.18 248.25C1337.68 248.25 1334.26 247 1331.93 244.5C1329.6 241.833 1328.43 238.417 1328.43 234.25C1328.43 232.583 1328.68 230.833 1329.18 229C1329.68 227.167 1330.26 225.333 1330.93 223.5L1332.68 219.25C1328.35 224.583 1324.01 229.083 1319.68 232.75C1315.35 236.25 1311.01 239.333 1306.68 242C1303.01 244.167 1299.51 245.75 1296.18 246.75C1293.01 247.75 1290.1 248.25 1287.43 248.25ZM1295.18 241.75C1298.18 241.75 1302.51 240 1308.18 236.5C1313.85 232.833 1320.43 227.25 1327.93 219.75C1328.93 218.75 1330.76 217 1333.43 214.5C1336.26 211.833 1339.26 208.917 1342.43 205.75C1345.6 202.417 1348.26 199.167 1350.43 196C1352.76 192.667 1353.93 189.917 1353.93 187.75C1353.93 184.583 1351.18 183 1345.68 183C1340.85 183 1335.01 184.917 1328.18 188.75C1321.51 192.417 1315.1 197.917 1308.93 205.25C1302.6 212.75 1297.93 219.25 1294.93 224.75C1292.1 230.083 1290.68 234.167 1290.68 237C1290.68 240.167 1292.18 241.75 1295.18 241.75ZM1448.33 171.5C1445.99 171.5 1444.24 170.75 1443.08 169.25C1441.91 167.75 1441.33 166.167 1441.33 164.5C1441.33 161.167 1442.91 157.917 1446.08 154.75C1449.24 151.417 1452.58 149.75 1456.08 149.75C1458.41 149.75 1460.16 150.5 1461.33 152C1462.49 153.5 1463.08 155.083 1463.08 156.75C1463.08 160.25 1461.49 163.583 1458.33 166.75C1455.33 169.917 1451.99 171.5 1448.33 171.5ZM1410.08 248.25C1403.24 248.25 1398.58 246.833 1396.08 244C1393.74 241 1392.58 237.667 1392.58 234C1392.58 231 1393.08 228.167 1394.08 225.5C1395.08 222.667 1395.91 220.667 1396.58 219.5C1397.58 217.833 1398.91 215.917 1400.58 213.75C1402.41 211.583 1404.41 209.25 1406.58 206.75C1403.24 209.583 1400.08 212.333 1397.08 215C1394.24 217.667 1391.91 219.667 1390.08 221C1389.58 221.5 1389.08 221.75 1388.58 221.75C1387.91 221.75 1387.58 221.333 1387.58 220.5C1387.58 219.167 1388.49 217.833 1390.33 216.5C1394.66 212.833 1398.83 208.833 1402.83 204.5C1406.99 200.167 1410.91 196.167 1414.58 192.5C1418.24 188.667 1421.49 186 1424.33 184.5C1427.33 182.833 1429.74 181.75 1431.58 181.25C1433.41 180.75 1434.91 180.5 1436.08 180.5C1437.91 180.5 1439.24 180.833 1440.08 181.5C1440.91 182 1441.08 182.583 1440.58 183.25C1437.74 186.083 1434.91 189.75 1432.08 194.25C1429.41 198.583 1426.91 203.167 1424.58 208C1422.24 212.833 1420.33 217.417 1418.83 221.75C1417.49 226.083 1416.83 229.75 1416.83 232.75C1416.83 236.917 1418.49 239 1421.83 239C1424.99 239 1429.08 237.583 1434.08 234.75C1439.24 231.75 1444.58 228 1450.08 223.5C1455.74 219 1460.99 214.583 1465.83 210.25C1466.49 209.583 1467.08 209.25 1467.58 209.25C1468.41 209.25 1468.83 209.667 1468.83 210.5C1468.99 211.333 1468.83 211.917 1468.33 212.25C1462.83 217.417 1456.58 222.833 1449.58 228.5C1442.74 234 1435.83 238.667 1428.83 242.5C1421.99 246.333 1415.74 248.25 1410.08 248.25ZM1821.33 305.25C1817.16 305.25 1812.66 304.167 1807.83 302C1803.16 300 1799.24 296.917 1796.08 292.75C1793.08 288.75 1791.74 283.833 1792.08 278C1792.24 274.5 1792.58 271 1793.08 267.5C1793.74 264.167 1795.08 260.083 1797.08 255.25C1799.24 250.417 1802.58 244.167 1807.08 236.5C1811.74 228.667 1818.16 218.75 1826.33 206.75C1834.66 194.75 1845.24 179.75 1858.08 161.75C1864.24 153.25 1868.58 146.25 1871.08 140.75C1873.58 135.25 1874.83 130.917 1874.83 127.75C1874.83 125.083 1874.08 123.167 1872.58 122C1871.08 120.833 1869.16 120.25 1866.83 120.25C1863.49 120.25 1859.49 121.25 1854.83 123.25C1850.33 125.25 1845.99 127.833 1841.83 131C1833.99 136.833 1825.99 143.5 1817.83 151C1809.66 158.333 1801.74 165.917 1794.08 173.75C1786.41 181.583 1779.24 189.167 1772.58 196.5C1767.08 205.333 1761.91 213.417 1757.08 220.75C1752.24 227.917 1748.74 233.083 1746.58 236.25C1745.91 237.417 1744.83 238.25 1743.33 238.75C1741.99 239.25 1740.66 239.5 1739.33 239.5C1736.99 239.5 1734.91 238.917 1733.08 237.75C1731.24 236.417 1730.83 234.833 1731.83 233C1731.83 233 1732.83 231.25 1734.83 227.75C1736.83 224.25 1739.41 219.583 1742.58 213.75C1745.91 207.917 1749.41 201.5 1753.08 194.5C1756.91 187.5 1760.58 180.583 1764.08 173.75C1767.58 166.75 1770.58 160.333 1773.08 154.5C1775.74 148.667 1777.49 144.083 1778.33 140.75C1779.33 136.417 1779.83 132.417 1779.83 128.75C1779.83 125.083 1779.16 122.167 1777.83 120C1776.49 117.667 1774.16 116.5 1770.83 116.5C1768.66 116.5 1765.91 117.167 1762.58 118.5C1759.24 119.833 1755.33 121.917 1750.83 124.75C1743.16 129.75 1734.49 136.333 1724.83 144.5C1715.33 152.5 1705.41 161.5 1695.08 171.5C1684.91 181.333 1674.74 191.5 1664.58 202C1654.58 212.333 1645.24 222.417 1636.58 232.25C1636.08 232.75 1635.49 233 1634.83 233C1628.49 241.167 1623.74 246.5 1620.58 249C1617.58 251.5 1616.08 252 1616.08 250.5C1616.08 247.167 1620.66 239.75 1629.83 228.25C1636.99 219.417 1644.66 210.083 1652.83 200.25C1661.16 190.25 1668.91 180.333 1676.08 170.5C1683.41 160.667 1689.24 151.5 1693.58 143C1697.91 134.5 1700.08 127.333 1700.08 121.5C1700.08 113.667 1696.83 108.25 1690.33 105.25C1683.99 102.25 1675.91 100.75 1666.08 100.75C1658.24 100.75 1649.83 101.5 1640.83 103C1631.99 104.333 1623.16 106.083 1614.33 108.25C1605.66 110.25 1597.66 112.417 1590.33 114.75C1582.99 116.917 1577.08 118.75 1572.58 120.25C1565.24 122.75 1558.49 125.417 1552.33 128.25C1546.16 131.083 1541.24 134 1537.58 137C1534.08 139.833 1532.33 142.75 1532.33 145.75C1532.33 148.583 1534.24 151.333 1538.08 154C1538.41 154.167 1538.58 154.417 1538.58 154.75C1538.58 155.083 1538.16 155.25 1537.33 155.25C1536.49 155.25 1535.66 155 1534.83 154.5C1529.99 151.167 1527.58 146.333 1527.58 140C1527.58 135.333 1529.16 130.417 1532.33 125.25C1535.49 120.083 1540.41 115.667 1547.08 112C1555.58 107.167 1565.08 102.833 1575.58 99C1586.08 95 1596.91 91.6667 1608.08 89C1619.24 86.1667 1630.24 84.0833 1641.08 82.75C1652.08 81.25 1662.24 80.5 1671.58 80.5C1683.91 80.5 1693.58 81.75 1700.58 84.25C1707.74 86.75 1712.83 90.1667 1715.83 94.5C1718.83 98.8333 1720.33 103.667 1720.33 109C1720.33 116.167 1718.16 123.75 1713.83 131.75C1709.66 139.75 1704.99 146.917 1699.83 153.25C1695.16 158.917 1689.16 166 1681.83 174.5C1674.66 183 1667.58 191.583 1660.58 200.25C1670.74 189.583 1681.08 179.167 1691.58 169C1702.08 158.833 1712.24 149.583 1722.08 141.25C1731.91 132.917 1740.74 126.167 1748.58 121C1757.08 115.5 1764.49 111.583 1770.83 109.25C1777.33 106.75 1782.83 105.5 1787.33 105.5C1793.66 105.5 1798.16 107.417 1800.83 111.25C1803.66 115.083 1805.08 119.833 1805.08 125.5C1805.08 131.5 1803.66 138 1800.83 145C1798.99 149.5 1796.58 154.667 1793.58 160.5C1790.58 166.167 1787.24 172.083 1783.58 178.25C1792.24 169.25 1801.41 160.25 1811.08 151.25C1820.91 142.25 1830.41 134.333 1839.58 127.5C1847.58 121.667 1855.99 116.833 1864.83 113C1873.66 109.167 1881.16 107.25 1887.33 107.25C1890.99 107.25 1893.91 108.083 1896.08 109.75C1898.24 111.25 1899.33 113.75 1899.33 117.25C1899.33 120.25 1898.33 124.083 1896.33 128.75C1894.33 133.417 1891.16 139 1886.83 145.5C1869.83 170.667 1855.99 192.333 1845.33 210.5C1834.83 228.5 1827.08 243.5 1822.08 255.5C1817.08 267.5 1814.24 277.083 1813.58 284.25C1813.41 285.083 1813.33 285.917 1813.33 286.75C1813.33 287.583 1813.33 288.417 1813.33 289.25C1813.33 293.917 1814.08 297.167 1815.58 299C1817.24 301 1819.08 302 1821.08 302C1823.58 302 1825.91 301.083 1828.08 299.25C1828.74 298.917 1829.16 298.75 1829.33 298.75C1830.16 298.75 1830.83 299.167 1831.33 300C1831.83 300.833 1831.66 301.667 1830.83 302.5C1828.49 304.333 1825.33 305.25 1821.33 305.25ZM1872.88 248.25C1867.71 248.25 1863.71 246.667 1860.88 243.5C1858.05 240.167 1856.63 235.917 1856.63 230.75C1856.63 225.917 1857.88 220.583 1860.38 214.75C1863.05 208.917 1867.21 203 1872.88 197C1878.71 190.667 1885.96 185.583 1894.63 181.75C1903.3 177.75 1911.55 175.75 1919.38 175.75C1925.71 175.75 1931.13 177.167 1935.63 180C1940.13 182.667 1943.13 186.083 1944.63 190.25C1946.46 190.25 1948.71 190.75 1951.38 191.75C1954.21 192.75 1955.63 194.583 1955.63 197.25C1955.63 199.083 1954.71 201.167 1952.88 203.5C1951.71 205.167 1949.63 207.667 1946.63 211C1943.8 214.333 1941.13 217.917 1938.63 221.75C1936.63 224.75 1935.05 227.583 1933.88 230.25C1932.71 232.75 1932.13 234.917 1932.13 236.75C1932.13 239.25 1933.38 240.5 1935.88 240.5C1938.71 240.5 1942.96 238.917 1948.63 235.75C1954.8 232.25 1960.71 228.25 1966.38 223.75C1972.05 219.25 1976.46 215.667 1979.63 213C1980.46 212.333 1981.05 212 1981.38 212C1982.05 212 1982.38 212.417 1982.38 213.25C1982.38 214.25 1981.96 215.167 1981.13 216C1979.63 217.333 1976.71 219.833 1972.38 223.5C1968.05 227.167 1963.05 231 1957.38 235C1951.88 239 1946.46 242.25 1941.13 244.75C1938.46 245.917 1935.96 246.833 1933.63 247.5C1931.46 248 1929.46 248.25 1927.63 248.25C1923.13 248.25 1919.71 247 1917.38 244.5C1915.05 241.833 1913.88 238.417 1913.88 234.25C1913.88 232.583 1914.13 230.833 1914.63 229C1915.13 227.167 1915.71 225.333 1916.38 223.5L1918.13 219.25C1913.8 224.583 1909.46 229.083 1905.13 232.75C1900.8 236.25 1896.46 239.333 1892.13 242C1888.46 244.167 1884.96 245.75 1881.63 246.75C1878.46 247.75 1875.55 248.25 1872.88 248.25ZM1880.63 241.75C1883.63 241.75 1887.96 240 1893.63 236.5C1899.3 232.833 1905.88 227.25 1913.38 219.75C1914.38 218.75 1916.21 217 1918.88 214.5C1921.71 211.833 1924.71 208.917 1927.88 205.75C1931.05 202.417 1933.71 199.167 1935.88 196C1938.21 192.667 1939.38 189.917 1939.38 187.75C1939.38 184.583 1936.63 183 1931.13 183C1926.3 183 1920.46 184.917 1913.63 188.75C1906.96 192.417 1900.55 197.917 1894.38 205.25C1888.05 212.75 1883.38 219.25 1880.38 224.75C1877.55 230.083 1876.13 234.167 1876.13 237C1876.13 240.167 1877.63 241.75 1880.63 241.75ZM1992.28 250.75C1985.61 250.75 1979.78 249.5 1974.78 247C1969.61 244.333 1965.86 239.5 1963.53 232.5C1963.36 231.833 1963.61 231.417 1964.28 231.25C1964.78 231.083 1965.11 231.417 1965.28 232.25C1966.94 235.917 1969.11 238.5 1971.78 240C1974.44 241.5 1977.36 242.25 1980.53 242.25C1985.86 242.25 1990.53 240.667 1994.53 237.5C1998.69 234.333 2002.36 230.333 2005.53 225.5C2008.86 220.667 2011.78 215.75 2014.28 210.75C2016.94 205.583 2019.44 201.167 2021.78 197.5C2025.44 191.333 2029.78 185.75 2034.78 180.75C2039.94 175.75 2044.61 172.667 2048.78 171.5C2047.78 171 2046.53 170.75 2045.03 170.75C2040.86 170.75 2036.28 172 2031.28 174.5C2026.28 177 2021.19 180.25 2016.03 184.25C2011.03 188.25 2006.11 192.5 2001.28 197C1996.61 201.333 1992.28 205.417 1988.28 209.25C1984.44 212.917 1981.36 215.833 1979.03 218C1977.69 219.167 1976.69 219.75 1976.03 219.75C1975.36 219.75 1975.03 219.417 1975.03 218.75C1975.03 217.75 1975.44 216.833 1976.28 216C1981.28 211.667 1986.44 206.833 1991.78 201.5C1997.11 196 2002.53 190.75 2008.03 185.75C2013.53 180.583 2019.11 176.333 2024.78 173C2030.44 169.667 2036.19 168 2042.03 168C2042.69 168 2043.28 168 2043.78 168C2044.44 168 2045.11 168.083 2045.78 168.25C2047.61 168.417 2049.28 168.917 2050.78 169.75C2052.44 170.583 2052.94 171.167 2052.28 171.5C2048.44 173.167 2045.44 176.5 2043.28 181.5C2041.11 186.5 2039.11 192.333 2037.28 199C2035.44 205.667 2033.19 212.417 2030.53 219.25C2028.03 226.083 2024.36 232.167 2019.53 237.5C2021.86 236.667 2025.53 234.75 2030.53 231.75C2035.53 228.75 2041.03 225.083 2047.03 220.75C2053.03 216.25 2058.61 211.333 2063.78 206C2064.44 205.333 2065.11 205 2065.78 205C2066.61 205 2067.03 205.417 2067.03 206.25C2067.03 206.917 2066.69 207.583 2066.03 208.25C2061.53 212.583 2056.53 217.25 2051.03 222.25C2045.53 227.083 2039.53 231.667 2033.03 236C2026.69 240.333 2020.11 243.917 2013.28 246.75C2006.44 249.417 1999.44 250.75 1992.28 250.75ZM2068.94 250.75C2062.27 250.75 2056.44 249.5 2051.44 247C2046.27 244.333 2042.52 239.5 2040.19 232.5C2040.02 231.833 2040.27 231.417 2040.94 231.25C2041.44 231.083 2041.77 231.417 2041.94 232.25C2043.6 235.917 2045.77 238.5 2048.44 240C2051.1 241.5 2054.02 242.25 2057.19 242.25C2062.52 242.25 2067.19 240.667 2071.19 237.5C2075.35 234.333 2079.02 230.333 2082.19 225.5C2085.52 220.667 2088.44 215.75 2090.94 210.75C2093.6 205.583 2096.1 201.167 2098.44 197.5C2102.1 191.333 2106.44 185.75 2111.44 180.75C2116.6 175.75 2121.27 172.667 2125.44 171.5C2124.44 171 2123.19 170.75 2121.69 170.75C2117.52 170.75 2112.94 172 2107.94 174.5C2102.94 177 2097.85 180.25 2092.69 184.25C2087.69 188.25 2082.77 192.5 2077.94 197C2073.27 201.333 2068.94 205.417 2064.94 209.25C2061.1 212.917 2058.02 215.833 2055.69 218C2054.35 219.167 2053.35 219.75 2052.69 219.75C2052.02 219.75 2051.69 219.417 2051.69 218.75C2051.69 217.75 2052.1 216.833 2052.94 216C2057.94 211.667 2063.1 206.833 2068.44 201.5C2073.77 196 2079.19 190.75 2084.69 185.75C2090.19 180.583 2095.77 176.333 2101.44 173C2107.1 169.667 2112.85 168 2118.69 168C2119.35 168 2119.94 168 2120.44 168C2121.1 168 2121.77 168.083 2122.44 168.25C2124.27 168.417 2125.94 168.917 2127.44 169.75C2129.1 170.583 2129.6 171.167 2128.94 171.5C2125.1 173.167 2122.1 176.5 2119.94 181.5C2117.77 186.5 2115.77 192.333 2113.94 199C2112.1 205.667 2109.85 212.417 2107.19 219.25C2104.69 226.083 2101.02 232.167 2096.19 237.5C2098.52 236.667 2102.19 234.75 2107.19 231.75C2112.19 228.75 2117.69 225.083 2123.69 220.75C2129.69 216.25 2135.27 211.333 2140.44 206C2141.1 205.333 2141.77 205 2142.44 205C2143.27 205 2143.69 205.417 2143.69 206.25C2143.69 206.917 2143.35 207.583 2142.69 208.25C2138.19 212.583 2133.19 217.25 2127.69 222.25C2122.19 227.083 2116.19 231.667 2109.69 236C2103.35 240.333 2096.77 243.917 2089.94 246.75C2083.1 249.417 2076.1 250.75 2068.94 250.75ZM2145.1 248.25C2139.93 248.25 2135.93 246.667 2133.1 243.5C2130.26 240.167 2128.85 235.917 2128.85 230.75C2128.85 225.917 2130.1 220.583 2132.6 214.75C2135.26 208.917 2139.43 203 2145.1 197C2150.93 190.667 2158.18 185.583 2166.85 181.75C2175.51 177.75 2183.76 175.75 2191.6 175.75C2197.93 175.75 2203.35 177.167 2207.85 180C2212.35 182.667 2215.35 186.083 2216.85 190.25C2218.68 190.25 2220.93 190.75 2223.6 191.75C2226.43 192.75 2227.85 194.583 2227.85 197.25C2227.85 199.083 2226.93 201.167 2225.1 203.5C2223.93 205.167 2221.85 207.667 2218.85 211C2216.01 214.333 2213.35 217.917 2210.85 221.75C2208.85 224.75 2207.26 227.583 2206.1 230.25C2204.93 232.75 2204.35 234.917 2204.35 236.75C2204.35 239.25 2205.6 240.5 2208.1 240.5C2210.93 240.5 2215.18 238.917 2220.85 235.75C2227.01 232.25 2232.93 228.25 2238.6 223.75C2244.26 219.25 2248.68 215.667 2251.85 213C2252.68 212.333 2253.26 212 2253.6 212C2254.26 212 2254.6 212.417 2254.6 213.25C2254.6 214.25 2254.18 215.167 2253.35 216C2251.85 217.333 2248.93 219.833 2244.6 223.5C2240.26 227.167 2235.26 231 2229.6 235C2224.1 239 2218.68 242.25 2213.35 244.75C2210.68 245.917 2208.18 246.833 2205.85 247.5C2203.68 248 2201.68 248.25 2199.85 248.25C2195.35 248.25 2191.93 247 2189.6 244.5C2187.26 241.833 2186.1 238.417 2186.1 234.25C2186.1 232.583 2186.35 230.833 2186.85 229C2187.35 227.167 2187.93 225.333 2188.6 223.5L2190.35 219.25C2186.01 224.583 2181.68 229.083 2177.35 232.75C2173.01 236.25 2168.68 239.333 2164.35 242C2160.68 244.167 2157.18 245.75 2153.85 246.75C2150.68 247.75 2147.76 248.25 2145.1 248.25ZM2152.85 241.75C2155.85 241.75 2160.18 240 2165.85 236.5C2171.51 232.833 2178.1 227.25 2185.6 219.75C2186.6 218.75 2188.43 217 2191.1 214.5C2193.93 211.833 2196.93 208.917 2200.1 205.75C2203.26 202.417 2205.93 199.167 2208.1 196C2210.43 192.667 2211.6 189.917 2211.6 187.75C2211.6 184.583 2208.85 183 2203.35 183C2198.51 183 2192.68 184.917 2185.85 188.75C2179.18 192.417 2172.76 197.917 2166.6 205.25C2160.26 212.75 2155.6 219.25 2152.6 224.75C2149.76 230.083 2148.35 234.167 2148.35 237C2148.35 240.167 2149.85 241.75 2152.85 241.75ZM2227.99 314.75C2217.83 314.75 2209.41 313.583 2202.74 311.25C2196.08 308.917 2190.74 305.75 2186.74 301.75C2184.08 298.917 2181.58 295.167 2179.24 290.5C2176.91 286 2175.74 282.167 2175.74 279C2175.74 277.833 2175.99 277.25 2176.49 277.25C2177.66 277.25 2178.41 277.917 2178.74 279.25C2178.74 279.75 2179.33 281.667 2180.49 285C2181.49 288.333 2183.41 292 2186.24 296C2189.08 300 2193.24 303.5 2198.74 306.5C2204.24 309.5 2211.41 311 2220.24 311C2230.74 311 2240.16 308.5 2248.49 303.5C2256.83 298.667 2264.24 292.25 2270.74 284.25C2277.41 276.417 2283.49 267.833 2288.99 258.5C2294.49 249.167 2299.74 240 2304.74 231C2309.74 222 2314.83 214.083 2319.99 207.25C2317.83 209.583 2315.08 212.5 2311.74 216C2308.58 219.333 2305.16 222.75 2301.49 226.25C2297.83 229.75 2294.33 232.917 2290.99 235.75C2287.66 238.583 2284.91 240.667 2282.74 242C2279.08 244.167 2275.58 245.75 2272.24 246.75C2269.08 247.75 2266.16 248.25 2263.49 248.25C2258.33 248.25 2254.33 246.667 2251.49 243.5C2248.66 240.167 2247.24 235.917 2247.24 230.75C2247.24 225.917 2248.49 220.583 2250.99 214.75C2253.66 208.917 2257.83 203 2263.49 197C2269.33 190.667 2276.58 185.583 2285.24 181.75C2293.91 177.75 2302.16 175.75 2309.99 175.75C2312.83 175.75 2315.58 176.083 2318.24 176.75C2320.91 177.25 2323.33 178.167 2325.49 179.5C2328.49 181.333 2330.66 183.083 2331.99 184.75C2333.49 186.25 2334.58 188.083 2335.24 190.25C2336.24 190.25 2337.83 190.75 2339.99 191.75C2342.16 192.583 2344.16 193.667 2345.99 195C2347.83 196.167 2348.74 197.417 2348.74 198.75C2348.74 199.417 2348.08 200.167 2346.74 201C2343.41 202.667 2339.66 206.667 2335.49 213C2331.33 219.167 2326.66 226.583 2321.49 235.25C2316.49 243.75 2310.83 252.583 2304.49 261.75C2298.33 271.083 2291.41 279.75 2283.74 287.75C2276.08 295.75 2267.58 302.25 2258.24 307.25C2249.08 312.25 2238.99 314.75 2227.99 314.75ZM2270.49 241.75C2273.83 241.75 2277.91 240.083 2282.74 236.75C2286.41 234.25 2290.41 231.167 2294.74 227.5C2299.08 223.667 2303.33 219.667 2307.49 215.5C2311.66 211.333 2315.24 207.5 2318.24 204C2323.74 197.667 2326.49 192.5 2326.49 188.5C2326.49 185.167 2324.49 183.5 2320.49 183.5C2316.49 183.5 2310.99 185.417 2303.99 189.25C2299.99 191.417 2295.74 194.5 2291.24 198.5C2286.74 202.5 2282.49 206.833 2278.49 211.5C2274.66 216.167 2271.58 220.5 2269.24 224.5C2266.58 229.333 2265.24 233.25 2265.24 236.25C2265.24 239.917 2266.99 241.75 2270.49 241.75ZM2376.54 250.5C2369.21 250.5 2363.04 248.75 2358.04 245.25C2353.21 241.583 2350.79 236.333 2350.79 229.5C2350.79 222.167 2352.54 215.333 2356.04 209C2359.54 202.667 2364.21 197.167 2370.04 192.5C2375.88 187.667 2382.21 183.917 2389.04 181.25C2396.04 178.583 2402.96 177.25 2409.79 177.25C2416.63 177.25 2421.71 178.5 2425.04 181C2428.38 183.333 2430.04 186.25 2430.04 189.75C2430.04 193.083 2428.46 196.667 2425.29 200.5C2422.29 204.167 2417.88 207.417 2412.04 210.25C2408.38 211.917 2404.13 213.417 2399.29 214.75C2394.63 215.917 2390.54 216.5 2387.04 216.5C2384.38 216.5 2383.04 216.083 2383.04 215.25C2383.04 214.583 2384.21 214.25 2386.54 214.25C2388.71 214.25 2392.04 213.667 2396.54 212.5C2401.21 211.167 2405.71 209.417 2410.04 207.25C2414.88 204.583 2418.29 201.917 2420.29 199.25C2422.29 196.583 2423.29 194.167 2423.29 192C2423.29 190 2422.46 188.333 2420.79 187C2419.29 185.667 2417.13 185 2414.29 185C2411.63 185 2408.63 185.75 2405.29 187.25C2400.46 189.417 2395.46 193 2390.29 198C2385.29 202.833 2381.13 208.167 2377.79 214C2374.46 219.833 2372.79 225.417 2372.79 230.75C2372.79 234.417 2373.79 237.5 2375.79 240C2377.96 242.5 2381.13 243.75 2385.29 243.75C2389.63 243.75 2394.63 242.417 2400.29 239.75C2405.96 236.917 2411.71 233.5 2417.54 229.5C2423.38 225.333 2428.79 221.167 2433.79 217C2438.79 212.833 2442.79 209.333 2445.79 206.5C2446.79 205.5 2447.54 205 2448.04 205C2448.54 205 2448.79 205.417 2448.79 206.25C2448.79 207.417 2448.29 208.417 2447.29 209.25C2440.96 215.083 2434.04 221.167 2426.54 227.5C2419.21 233.833 2411.29 239.25 2402.79 243.75C2394.46 248.083 2385.71 250.333 2376.54 250.5Z" fill="#1A1A1A"/>
<path fill-rule="evenodd" clip-rule="evenodd" d="M217.272 214.813C192.347 283.356 46.0783 255.808 0 227.111C55.9168 169.063 154.796 168.244 217.272 214.813Z" fill="#9D8954"/>
<path fill-rule="evenodd" clip-rule="evenodd" d="M217.272 214.813C242.361 283.356 388.63 255.808 434.709 227.111C378.792 169.063 279.913 168.244 217.272 214.813Z" fill="#9D8954"/>
<path fill-rule="evenodd" clip-rule="evenodd" d="M217.273 214.812C235.966 285.487 126.921 314.348 72.6436 317.135C85.598 237.605 139.383 212.189 217.273 214.812Z" fill="#C4AB69"/>
<path fill-rule="evenodd" clip-rule="evenodd" d="M217.271 214.812C198.741 285.487 307.787 314.348 362.065 317.135C348.947 237.605 295.161 212.189 217.271 214.812Z" fill="#C4AB69"/>
<path fill-rule="evenodd" clip-rule="evenodd" d="M217.272 214.813C304.017 246.297 274.173 323.04 217.272 359.279C160.372 323.04 130.692 246.297 217.272 214.813Z" fill="#D0BC87"/>
<path fill-rule="evenodd" clip-rule="evenodd" d="M147.909 111.506C124.132 73.9552 111.178 36.7314 123.312 0C164.143 10.1668 184.969 39.519 200.711 73.9552C183.164 86.4172 165.454 98.8792 147.909 111.506ZM274.664 111.506C298.441 73.9552 311.231 36.7314 299.261 0C258.43 10.1668 237.604 39.519 221.862 73.9552C239.409 86.4172 256.955 98.8792 274.664 111.506Z" fill="#D4768E"/>
<path fill-rule="evenodd" clip-rule="evenodd" d="M217.271 231.375C196.446 205.959 175.456 180.542 154.631 155.125C102.486 89.5339 78.3814 142.335 29.8428 91.8291C33.9427 199.563 108.061 273.518 217.271 231.375C238.26 205.959 259.085 180.542 280.076 155.125C332.221 89.5339 356.162 142.335 404.864 91.8291C400.764 199.563 326.481 273.518 217.271 231.375Z" fill="#EC839E"/>
<path fill-rule="evenodd" clip-rule="evenodd" d="M259.087 102.159C269.418 44.6023 300.246 46.406 344.684 30.9922C359.278 100.027 340.912 131.184 292.374 172.178C281.224 148.729 270.237 125.443 259.087 102.159ZM175.458 102.159C165.127 44.6023 125.281 49.1928 90.0247 30.9922C75.4306 100.027 93.7963 131.184 142.334 172.178C153.321 148.729 164.471 125.443 175.458 102.159Z" fill="#EC839E"/>
<path fill-rule="evenodd" clip-rule="evenodd" d="M217.273 231.374C353.704 181.689 306.805 60.8363 217.273 3.93555C127.741 60.8363 80.8429 181.689 217.273 231.374Z" fill="#F09CB1"/>
<path fill-rule="evenodd" clip-rule="evenodd" d="M217.272 231.374C194.48 98.5509 150.861 158.895 57.3936 77.2334C61.4925 162.174 117.409 241.541 217.272 231.374C240.23 98.5509 283.849 158.895 377.316 77.2334C373.217 162.174 317.136 241.541 217.272 231.374Z" fill="#EE8FA8"/>
</svg>
