<svg width="1957" height="1087" viewBox="0 0 1957 1087" fill="none" xmlns="http://www.w3.org/2000/svg">
<path d="M57.0283 1009C46.695 1009 37.6117 1007.92 29.7783 1005.75C21.945 1003.59 16.3617 1001.17 13.0283 998.502C4.69499 992.002 0.52832 984.502 0.52832 976.002C0.52832 968.835 3.61165 961.669 9.77832 954.502C16.1117 947.169 25.695 940.502 38.5283 934.502C51.3617 928.335 67.5283 923.502 87.0283 920.002C95.3617 918.502 103.778 917.335 112.278 916.502C120.945 915.669 129.612 915.252 138.278 915.252C145.612 915.252 152.945 915.585 160.278 916.252C167.778 916.919 175.112 918.002 182.278 919.502C184.612 920.002 187.278 920.669 190.278 921.502C193.278 922.169 196.362 923.002 199.528 924.002C213.362 909.835 226.862 895.752 240.028 881.752C253.195 867.752 265.945 855.919 278.278 846.252C286.945 839.419 295.028 834.752 302.528 832.252C310.028 829.752 316.695 828.502 322.528 828.502C329.362 828.502 334.945 829.585 339.278 831.752C343.778 833.752 346.695 835.419 348.028 836.752C348.528 837.252 348.528 837.752 348.028 838.252C347.528 838.752 347.028 838.752 346.528 838.252C345.695 837.252 343.695 836.169 340.528 835.002C337.362 833.835 333.278 833.252 328.278 833.252C322.112 833.252 314.862 834.669 306.528 837.502C298.195 840.335 288.945 845.669 278.778 853.502C266.278 863.335 253.862 874.669 241.528 887.502C229.362 900.169 216.945 912.919 204.278 925.752C210.778 928.085 216.695 931.252 222.028 935.252C227.528 939.252 230.695 944.169 231.528 950.002V951.002C231.528 951.669 231.362 952.002 231.028 952.002C230.528 952.002 230.028 951.502 229.528 950.502C228.862 948.669 226.945 947.085 223.778 945.752C220.778 944.419 217.278 943.335 213.278 942.502C209.278 941.669 205.445 941.002 201.778 940.502C198.112 940.002 195.362 939.669 193.528 939.502L190.778 939.252C176.945 952.585 162.612 964.919 147.778 976.252C133.112 987.419 117.528 995.835 101.028 1001.5C93.195 1004.17 85.5283 1006.09 78.0283 1007.25C70.695 1008.42 63.695 1009 57.0283 1009ZM250.278 1021.25C242.778 1015.92 237.278 1009.5 233.778 1002C230.278 994.502 228.528 986.419 228.528 977.752C228.528 969.085 230.028 960.419 233.028 951.752C236.028 942.919 240.362 933.752 246.028 924.252C251.862 914.752 258.195 905.502 265.028 896.502C271.862 887.335 278.445 879.002 284.778 871.502C291.278 863.835 296.695 857.502 301.028 852.502C305.528 847.502 308.195 844.419 309.028 843.252C310.028 841.919 310.778 841.252 311.278 841.252C311.945 841.252 312.445 841.835 312.778 843.002C313.112 844.002 313.278 845.169 313.278 846.502C313.278 849.169 312.862 851.085 312.028 852.252C307.695 857.752 302.528 864.752 296.528 873.252C290.528 881.752 284.445 891.252 278.278 901.752C272.112 912.085 266.362 922.752 261.028 933.752C255.695 944.752 251.362 955.502 248.028 966.002C244.862 976.502 243.278 986.085 243.278 994.752C243.278 999.752 243.945 1004.34 245.278 1008.5C246.612 1012.67 248.778 1016.34 251.778 1019.5C251.945 1019.67 252.028 1019.92 252.028 1020.25C252.028 1020.59 251.862 1020.92 251.528 1021.25C251.195 1021.59 250.778 1021.59 250.278 1021.25ZM57.7783 1004.75C63.945 1004.75 70.6117 1004.17 77.7783 1003C84.945 1002 92.3617 1000.34 100.028 998.002C114.362 993.502 128.612 985.835 142.778 975.002C156.945 964.169 170.862 952.085 184.528 938.752C182.362 938.585 180.195 938.502 178.028 938.502C175.862 938.502 173.612 938.502 171.278 938.502C159.612 938.502 147.445 939.085 134.778 940.252C122.278 941.419 110.362 943.085 99.0283 945.252C80.695 948.419 65.695 952.419 54.0283 957.252C42.5283 961.919 34.0283 966.835 28.5283 972.002C23.195 977.169 20.5283 982.085 20.5283 986.752C20.5283 991.252 22.7783 995.169 27.2783 998.502C29.6117 1000.17 33.445 1001.59 38.7783 1002.75C44.1117 1004.09 50.445 1004.75 57.7783 1004.75ZM263.597 1000.25C261.93 1000.25 259.93 999.835 257.597 999.002C255.263 998.335 252.93 997.002 250.597 995.002C252.43 992.502 255.097 989.169 258.597 985.002C261.93 980.669 265.513 975.919 269.347 970.752C273.18 965.585 276.763 960.419 280.097 955.252C277.43 957.919 274.513 960.752 271.347 963.752C268.18 966.752 265.013 969.502 261.847 972.002C261.18 972.502 260.513 972.752 259.847 972.752C259.18 972.752 258.847 972.419 258.847 971.752C258.847 970.752 259.597 969.585 261.097 968.252C265.763 964.085 270.847 959.419 276.347 954.252C282.013 949.085 286.18 943.669 288.847 938.002C289.68 936.002 290.097 934.169 290.097 932.502C290.097 930.335 289.68 929.002 288.847 928.502C288.18 928.002 287.847 927.335 287.847 926.502C287.847 925.002 288.597 924.252 290.097 924.252C290.93 924.252 291.597 924.419 292.097 924.752C293.93 925.585 295.68 927.169 297.347 929.502C299.013 931.835 299.847 935.419 299.847 940.252C299.847 944.752 298.93 949.752 297.097 955.252C298.93 952.419 300.763 949.752 302.597 947.252C304.43 944.585 306.18 942.169 307.847 940.002C311.18 935.669 314.68 932.419 318.347 930.252C322.18 927.919 325.513 926.752 328.347 926.752C333.013 926.752 335.347 929.419 335.347 934.752C335.347 937.752 334.347 941.669 332.347 946.502C330.513 950.669 328.013 955.669 324.847 961.502C327.68 957.669 330.513 954.002 333.347 950.502C336.347 947.002 338.93 944.085 341.097 941.752C345.93 936.919 350.513 933.419 354.847 931.252C359.347 929.085 363.43 928.002 367.097 928.002C371.43 928.002 374.847 929.252 377.347 931.752C380.013 934.085 381.347 937.335 381.347 941.502C381.347 944.502 380.597 947.752 379.097 951.252C378.097 953.252 376.43 955.919 374.097 959.252C371.763 962.585 369.263 966.085 366.597 969.752C363.93 973.419 361.68 976.752 359.847 979.752C358.013 982.752 357.097 984.919 357.097 986.252C357.097 987.919 358.013 988.752 359.847 988.752C362.68 988.752 365.93 987.502 369.597 985.002C373.93 982.002 378.597 978.419 383.597 974.252C388.597 970.085 392.68 966.669 395.847 964.002C396.513 963.335 397.097 963.002 397.597 963.002C398.263 963.002 398.597 963.419 398.597 964.252C398.597 965.252 398.18 966.169 397.347 967.002C394.847 969.335 391.597 972.252 387.597 975.752C383.763 979.252 379.597 982.752 375.097 986.252C370.597 989.752 366.18 992.752 361.847 995.252C357.513 997.585 353.68 998.752 350.347 998.752C346.013 998.752 342.43 997.752 339.597 995.752C336.93 993.752 335.597 990.585 335.597 986.252C335.597 983.419 336.18 980.252 337.347 976.752C338.513 973.252 340.847 969.169 344.347 964.502C347.847 959.669 351.597 955.002 355.597 950.502C359.597 945.835 362.93 942.002 365.597 939.002C367.597 936.669 368.597 934.919 368.597 933.752C368.597 932.252 367.597 931.502 365.597 931.502C363.263 931.502 359.763 932.752 355.097 935.252C350.597 937.752 345.763 941.752 340.597 947.252C337.263 950.752 333.847 955.169 330.347 960.502C327.013 965.835 324.013 971.252 321.347 976.752C318.68 982.085 316.597 986.835 315.097 991.002C313.93 994.002 311.763 995.502 308.597 995.502C306.93 995.502 305.347 995.002 303.847 994.002C302.513 993.002 302.18 991.919 302.847 990.752C307.013 983.419 311.097 976.169 315.097 969.002C319.263 961.835 323.013 954.335 326.347 946.502C328.68 941.335 329.847 937.419 329.847 934.752C329.847 932.419 328.847 931.252 326.847 931.252C324.847 931.252 322.097 932.502 318.597 935.002C315.263 937.335 312.347 940.002 309.847 943.002C305.847 947.669 302.013 952.919 298.347 958.752C294.68 964.419 291.513 969.585 288.847 974.252C286.68 977.752 284.43 981.169 282.097 984.502C279.763 987.835 277.18 991.002 274.347 994.002C270.68 998.169 267.097 1000.25 263.597 1000.25ZM377.241 1066.25C369.241 1066.25 361.908 1065 355.241 1062.5C348.408 1060.17 342.741 1056.42 338.241 1051.25C333.741 1046.09 330.741 1039.17 329.241 1030.5C328.908 1029.17 329.241 1028.5 330.241 1028.5C330.908 1028.5 331.408 1029.09 331.741 1030.25C333.575 1039.59 338.158 1047.17 345.491 1053C352.658 1058.84 360.908 1061.75 370.241 1061.75C378.908 1061.75 387.658 1059.42 396.491 1054.75C405.325 1050.25 413.908 1044 422.241 1036C430.575 1028.17 438.408 1019.25 445.741 1009.25C453.575 998.585 460.658 987.502 466.991 976.002C473.491 964.502 479.741 952.919 485.741 941.252C483.575 944.419 481.325 947.669 478.991 951.002C476.658 954.335 474.325 957.419 471.991 960.252C467.491 965.919 462.325 971.752 456.491 977.752C450.825 983.585 445.158 988.585 439.491 992.752C433.825 996.752 428.658 998.752 423.991 998.752C420.325 998.752 417.241 997.752 414.741 995.752C412.408 993.752 411.241 990.669 411.241 986.502C411.241 982.835 411.908 979.502 413.241 976.502C414.575 973.335 416.075 970.419 417.741 967.752C420.575 963.085 423.991 958.335 427.991 953.502C431.991 948.669 435.491 944.585 438.491 941.252C440.325 939.085 441.241 937.335 441.241 936.002C441.241 934.335 440.325 933.502 438.491 933.502C436.325 933.502 433.575 934.835 430.241 937.502C426.241 940.335 422.158 943.752 417.991 947.752C413.825 951.585 409.908 955.252 406.241 958.752C402.575 962.252 399.575 965.002 397.241 967.002C396.075 967.835 395.241 968.252 394.741 968.252C394.075 968.252 393.741 967.919 393.741 967.252C393.741 966.252 394.325 965.252 395.491 964.252C398.825 961.419 402.325 958.085 405.991 954.252C409.825 950.419 413.575 946.669 417.241 943.002C421.075 939.169 424.575 936.085 427.741 933.752C430.241 931.752 432.825 930.335 435.491 929.502C438.158 928.502 440.658 928.002 442.991 928.002C446.991 928.002 450.325 929.169 452.991 931.502C455.825 933.835 457.241 937.085 457.241 941.252C457.241 944.419 456.408 947.752 454.741 951.252C452.741 955.419 450.158 959.585 446.991 963.752C443.991 967.752 441.075 971.669 438.241 975.502C436.075 978.669 434.491 981.252 433.491 983.252C432.491 985.252 431.991 986.669 431.991 987.502C431.991 989.002 432.658 989.752 433.991 989.752C435.325 989.752 437.241 989.002 439.741 987.502C442.408 986.002 445.075 984.085 447.741 981.752C452.241 977.585 457.158 972.502 462.491 966.502C467.991 960.335 473.325 953.919 478.491 947.252C483.658 940.585 488.158 934.419 491.991 928.752C494.325 923.252 496.825 918.419 499.491 914.252C502.158 910.085 505.575 908.002 509.741 908.002C512.075 908.002 513.908 908.669 515.241 910.002C516.741 911.335 517.491 912.669 517.491 914.002C517.491 915.169 516.991 916.169 515.991 917.002C514.991 917.669 513.325 917.919 510.991 917.752C509.158 917.419 507.075 917.752 504.741 918.752C502.408 919.752 499.991 922.919 497.491 928.252C494.825 934.252 492.241 941.252 489.741 949.252C487.408 957.252 484.575 965.835 481.241 975.002C477.908 984.169 473.491 993.585 467.991 1003.25C462.658 1013.09 455.491 1022.75 446.491 1032.25C437.658 1041.59 427.158 1049.59 414.991 1056.25C402.991 1062.92 390.408 1066.25 377.241 1066.25ZM575.226 893.252C574.226 893.252 573.142 892.835 571.976 892.002C568.976 889.169 567.476 885.585 567.476 881.252C567.476 876.085 569.642 870.752 573.976 865.252C578.476 859.585 585.059 855.085 593.726 851.752C603.559 847.919 614.226 844.752 625.726 842.252C637.226 839.585 648.976 837.669 660.976 836.502C673.142 835.169 684.809 834.502 695.976 834.502C700.142 834.502 704.226 834.585 708.226 834.752C712.226 834.919 716.059 835.169 719.726 835.502C744.226 837.835 762.892 842.502 775.726 849.502C788.726 856.502 795.226 863.835 795.226 871.502C795.226 874.669 794.142 877.669 791.976 880.502C790.976 881.835 789.476 883.169 787.476 884.502C785.642 885.669 784.142 886.252 782.976 886.252C781.976 886.252 781.476 885.752 781.476 884.752C781.476 883.585 782.309 881.669 783.976 879.002C785.976 876.002 786.976 873.252 786.976 870.752C786.976 865.919 783.892 862.169 777.726 859.502C771.726 856.669 763.809 854.752 753.976 853.752C744.309 852.585 733.892 852.002 722.726 852.002C715.059 852.002 707.309 852.252 699.476 852.752C691.642 853.085 684.309 853.585 677.476 854.252C674.309 854.585 669.476 855.169 662.976 856.002C656.642 856.835 649.476 857.919 641.476 859.252C633.476 860.419 625.392 861.919 617.226 863.752C609.059 865.419 601.559 867.335 594.726 869.502C587.892 871.669 582.309 874.085 577.976 876.752C573.809 879.252 571.726 882.085 571.726 885.252C571.726 887.419 572.976 889.669 575.476 892.002C575.809 892.335 575.976 892.585 575.976 892.752C575.976 893.085 575.726 893.252 575.226 893.252ZM643.976 1019.25C635.309 1018.59 629.392 1015.84 626.226 1011C623.059 1006.17 621.476 1000.5 621.476 994.002C621.476 988.502 622.226 982.835 623.726 977.002C625.226 971.169 626.809 965.835 628.476 961.002C630.142 956.335 632.309 951.419 634.976 946.252C637.809 941.085 641.559 934.919 646.226 927.752C651.059 920.585 657.309 911.585 664.976 900.752C672.642 889.919 682.142 876.502 693.476 860.502C695.476 858.002 697.226 856.752 698.726 856.752C699.726 856.752 700.392 857.169 700.726 858.002C701.226 858.669 701.309 859.335 700.976 860.002C685.309 883.169 673.226 903.085 664.726 919.752C656.392 936.252 650.226 950.335 646.226 962.002C645.392 964.335 644.309 967.669 642.976 972.002C641.809 976.169 640.726 980.752 639.726 985.752C638.726 990.585 638.226 995.169 638.226 999.502C638.226 1004.17 639.059 1008.17 640.726 1011.5C642.392 1014.84 645.309 1016.5 649.476 1016.5C651.976 1016.5 654.309 1015.67 656.476 1014C657.309 1013.5 657.809 1013.25 657.976 1013.25C658.309 1013.25 658.476 1013.42 658.476 1013.75C658.476 1014.25 657.976 1014.92 656.976 1015.75C653.809 1018.59 649.476 1019.75 643.976 1019.25ZM734.13 999.252C729.963 999.252 726.63 998.085 724.13 995.752C721.797 993.419 720.63 990.252 720.63 986.252C720.63 983.752 721.213 980.919 722.38 977.752C723.547 974.585 725.38 971.335 727.88 968.002C731.713 962.835 735.38 958.335 738.88 954.502C742.38 950.502 744.963 946.919 746.63 943.752C748.297 940.752 749.13 938.419 749.13 936.752C749.13 934.252 747.63 933.002 744.63 933.002C741.963 933.002 738.13 934.502 733.13 937.502C728.297 940.335 723.213 945.002 717.88 951.502C714.88 955.169 711.463 959.502 707.63 964.502C703.797 969.335 700.713 973.835 698.38 978.002C697.38 979.835 696.38 981.752 695.38 983.752C694.547 985.585 693.213 988.752 691.38 993.252C690.88 994.419 689.463 995.669 687.13 997.002C684.963 998.335 683.213 999.002 681.88 999.002C680.88 999.002 680.38 998.585 680.38 997.752C680.38 997.085 680.63 996.252 681.13 995.252C681.963 993.752 683.797 989.002 686.63 981.002C689.63 973.002 693.38 963.585 697.88 952.752C695.38 955.419 692.63 958.335 689.63 961.502C686.63 964.502 683.297 967.419 679.63 970.252C678.963 970.919 678.213 971.252 677.38 971.252C676.38 971.252 675.88 970.835 675.88 970.002C675.88 969.335 676.63 968.419 678.13 967.252C681.963 963.919 685.797 960.419 689.63 956.752C693.463 952.919 697.63 948.169 702.13 942.502C703.63 938.835 706.297 933.585 710.13 926.752C713.963 919.752 718.547 912.002 723.88 903.502C729.213 895.002 735.13 886.502 741.63 878.002C748.13 869.502 754.797 861.919 761.63 855.252C767.797 849.252 774.213 844.669 780.88 841.502C787.713 838.335 793.88 836.752 799.38 836.752C804.213 836.752 808.13 837.919 811.13 840.252C814.13 842.585 815.63 846.335 815.63 851.502C815.63 856.669 814.213 862.169 811.38 868.002C808.547 873.835 805.547 878.502 802.38 882.002C795.213 890.002 786.713 897.335 776.88 904.002C767.213 910.669 757.047 916.335 746.38 921.002C746.047 921.169 745.713 921.335 745.38 921.502C745.047 921.502 744.713 921.502 744.38 921.502C743.213 921.502 742.63 921.085 742.63 920.252C742.63 919.252 743.547 918.419 745.38 917.752C751.713 914.919 758.13 911.419 764.63 907.252C771.297 903.085 777.463 898.585 783.13 893.752C788.797 888.919 793.547 884.085 797.38 879.252C801.88 873.585 804.797 869.002 806.13 865.502C807.463 861.835 808.13 858.752 808.13 856.252C808.13 852.919 806.297 851.252 802.63 851.252C800.963 851.252 798.547 852.085 795.38 853.752C792.213 855.252 788.463 857.752 784.13 861.252C777.463 866.585 770.547 873.085 763.38 880.752C756.38 888.419 749.463 896.752 742.63 905.752C735.963 914.752 729.63 923.919 723.63 933.252C717.63 942.585 712.213 951.669 707.38 960.502C709.38 957.669 711.463 954.835 713.63 952.002C715.797 949.002 717.963 946.335 720.13 944.002C725.13 938.502 730.047 934.502 734.88 932.002C739.713 929.502 744.047 928.252 747.88 928.252C752.213 928.252 755.713 929.585 758.38 932.252C761.047 934.752 762.38 938.169 762.38 942.502C762.38 944.835 761.963 947.169 761.13 949.502C760.463 951.669 759.63 953.669 758.63 955.502C757.297 958.335 755.547 961.669 753.38 965.502C751.213 969.335 749.13 972.919 747.13 976.252C743.297 982.419 741.38 986.835 741.38 989.502C741.38 991.002 742.047 991.752 743.38 991.752C745.047 991.752 747.797 990.585 751.63 988.252C754.63 986.419 757.963 984.085 761.63 981.252C765.463 978.252 769.213 975.169 772.88 972.002C776.713 968.835 779.963 966.085 782.63 963.752C785.463 961.252 787.297 959.585 788.13 958.752C789.13 957.752 789.88 957.252 790.38 957.252C790.88 957.252 791.13 957.502 791.13 958.002C791.13 958.835 790.547 960.002 789.38 961.502C785.047 966.002 779.63 971.085 773.13 976.752C766.63 982.419 759.297 987.919 751.13 993.252C747.963 995.419 744.88 997.002 741.88 998.002C739.047 998.835 736.463 999.252 734.13 999.252ZM794.71 999.252C789.543 999.252 785.543 997.669 782.71 994.502C779.877 991.169 778.46 986.919 778.46 981.752C778.46 976.919 779.71 971.585 782.21 965.752C784.877 959.919 789.043 954.002 794.71 948.002C800.543 941.669 807.793 936.585 816.46 932.752C825.127 928.752 833.377 926.752 841.21 926.752C847.543 926.752 852.96 928.169 857.46 931.002C861.96 933.669 864.96 937.085 866.46 941.252C868.293 941.252 870.543 941.752 873.21 942.752C876.043 943.752 877.46 945.585 877.46 948.252C877.46 950.085 876.543 952.169 874.71 954.502C873.543 956.169 871.46 958.669 868.46 962.002C865.627 965.335 862.96 968.919 860.46 972.752C858.46 975.752 856.877 978.585 855.71 981.252C854.543 983.752 853.96 985.919 853.96 987.752C853.96 990.252 855.21 991.502 857.71 991.502C860.543 991.502 864.793 989.919 870.46 986.752C876.627 983.252 882.543 979.252 888.21 974.752C893.877 970.252 898.293 966.669 901.46 964.002C902.293 963.335 902.877 963.002 903.21 963.002C903.877 963.002 904.21 963.419 904.21 964.252C904.21 965.252 903.793 966.169 902.96 967.002C901.46 968.335 898.543 970.835 894.21 974.502C889.877 978.169 884.877 982.002 879.21 986.002C873.71 990.002 868.293 993.252 862.96 995.752C860.293 996.919 857.793 997.835 855.46 998.502C853.293 999.002 851.293 999.252 849.46 999.252C844.96 999.252 841.543 998.002 839.21 995.502C836.877 992.835 835.71 989.419 835.71 985.252C835.71 983.585 835.96 981.835 836.46 980.002C836.96 978.169 837.543 976.335 838.21 974.502L839.96 970.252C835.627 975.585 831.293 980.085 826.96 983.752C822.627 987.252 818.293 990.335 813.96 993.002C810.293 995.169 806.793 996.752 803.46 997.752C800.293 998.752 797.377 999.252 794.71 999.252ZM802.46 992.752C805.46 992.752 809.793 991.002 815.46 987.502C821.127 983.835 827.71 978.252 835.21 970.752C836.21 969.752 838.043 968.002 840.71 965.502C843.543 962.835 846.543 959.919 849.71 956.752C852.877 953.419 855.543 950.169 857.71 947.002C860.043 943.669 861.21 940.919 861.21 938.752C861.21 935.585 858.46 934.002 852.96 934.002C848.127 934.002 842.293 935.919 835.46 939.752C828.793 943.419 822.377 948.919 816.21 956.252C809.877 963.752 805.21 970.252 802.21 975.752C799.377 981.085 797.96 985.169 797.96 988.002C797.96 991.169 799.46 992.752 802.46 992.752ZM955.606 922.502C953.273 922.502 951.523 921.752 950.356 920.252C949.19 918.752 948.606 917.169 948.606 915.502C948.606 912.169 950.19 908.919 953.356 905.752C956.523 902.419 959.856 900.752 963.356 900.752C965.69 900.752 967.44 901.502 968.606 903.002C969.773 904.502 970.356 906.085 970.356 907.752C970.356 911.252 968.773 914.585 965.606 917.752C962.606 920.919 959.273 922.502 955.606 922.502ZM917.356 999.252C910.523 999.252 905.856 997.835 903.356 995.002C901.023 992.002 899.856 988.669 899.856 985.002C899.856 982.002 900.356 979.169 901.356 976.502C902.356 973.669 903.19 971.669 903.856 970.502C904.856 968.835 906.19 966.919 907.856 964.752C909.69 962.585 911.69 960.252 913.856 957.752C910.523 960.585 907.356 963.335 904.356 966.002C901.523 968.669 899.19 970.669 897.356 972.002C896.856 972.502 896.356 972.752 895.856 972.752C895.19 972.752 894.856 972.335 894.856 971.502C894.856 970.169 895.773 968.835 897.606 967.502C901.94 963.835 906.106 959.835 910.106 955.502C914.273 951.169 918.19 947.169 921.856 943.502C925.523 939.669 928.773 937.002 931.606 935.502C934.606 933.835 937.023 932.752 938.856 932.252C940.69 931.752 942.19 931.502 943.356 931.502C945.19 931.502 946.523 931.835 947.356 932.502C948.19 933.002 948.356 933.585 947.856 934.252C945.023 937.085 942.19 940.752 939.356 945.252C936.69 949.585 934.19 954.169 931.856 959.002C929.523 963.835 927.606 968.419 926.106 972.752C924.773 977.085 924.106 980.752 924.106 983.752C924.106 987.919 925.773 990.002 929.106 990.002C932.273 990.002 936.356 988.585 941.356 985.752C946.523 982.752 951.856 979.002 957.356 974.502C963.023 970.002 968.273 965.585 973.106 961.252C973.773 960.585 974.356 960.252 974.856 960.252C975.69 960.252 976.106 960.669 976.106 961.502C976.273 962.335 976.106 962.919 975.606 963.252C970.106 968.419 963.856 973.835 956.856 979.502C950.023 985.002 943.106 989.669 936.106 993.502C929.273 997.335 923.023 999.252 917.356 999.252ZM1328.6 1056.25C1324.44 1056.25 1319.94 1055.17 1315.1 1053C1310.44 1051 1306.52 1047.92 1303.35 1043.75C1300.35 1039.75 1299.02 1034.84 1299.35 1029C1299.52 1025.5 1299.85 1022 1300.35 1018.5C1301.02 1015.17 1302.35 1011.09 1304.35 1006.25C1306.52 1001.42 1309.85 995.169 1314.35 987.502C1319.02 979.669 1325.44 969.752 1333.6 957.752C1341.94 945.752 1352.52 930.752 1365.35 912.752C1371.52 904.252 1375.85 897.252 1378.35 891.752C1380.85 886.252 1382.1 881.919 1382.1 878.752C1382.1 876.085 1381.35 874.169 1379.85 873.002C1378.35 871.835 1376.44 871.252 1374.1 871.252C1370.77 871.252 1366.77 872.252 1362.1 874.252C1357.6 876.252 1353.27 878.835 1349.1 882.002C1341.27 887.835 1333.27 894.502 1325.1 902.002C1316.94 909.335 1309.02 916.919 1301.35 924.752C1293.69 932.585 1286.52 940.169 1279.85 947.502C1274.35 956.335 1269.19 964.419 1264.35 971.752C1259.52 978.919 1256.02 984.085 1253.85 987.252C1253.19 988.419 1252.1 989.252 1250.6 989.752C1249.27 990.252 1247.94 990.502 1246.6 990.502C1244.27 990.502 1242.19 989.919 1240.35 988.752C1238.52 987.419 1238.1 985.835 1239.1 984.002C1239.1 984.002 1240.1 982.252 1242.1 978.752C1244.1 975.252 1246.69 970.585 1249.85 964.752C1253.19 958.919 1256.69 952.502 1260.35 945.502C1264.19 938.502 1267.85 931.585 1271.35 924.752C1274.85 917.752 1277.85 911.335 1280.35 905.502C1283.02 899.669 1284.77 895.085 1285.6 891.752C1286.6 887.419 1287.1 883.419 1287.1 879.752C1287.1 876.085 1286.44 873.169 1285.1 871.002C1283.77 868.669 1281.44 867.502 1278.1 867.502C1275.94 867.502 1273.19 868.169 1269.85 869.502C1266.52 870.835 1262.6 872.919 1258.1 875.752C1250.44 880.752 1241.77 887.335 1232.1 895.502C1222.6 903.502 1212.69 912.502 1202.35 922.502C1192.19 932.335 1182.02 942.502 1171.85 953.002C1161.85 963.335 1152.52 973.419 1143.85 983.252C1143.35 983.752 1142.77 984.002 1142.1 984.002C1135.77 992.169 1131.02 997.502 1127.85 1000C1124.85 1002.5 1123.35 1003 1123.35 1001.5C1123.35 998.169 1127.94 990.752 1137.1 979.252C1144.27 970.419 1151.94 961.085 1160.1 951.252C1168.44 941.252 1176.19 931.335 1183.35 921.502C1190.69 911.669 1196.52 902.502 1200.85 894.002C1205.19 885.502 1207.35 878.335 1207.35 872.502C1207.35 864.669 1204.1 859.252 1197.6 856.252C1191.27 853.252 1183.19 851.752 1173.35 851.752C1165.52 851.752 1157.1 852.502 1148.1 854.002C1139.27 855.335 1130.44 857.085 1121.6 859.252C1112.94 861.252 1104.94 863.419 1097.6 865.752C1090.27 867.919 1084.35 869.752 1079.85 871.252C1072.52 873.752 1065.77 876.419 1059.6 879.252C1053.44 882.085 1048.52 885.002 1044.85 888.002C1041.35 890.835 1039.6 893.752 1039.6 896.752C1039.6 899.585 1041.52 902.335 1045.35 905.002C1045.69 905.169 1045.85 905.419 1045.85 905.752C1045.85 906.085 1045.44 906.252 1044.6 906.252C1043.77 906.252 1042.94 906.002 1042.1 905.502C1037.27 902.169 1034.85 897.335 1034.85 891.002C1034.85 886.335 1036.44 881.419 1039.6 876.252C1042.77 871.085 1047.69 866.669 1054.35 863.002C1062.85 858.169 1072.35 853.835 1082.85 850.002C1093.35 846.002 1104.19 842.669 1115.35 840.002C1126.52 837.169 1137.52 835.085 1148.35 833.752C1159.35 832.252 1169.52 831.502 1178.85 831.502C1191.19 831.502 1200.85 832.752 1207.85 835.252C1215.02 837.752 1220.1 841.169 1223.1 845.502C1226.1 849.835 1227.6 854.669 1227.6 860.002C1227.6 867.169 1225.44 874.752 1221.1 882.752C1216.94 890.752 1212.27 897.919 1207.1 904.252C1202.44 909.919 1196.44 917.002 1189.1 925.502C1181.94 934.002 1174.85 942.585 1167.85 951.252C1178.02 940.585 1188.35 930.169 1198.85 920.002C1209.35 909.835 1219.52 900.585 1229.35 892.252C1239.19 883.919 1248.02 877.169 1255.85 872.002C1264.35 866.502 1271.77 862.585 1278.1 860.252C1284.6 857.752 1290.1 856.502 1294.6 856.502C1300.94 856.502 1305.44 858.419 1308.1 862.252C1310.94 866.085 1312.35 870.835 1312.35 876.502C1312.35 882.502 1310.94 889.002 1308.1 896.002C1306.27 900.502 1303.85 905.669 1300.85 911.502C1297.85 917.169 1294.52 923.085 1290.85 929.252C1299.52 920.252 1308.69 911.252 1318.35 902.252C1328.19 893.252 1337.69 885.335 1346.85 878.502C1354.85 872.669 1363.27 867.835 1372.1 864.002C1380.94 860.169 1388.44 858.252 1394.6 858.252C1398.27 858.252 1401.19 859.085 1403.35 860.752C1405.52 862.252 1406.6 864.752 1406.6 868.252C1406.6 871.252 1405.6 875.085 1403.6 879.752C1401.6 884.419 1398.44 890.002 1394.1 896.502C1377.1 921.669 1363.27 943.335 1352.6 961.502C1342.1 979.502 1334.35 994.502 1329.35 1006.5C1324.35 1018.5 1321.52 1028.09 1320.85 1035.25C1320.69 1036.09 1320.6 1036.92 1320.6 1037.75C1320.6 1038.59 1320.6 1039.42 1320.6 1040.25C1320.6 1044.92 1321.35 1048.17 1322.85 1050C1324.52 1052 1326.35 1053 1328.35 1053C1330.85 1053 1333.19 1052.09 1335.35 1050.25C1336.02 1049.92 1336.44 1049.75 1336.6 1049.75C1337.44 1049.75 1338.1 1050.17 1338.6 1051C1339.1 1051.84 1338.94 1052.67 1338.1 1053.5C1335.77 1055.34 1332.6 1056.25 1328.6 1056.25ZM1380.16 999.252C1374.99 999.252 1370.99 997.669 1368.16 994.502C1365.33 991.169 1363.91 986.919 1363.91 981.752C1363.91 976.919 1365.16 971.585 1367.66 965.752C1370.33 959.919 1374.49 954.002 1380.16 948.002C1385.99 941.669 1393.24 936.585 1401.91 932.752C1410.58 928.752 1418.83 926.752 1426.66 926.752C1432.99 926.752 1438.41 928.169 1442.91 931.002C1447.41 933.669 1450.41 937.085 1451.91 941.252C1453.74 941.252 1455.99 941.752 1458.66 942.752C1461.49 943.752 1462.91 945.585 1462.91 948.252C1462.91 950.085 1461.99 952.169 1460.16 954.502C1458.99 956.169 1456.91 958.669 1453.91 962.002C1451.08 965.335 1448.41 968.919 1445.91 972.752C1443.91 975.752 1442.33 978.585 1441.16 981.252C1439.99 983.752 1439.41 985.919 1439.41 987.752C1439.41 990.252 1440.66 991.502 1443.16 991.502C1445.99 991.502 1450.24 989.919 1455.91 986.752C1462.08 983.252 1467.99 979.252 1473.66 974.752C1479.33 970.252 1483.74 966.669 1486.91 964.002C1487.74 963.335 1488.33 963.002 1488.66 963.002C1489.33 963.002 1489.66 963.419 1489.66 964.252C1489.66 965.252 1489.24 966.169 1488.41 967.002C1486.91 968.335 1483.99 970.835 1479.66 974.502C1475.33 978.169 1470.33 982.002 1464.66 986.002C1459.16 990.002 1453.74 993.252 1448.41 995.752C1445.74 996.919 1443.24 997.835 1440.91 998.502C1438.74 999.002 1436.74 999.252 1434.91 999.252C1430.41 999.252 1426.99 998.002 1424.66 995.502C1422.33 992.835 1421.16 989.419 1421.16 985.252C1421.16 983.585 1421.41 981.835 1421.91 980.002C1422.41 978.169 1422.99 976.335 1423.66 974.502L1425.41 970.252C1421.08 975.585 1416.74 980.085 1412.41 983.752C1408.08 987.252 1403.74 990.335 1399.41 993.002C1395.74 995.169 1392.24 996.752 1388.91 997.752C1385.74 998.752 1382.83 999.252 1380.16 999.252ZM1387.91 992.752C1390.91 992.752 1395.24 991.002 1400.91 987.502C1406.58 983.835 1413.16 978.252 1420.66 970.752C1421.66 969.752 1423.49 968.002 1426.16 965.502C1428.99 962.835 1431.99 959.919 1435.16 956.752C1438.33 953.419 1440.99 950.169 1443.16 947.002C1445.49 943.669 1446.66 940.919 1446.66 938.752C1446.66 935.585 1443.91 934.002 1438.41 934.002C1433.58 934.002 1427.74 935.919 1420.91 939.752C1414.24 943.419 1407.83 948.919 1401.66 956.252C1395.33 963.752 1390.66 970.252 1387.66 975.752C1384.83 981.085 1383.41 985.169 1383.41 988.002C1383.41 991.169 1384.91 992.752 1387.91 992.752ZM1499.56 1001.75C1492.89 1001.75 1487.06 1000.5 1482.06 998.002C1476.89 995.335 1473.14 990.502 1470.81 983.502C1470.64 982.835 1470.89 982.419 1471.56 982.252C1472.06 982.085 1472.39 982.419 1472.56 983.252C1474.22 986.919 1476.39 989.502 1479.06 991.002C1481.72 992.502 1484.64 993.252 1487.81 993.252C1493.14 993.252 1497.81 991.669 1501.81 988.502C1505.97 985.335 1509.64 981.335 1512.81 976.502C1516.14 971.669 1519.06 966.752 1521.56 961.752C1524.22 956.585 1526.72 952.169 1529.06 948.502C1532.72 942.335 1537.06 936.752 1542.06 931.752C1547.22 926.752 1551.89 923.669 1556.06 922.502C1555.06 922.002 1553.81 921.752 1552.31 921.752C1548.14 921.752 1543.56 923.002 1538.56 925.502C1533.56 928.002 1528.47 931.252 1523.31 935.252C1518.31 939.252 1513.39 943.502 1508.56 948.002C1503.89 952.335 1499.56 956.419 1495.56 960.252C1491.72 963.919 1488.64 966.835 1486.31 969.002C1484.97 970.169 1483.97 970.752 1483.31 970.752C1482.64 970.752 1482.31 970.419 1482.31 969.752C1482.31 968.752 1482.72 967.835 1483.56 967.002C1488.56 962.669 1493.72 957.835 1499.06 952.502C1504.39 947.002 1509.81 941.752 1515.31 936.752C1520.81 931.585 1526.39 927.335 1532.06 924.002C1537.72 920.669 1543.47 919.002 1549.31 919.002C1549.97 919.002 1550.56 919.002 1551.06 919.002C1551.72 919.002 1552.39 919.085 1553.06 919.252C1554.89 919.419 1556.56 919.919 1558.06 920.752C1559.72 921.585 1560.22 922.169 1559.56 922.502C1555.72 924.169 1552.72 927.502 1550.56 932.502C1548.39 937.502 1546.39 943.335 1544.56 950.002C1542.72 956.669 1540.47 963.419 1537.81 970.252C1535.31 977.085 1531.64 983.169 1526.81 988.502C1529.14 987.669 1532.81 985.752 1537.81 982.752C1542.81 979.752 1548.31 976.085 1554.31 971.752C1560.31 967.252 1565.89 962.335 1571.06 957.002C1571.72 956.335 1572.39 956.002 1573.06 956.002C1573.89 956.002 1574.31 956.419 1574.31 957.252C1574.31 957.919 1573.97 958.585 1573.31 959.252C1568.81 963.585 1563.81 968.252 1558.31 973.252C1552.81 978.085 1546.81 982.669 1540.31 987.002C1533.97 991.335 1527.39 994.919 1520.56 997.752C1513.72 1000.42 1506.72 1001.75 1499.56 1001.75ZM1576.22 1001.75C1569.55 1001.75 1563.72 1000.5 1558.72 998.002C1553.55 995.335 1549.8 990.502 1547.47 983.502C1547.3 982.835 1547.55 982.419 1548.22 982.252C1548.72 982.085 1549.05 982.419 1549.22 983.252C1550.88 986.919 1553.05 989.502 1555.72 991.002C1558.38 992.502 1561.3 993.252 1564.47 993.252C1569.8 993.252 1574.47 991.669 1578.47 988.502C1582.63 985.335 1586.3 981.335 1589.47 976.502C1592.8 971.669 1595.72 966.752 1598.22 961.752C1600.88 956.585 1603.38 952.169 1605.72 948.502C1609.38 942.335 1613.72 936.752 1618.72 931.752C1623.88 926.752 1628.55 923.669 1632.72 922.502C1631.72 922.002 1630.47 921.752 1628.97 921.752C1624.8 921.752 1620.22 923.002 1615.22 925.502C1610.22 928.002 1605.13 931.252 1599.97 935.252C1594.97 939.252 1590.05 943.502 1585.22 948.002C1580.55 952.335 1576.22 956.419 1572.22 960.252C1568.38 963.919 1565.3 966.835 1562.97 969.002C1561.63 970.169 1560.63 970.752 1559.97 970.752C1559.3 970.752 1558.97 970.419 1558.97 969.752C1558.97 968.752 1559.38 967.835 1560.22 967.002C1565.22 962.669 1570.38 957.835 1575.72 952.502C1581.05 947.002 1586.47 941.752 1591.97 936.752C1597.47 931.585 1603.05 927.335 1608.72 924.002C1614.38 920.669 1620.13 919.002 1625.97 919.002C1626.63 919.002 1627.22 919.002 1627.72 919.002C1628.38 919.002 1629.05 919.085 1629.72 919.252C1631.55 919.419 1633.22 919.919 1634.72 920.752C1636.38 921.585 1636.88 922.169 1636.22 922.502C1632.38 924.169 1629.38 927.502 1627.22 932.502C1625.05 937.502 1623.05 943.335 1621.22 950.002C1619.38 956.669 1617.13 963.419 1614.47 970.252C1611.97 977.085 1608.3 983.169 1603.47 988.502C1605.8 987.669 1609.47 985.752 1614.47 982.752C1619.47 979.752 1624.97 976.085 1630.97 971.752C1636.97 967.252 1642.55 962.335 1647.72 957.002C1648.38 956.335 1649.05 956.002 1649.72 956.002C1650.55 956.002 1650.97 956.419 1650.97 957.252C1650.97 957.919 1650.63 958.585 1649.97 959.252C1645.47 963.585 1640.47 968.252 1634.97 973.252C1629.47 978.085 1623.47 982.669 1616.97 987.002C1610.63 991.335 1604.05 994.919 1597.22 997.752C1590.38 1000.42 1583.38 1001.75 1576.22 1001.75ZM1652.38 999.252C1647.21 999.252 1643.21 997.669 1640.38 994.502C1637.54 991.169 1636.13 986.919 1636.13 981.752C1636.13 976.919 1637.38 971.585 1639.88 965.752C1642.54 959.919 1646.71 954.002 1652.38 948.002C1658.21 941.669 1665.46 936.585 1674.13 932.752C1682.79 928.752 1691.04 926.752 1698.88 926.752C1705.21 926.752 1710.63 928.169 1715.13 931.002C1719.63 933.669 1722.63 937.085 1724.13 941.252C1725.96 941.252 1728.21 941.752 1730.88 942.752C1733.71 943.752 1735.13 945.585 1735.13 948.252C1735.13 950.085 1734.21 952.169 1732.38 954.502C1731.21 956.169 1729.13 958.669 1726.13 962.002C1723.29 965.335 1720.63 968.919 1718.13 972.752C1716.13 975.752 1714.54 978.585 1713.38 981.252C1712.21 983.752 1711.63 985.919 1711.63 987.752C1711.63 990.252 1712.88 991.502 1715.38 991.502C1718.21 991.502 1722.46 989.919 1728.13 986.752C1734.29 983.252 1740.21 979.252 1745.88 974.752C1751.54 970.252 1755.96 966.669 1759.13 964.002C1759.96 963.335 1760.54 963.002 1760.88 963.002C1761.54 963.002 1761.88 963.419 1761.88 964.252C1761.88 965.252 1761.46 966.169 1760.63 967.002C1759.13 968.335 1756.21 970.835 1751.88 974.502C1747.54 978.169 1742.54 982.002 1736.88 986.002C1731.38 990.002 1725.96 993.252 1720.63 995.752C1717.96 996.919 1715.46 997.835 1713.13 998.502C1710.96 999.002 1708.96 999.252 1707.13 999.252C1702.63 999.252 1699.21 998.002 1696.88 995.502C1694.54 992.835 1693.38 989.419 1693.38 985.252C1693.38 983.585 1693.63 981.835 1694.13 980.002C1694.63 978.169 1695.21 976.335 1695.88 974.502L1697.63 970.252C1693.29 975.585 1688.96 980.085 1684.63 983.752C1680.29 987.252 1675.96 990.335 1671.63 993.002C1667.96 995.169 1664.46 996.752 1661.13 997.752C1657.96 998.752 1655.04 999.252 1652.38 999.252ZM1660.13 992.752C1663.13 992.752 1667.46 991.002 1673.13 987.502C1678.79 983.835 1685.38 978.252 1692.88 970.752C1693.88 969.752 1695.71 968.002 1698.38 965.502C1701.21 962.835 1704.21 959.919 1707.38 956.752C1710.54 953.419 1713.21 950.169 1715.38 947.002C1717.71 943.669 1718.88 940.919 1718.88 938.752C1718.88 935.585 1716.13 934.002 1710.63 934.002C1705.79 934.002 1699.96 935.919 1693.13 939.752C1686.46 943.419 1680.04 948.919 1673.88 956.252C1667.54 963.752 1662.88 970.252 1659.88 975.752C1657.04 981.085 1655.63 985.169 1655.63 988.002C1655.63 991.169 1657.13 992.752 1660.13 992.752ZM1735.27 1065.75C1725.11 1065.75 1716.69 1064.59 1710.02 1062.25C1703.36 1059.92 1698.02 1056.75 1694.02 1052.75C1691.36 1049.92 1688.86 1046.17 1686.52 1041.5C1684.19 1037 1683.02 1033.17 1683.02 1030C1683.02 1028.84 1683.27 1028.25 1683.77 1028.25C1684.94 1028.25 1685.69 1028.92 1686.02 1030.25C1686.02 1030.75 1686.61 1032.67 1687.77 1036C1688.77 1039.34 1690.69 1043 1693.52 1047C1696.36 1051 1700.52 1054.5 1706.02 1057.5C1711.52 1060.5 1718.69 1062 1727.52 1062C1738.02 1062 1747.44 1059.5 1755.77 1054.5C1764.11 1049.67 1771.52 1043.25 1778.02 1035.25C1784.69 1027.42 1790.77 1018.84 1796.27 1009.5C1801.77 1000.17 1807.02 991.002 1812.02 982.002C1817.02 973.002 1822.11 965.085 1827.27 958.252C1825.11 960.585 1822.36 963.502 1819.02 967.002C1815.86 970.335 1812.44 973.752 1808.77 977.252C1805.11 980.752 1801.61 983.919 1798.27 986.752C1794.94 989.585 1792.19 991.669 1790.02 993.002C1786.36 995.169 1782.86 996.752 1779.52 997.752C1776.36 998.752 1773.44 999.252 1770.77 999.252C1765.61 999.252 1761.61 997.669 1758.77 994.502C1755.94 991.169 1754.52 986.919 1754.52 981.752C1754.52 976.919 1755.77 971.585 1758.27 965.752C1760.94 959.919 1765.11 954.002 1770.77 948.002C1776.61 941.669 1783.86 936.585 1792.52 932.752C1801.19 928.752 1809.44 926.752 1817.27 926.752C1820.11 926.752 1822.86 927.085 1825.52 927.752C1828.19 928.252 1830.61 929.169 1832.77 930.502C1835.77 932.335 1837.94 934.085 1839.27 935.752C1840.77 937.252 1841.86 939.085 1842.52 941.252C1843.52 941.252 1845.11 941.752 1847.27 942.752C1849.44 943.585 1851.44 944.669 1853.27 946.002C1855.11 947.169 1856.02 948.419 1856.02 949.752C1856.02 950.419 1855.36 951.169 1854.02 952.002C1850.69 953.669 1846.94 957.669 1842.77 964.002C1838.61 970.169 1833.94 977.585 1828.77 986.252C1823.77 994.752 1818.11 1003.59 1811.77 1012.75C1805.61 1022.09 1798.69 1030.75 1791.02 1038.75C1783.36 1046.75 1774.86 1053.25 1765.52 1058.25C1756.36 1063.25 1746.27 1065.75 1735.27 1065.75ZM1777.77 992.752C1781.11 992.752 1785.19 991.085 1790.02 987.752C1793.69 985.252 1797.69 982.169 1802.02 978.502C1806.36 974.669 1810.61 970.669 1814.77 966.502C1818.94 962.335 1822.52 958.502 1825.52 955.002C1831.02 948.669 1833.77 943.502 1833.77 939.502C1833.77 936.169 1831.77 934.502 1827.77 934.502C1823.77 934.502 1818.27 936.419 1811.27 940.252C1807.27 942.419 1803.02 945.502 1798.52 949.502C1794.02 953.502 1789.77 957.835 1785.77 962.502C1781.94 967.169 1778.86 971.502 1776.52 975.502C1773.86 980.335 1772.52 984.252 1772.52 987.252C1772.52 990.919 1774.27 992.752 1777.77 992.752ZM1883.82 1001.5C1876.49 1001.5 1870.32 999.752 1865.32 996.252C1860.49 992.585 1858.07 987.335 1858.07 980.502C1858.07 973.169 1859.82 966.335 1863.32 960.002C1866.82 953.669 1871.49 948.169 1877.32 943.502C1883.16 938.669 1889.49 934.919 1896.32 932.252C1903.32 929.585 1910.24 928.252 1917.07 928.252C1923.91 928.252 1928.99 929.502 1932.32 932.002C1935.66 934.335 1937.32 937.252 1937.32 940.752C1937.32 944.085 1935.74 947.669 1932.57 951.502C1929.57 955.169 1925.16 958.419 1919.32 961.252C1915.66 962.919 1911.41 964.419 1906.57 965.752C1901.91 966.919 1897.82 967.502 1894.32 967.502C1891.66 967.502 1890.32 967.085 1890.32 966.252C1890.32 965.585 1891.49 965.252 1893.82 965.252C1895.99 965.252 1899.32 964.669 1903.82 963.502C1908.49 962.169 1912.99 960.419 1917.32 958.252C1922.16 955.585 1925.57 952.919 1927.57 950.252C1929.57 947.585 1930.57 945.169 1930.57 943.002C1930.57 941.002 1929.74 939.335 1928.07 938.002C1926.57 936.669 1924.41 936.002 1921.57 936.002C1918.91 936.002 1915.91 936.752 1912.57 938.252C1907.74 940.419 1902.74 944.002 1897.57 949.002C1892.57 953.835 1888.41 959.169 1885.07 965.002C1881.74 970.835 1880.07 976.419 1880.07 981.752C1880.07 985.419 1881.07 988.502 1883.07 991.002C1885.24 993.502 1888.41 994.752 1892.57 994.752C1896.91 994.752 1901.91 993.419 1907.57 990.752C1913.24 987.919 1918.99 984.502 1924.82 980.502C1930.66 976.335 1936.07 972.169 1941.07 968.002C1946.07 963.835 1950.07 960.335 1953.07 957.502C1954.07 956.502 1954.82 956.002 1955.32 956.002C1955.82 956.002 1956.07 956.419 1956.07 957.252C1956.07 958.419 1955.57 959.419 1954.57 960.252C1948.24 966.085 1941.32 972.169 1933.82 978.502C1926.49 984.835 1918.57 990.252 1910.07 994.752C1901.74 999.085 1892.99 1001.34 1883.82 1001.5Z" fill="white"/>
<path fill-rule="evenodd" clip-rule="evenodd" d="M975.919 462.623C922.24 610.238 607.235 550.909 508 489.108C628.423 364.095 841.37 362.33 975.919 462.623Z" fill="#9D8954"/>
<path fill-rule="evenodd" clip-rule="evenodd" d="M975.919 462.623C1029.95 610.238 1344.96 550.909 1444.19 489.108C1323.77 364.095 1110.82 362.33 975.919 462.623Z" fill="#9D8954"/>
<path fill-rule="evenodd" clip-rule="evenodd" d="M975.922 462.623C1016.18 614.83 781.339 676.984 664.447 682.986C692.346 511.71 808.177 456.973 975.922 462.623Z" fill="#C4AB69"/>
<path fill-rule="evenodd" clip-rule="evenodd" d="M975.917 462.623C936.011 614.83 1170.85 676.984 1287.74 682.986C1259.49 511.71 1143.66 456.973 975.917 462.623Z" fill="#C4AB69"/>
<path fill-rule="evenodd" clip-rule="evenodd" d="M975.918 462.621C1162.73 530.424 1098.46 695.698 975.918 773.742C853.379 695.698 789.458 530.424 975.918 462.621Z" fill="#D0BC87"/>
<path fill-rule="evenodd" clip-rule="evenodd" d="M826.54 240.141C775.334 159.27 747.435 79.1049 773.568 0C861.501 21.8952 906.352 85.1085 940.254 159.27C902.465 186.109 864.325 212.947 826.54 240.141ZM1099.52 240.141C1150.73 159.27 1178.27 79.1049 1152.49 0C1064.56 21.8952 1019.71 85.1085 985.806 159.27C1023.59 186.109 1061.38 212.947 1099.52 240.141Z" fill="#D4768E"/>
<path fill-rule="evenodd" clip-rule="evenodd" d="M975.918 498.29C931.069 443.552 885.865 388.813 841.016 334.076C728.716 192.819 676.805 306.531 572.271 197.762C581.101 429.778 740.723 589.048 975.918 498.29C1021.12 443.552 1065.97 388.813 1111.17 334.076C1223.47 192.819 1275.03 306.531 1379.92 197.762C1371.09 429.778 1211.11 589.048 975.918 498.29Z" fill="#EC839E"/>
<path fill-rule="evenodd" clip-rule="evenodd" d="M1065.97 220.011C1088.22 96.0569 1154.61 99.9415 1250.31 66.7461C1281.74 215.419 1242.19 282.519 1137.66 370.805C1113.64 320.304 1089.98 270.156 1065.97 220.011ZM885.866 220.011C863.617 96.0569 777.804 105.943 701.877 66.7461C670.447 215.419 709.999 282.519 814.53 370.805C838.191 320.304 862.205 270.156 885.866 220.011Z" fill="#EC839E"/>
<path fill-rule="evenodd" clip-rule="evenodd" d="M975.923 498.289C1269.74 391.285 1168.74 131.016 975.923 8.47461C783.105 131.016 682.105 391.285 975.923 498.289Z" fill="#F09CB1"/>
<path fill-rule="evenodd" clip-rule="evenodd" d="M975.921 498.286C926.834 212.238 832.896 342.195 631.604 166.328C640.432 349.257 760.855 520.181 975.921 498.286C1025.36 212.238 1119.3 342.195 1320.59 166.328C1311.76 349.257 1190.99 520.181 975.921 498.286Z" fill="#EE8FA8"/>
</svg>
