<svg width="2502" height="1049" viewBox="0 0 2502 1049" fill="none" xmlns="http://www.w3.org/2000/svg">
<path d="M808.201 411.827C826.611 402.287 843.471 390.777 858.791 377.277C874.101 363.777 885.221 349.837 892.151 335.437C896.341 325.897 898.441 315.557 898.441 304.397C898.441 290.357 894.111 277.857 885.451 266.877C876.791 255.907 864.621 247.807 848.941 242.587C837.091 239.167 824.241 237.457 810.381 237.457C795.791 237.457 780.981 239.167 765.951 242.587C750.911 246.007 737.921 250.597 726.981 256.357C711.121 264.277 701.001 273.457 696.631 283.887C694.811 288.387 693.661 291.757 693.211 294.007C692.751 296.257 693.301 297.747 694.851 298.457C696.401 299.177 697.991 299.447 699.641 299.267C701.281 299.087 704.381 298.547 708.941 297.647C709.491 297.467 710.081 297.377 710.721 297.377C711.361 297.377 711.951 297.287 712.501 297.107H711.951C738.751 292.067 758.531 289.187 771.291 288.467C786.241 287.927 798.181 291.347 807.111 298.727C816.041 306.107 820.511 315.557 820.511 327.067C820.511 342.187 813.031 355.587 798.091 367.287C782.411 379.527 753.331 394.997 710.861 413.717C708.671 414.437 705.801 415.657 702.251 417.357C698.701 419.067 696.821 419.917 696.641 419.917C694.821 420.637 693.401 421.357 692.401 422.077C691.401 422.797 690.711 423.877 690.351 425.317C689.981 426.757 689.761 427.927 689.671 428.827C689.581 429.727 689.531 431.347 689.531 433.687V438.817C689.531 444.037 690.081 447.277 691.171 448.537C692.261 449.797 695.451 450.067 700.741 449.347C716.601 446.827 733.871 442.327 752.561 435.847C771.241 429.367 789.791 421.367 808.201 411.827Z" fill="#C39C6F"/>
<path d="M891.589 386.918C885.209 384.498 880.789 383.418 878.329 383.698C875.869 383.978 872.809 385.428 869.169 388.038C859.869 396.248 852.029 403.887 845.649 410.977V410.418L844.009 412.098H844.559C844.189 412.478 843.739 412.848 843.189 413.218C840.089 415.828 838.079 417.648 837.169 418.678C836.259 419.708 836.209 420.727 837.029 421.757C837.849 422.787 839.989 423.857 843.459 424.977L842.909 424.137C843.459 424.327 844.179 424.657 845.099 425.117C846.009 425.587 847.009 426.148 848.109 426.798C849.199 427.458 849.839 427.778 850.019 427.778C861.679 432.818 870.749 440.877 877.229 451.977C883.699 463.077 886.939 475.247 886.939 488.477C886.939 501.537 884.209 513.747 878.739 525.127C861.059 560.557 829.519 578.278 784.129 578.278C762.069 578.278 738.739 573.517 714.129 564.007C714.129 573.897 713.759 584.988 713.039 597.298C735.089 610.168 761.169 617.258 791.249 618.558C822.239 619.678 852.539 613.098 882.169 598.838C911.789 584.568 935.079 564.568 952.039 538.838C965.529 518.888 972.269 498.838 972.269 478.698C972.269 469.188 970.359 459.678 966.529 450.168C955.759 425.528 930.779 404.458 891.589 386.918Z" fill="#C39C6F"/>
<path d="M675.66 256.348V256.888C676.75 253.108 676.21 249.598 674.02 246.358V245.818L668 241.498H668.55C668.18 241.138 667.87 241.048 667.59 241.228C667.32 241.408 667 241.318 666.63 240.958C659.7 236.098 655.05 236.278 652.68 241.498H653.23C637.19 268.488 631.64 309.068 622.52 361.078C613.4 413.088 608.85 467.158 608.85 523.308C608.85 558.948 611.1 593.188 615.61 626.028C615.93 628.328 618.26 629.758 620.46 629.018C622.77 628.238 625.65 627.288 629.09 626.148C635.11 624.168 639.39 622.728 641.94 621.828C661.24 614.648 677.71 609.008 691.35 604.928C693.12 604.398 694.22 602.628 693.93 600.798C676.4 490.588 667.64 413.378 667.64 369.168C667.65 335.348 665.63 297.018 675.66 256.348Z" fill="#C39C6F"/>
<path d="M1225.87 450.127C1220.2 414.067 1191.67 391.907 1185.36 387.407C1184.63 386.887 1183.66 386.887 1182.92 387.397C1168.62 397.227 1145.34 406.817 1136.11 410.447C1134.52 411.077 1134.28 413.227 1135.7 414.177C1142.87 418.957 1159.46 431.637 1171.73 453.457C1190.82 487.407 1177.35 562.987 1200.54 589.287C1223.73 615.587 1268.92 606.307 1268.92 606.307C1229.11 591.657 1232.26 490.727 1225.87 450.127Z" fill="#C39C6F"/>
<path d="M1158.64 561.378C1158.03 559.658 1155.98 558.958 1154.44 559.938C1144.03 566.528 1130.98 573.418 1119.19 577.858C1106.88 582.488 1089.79 578.108 1081.36 568.008C1080.48 566.958 1079.67 565.928 1078.89 564.938C1074.33 559.158 1071.11 549.258 1072.08 541.198C1073.36 530.558 1080.08 522.598 1088.68 514.318C1097.11 506.328 1110.41 501.768 1128.57 500.618C1133.18 500.258 1139.41 500.288 1147.26 500.708L1149.6 498.568C1149.89 493.158 1149.89 487.438 1149.62 481.388C1149.75 473.408 1145.45 469.188 1136.72 468.718C1118.53 467.748 1099.58 469.678 1079.9 474.508C1056.92 479.918 1039.06 489.288 1026.34 502.628C1020.37 508.938 1015.61 516.788 1012.07 526.168C1008.53 535.548 1006.81 544.758 1006.93 553.808C1007.2 562.568 1009.21 570.168 1012.95 576.618C1016.68 583.068 1021.68 588.118 1027.94 591.768C1034.2 595.418 1040.91 598.148 1048.09 599.958C1055.26 601.778 1062.99 602.828 1071.29 603.118C1097.08 603.608 1135.06 594.998 1162.79 586.738C1164.18 586.318 1165.04 584.928 1164.77 583.498C1163.81 578.338 1161.04 568.118 1158.64 561.378Z" fill="#C39C6F"/>
<path d="M1015.11 425.188C1020.36 435.268 1025.05 443.198 1029.2 448.988C1035.34 445.098 1042.12 440.978 1049.55 436.618C1056.97 432.268 1065.36 427.398 1074.69 422.018C1084.02 416.638 1090.99 412.638 1095.58 410.018C1097.26 409.058 1102.31 406.238 1110.72 401.558C1119.12 396.888 1125.55 393.228 1129.99 390.608C1133.35 388.828 1135.8 387.338 1137.35 386.138C1138.89 384.938 1139.98 383.978 1140.62 383.258C1141.25 382.538 1140.95 381.888 1139.72 381.288C1138.49 380.698 1137.07 380.238 1135.45 379.928C1133.83 379.618 1131.26 379.218 1127.73 378.728C1127.43 378.708 1127.07 378.618 1126.63 378.448C1126.19 378.278 1125.83 378.178 1125.53 378.168C1123.18 377.738 1118.53 377.338 1111.58 376.978C1095.61 376.128 1079.25 377.448 1062.53 380.928C1045.8 384.408 1031.33 390.878 1019.11 400.318C1015.69 403.298 1013.5 405.478 1012.53 406.858C1011.57 408.238 1011.19 410.328 1011.42 413.128C1011.63 415.928 1012.87 419.948 1015.11 425.188Z" fill="#C39C6F"/>
<path d="M1491.6 377.368C1490.7 375.238 1490.16 373.998 1489.98 373.658H1490.52C1488 367.688 1486.03 364.448 1484.59 363.928C1483.15 363.418 1479.29 364.788 1473.01 368.028C1472.65 368.198 1472.16 368.368 1471.53 368.538C1470.9 368.708 1470.41 368.878 1470.05 369.048V368.538C1429.65 386.108 1397.68 401.298 1374.16 414.098H1374.7C1373.62 415.638 1373.49 419.048 1374.3 424.338C1375.11 429.628 1377.31 434.878 1380.9 440.078C1384.49 445.288 1388.17 447.458 1391.94 446.608C1406.12 441.998 1417.7 439.698 1426.69 439.698C1436.39 442.088 1444.51 448.658 1451.07 459.408C1457.62 470.158 1462.25 482.528 1464.94 496.518C1467.63 510.508 1468.98 525.698 1468.98 542.078C1468.98 560.168 1467.36 577.998 1464.13 595.568C1464.31 599.498 1466.96 602.908 1472.08 605.808C1477.2 608.708 1482.54 609.948 1488.11 609.518C1493.67 609.098 1497.09 606.828 1498.34 602.738V603.248C1498.52 602.908 1498.7 602.348 1498.88 601.588C1499.06 600.818 1499.24 599.928 1499.42 598.898C1499.6 597.878 1499.78 597.108 1499.96 596.598C1510.55 561.448 1515.85 528.948 1515.85 499.088C1515.85 458.648 1508.31 419.328 1493.23 381.108C1493.04 380.738 1492.5 379.508 1491.6 377.368Z" fill="#C39C6F"/>
<path d="M1371.88 471.938C1367.84 457.608 1364.29 445.838 1361.24 436.618C1358.19 427.408 1354.06 416.058 1348.85 402.578C1345.62 394.898 1343.37 388.588 1342.12 383.638C1339.6 379.208 1335.66 377.068 1330.27 377.238C1324.88 377.408 1319.72 379.668 1314.78 384.018C1309.84 388.368 1308.09 392.938 1309.53 397.708C1313.48 412.388 1316.8 430.688 1319.5 452.608C1322.19 474.538 1323.54 495.728 1323.54 516.208C1323.54 550.508 1320.04 575.158 1313.04 590.168L1311.96 592.728C1309.62 596.148 1310.7 598.958 1315.19 601.178V601.688C1332.97 610.048 1349.13 614.398 1363.67 614.738C1367.08 614.908 1369.86 614.738 1372.02 614.228C1374.17 613.718 1375.93 613.038 1377.27 612.178C1378.62 611.328 1379.6 609.918 1380.23 607.958C1380.86 605.998 1381.26 604.078 1381.44 602.198C1381.62 600.318 1381.8 597.678 1381.98 594.268C1381.98 593.928 1382.07 593.118 1382.25 591.838C1382.43 590.558 1382.52 589.658 1382.52 589.148C1383.24 577.888 1383.6 569.528 1383.6 564.068C1383.6 547.688 1382.66 531.818 1380.77 516.468C1378.88 501.118 1375.92 486.268 1371.88 471.938Z" fill="#C39C6F"/>
<path d="M1644.05 368.158C1642.61 366.878 1639.83 366.838 1635.7 368.028C1635.34 368.198 1634.31 368.628 1632.6 369.308C1630.89 369.988 1629.86 370.418 1629.5 370.588C1628.78 370.928 1627.61 371.358 1626 371.868C1624.38 372.378 1623.21 372.808 1622.5 373.148V372.638C1591.8 383.898 1560.37 397.378 1528.23 413.078H1527.42C1525.26 415.128 1524.5 418.498 1525.13 423.188C1525.76 427.878 1527.73 432.528 1531.06 437.138C1534.38 441.748 1537.66 443.708 1540.89 443.028C1550.59 440.468 1557.68 439.188 1562.17 439.188C1591.62 439.188 1606.34 466.488 1606.34 521.088C1606.34 539.858 1604.36 563.918 1600.41 593.258C1600.95 600.768 1605.89 604.308 1615.22 603.878C1624.55 603.458 1631.02 600.088 1634.61 593.768C1651.13 552.308 1659.39 510.248 1659.39 467.598C1659.39 438.418 1655.53 408.738 1647.81 378.538C1646.75 372.888 1645.49 369.438 1644.05 368.158Z" fill="#C39C6F"/>
<path d="M1905.77 393.887C1888.97 381.387 1869.06 375.127 1846.04 375.127C1831.32 375.127 1817.92 378.077 1805.84 383.967C1793.76 389.857 1784.8 398.797 1778.95 410.757C1771.21 425.047 1771.59 432.197 1780.08 432.197C1784.04 432.197 1789.8 430.057 1797.35 425.767C1807.16 420.947 1816.32 418.537 1824.81 418.537C1836.51 418.537 1846.46 422.417 1854.67 430.187C1862.88 437.957 1868.12 448.367 1870.38 461.397C1873.02 477.477 1870.47 493.237 1862.74 508.687C1855 524.137 1844.2 537.177 1830.33 547.807C1816.46 558.437 1801.03 566.157 1784.05 570.987C1755.93 574.567 1748.15 579.957 1724.94 579.057C1725.88 580.847 1725.45 605.697 1725.37 612.247C1748.96 611.707 1779.15 607.687 1808.4 600.187C1822.74 596.077 1836.75 590.717 1850.44 584.107C1864.12 577.497 1877.14 569.687 1889.5 560.667C1901.86 551.647 1912.61 541.067 1921.77 528.917C1930.92 516.777 1937.38 503.907 1941.16 490.337C1942.86 483.727 1943.71 476.767 1943.71 469.437C1943.71 455.147 1940.26 441.087 1933.38 427.237C1926.48 413.407 1917.28 402.287 1905.77 393.887Z" fill="#C39C6F"/>
<path d="M1746.97 557.867C1746.21 542.507 1745.84 530.097 1745.84 520.627C1745.84 478.827 1749.99 437.127 1758.3 395.497C1766.6 353.877 1777.92 316.727 1792.27 284.037C1794.91 277.787 1796.23 272.517 1796.23 268.227C1796.23 267.157 1796.13 266.177 1795.95 265.277C1795.76 264.387 1795.57 263.577 1795.38 262.867C1795.19 262.157 1794.81 261.437 1794.25 260.727C1793.68 260.017 1793.26 259.437 1792.98 258.987C1792.7 258.547 1792.13 258.007 1791.28 257.377C1790.43 256.757 1789.86 256.307 1789.58 256.037C1789.3 255.767 1788.63 255.277 1787.6 254.567C1786.56 253.857 1785.95 253.407 1785.76 253.227C1775.38 246.797 1763.4 241.347 1749.81 236.887C1742.83 234.567 1736.51 236.797 1730.84 243.587C1720.46 255.017 1712.82 276.187 1707.91 307.087C1703 337.987 1700.55 373.897 1700.55 414.797C1700.55 459.097 1703.1 502.237 1708.19 544.207C1708.76 550.097 1714.13 554.297 1724.33 556.797C1732.62 558.757 1740.17 559.117 1746.97 557.867Z" fill="#C39C6F"/>
<path d="M2085.41 382.598C2013.03 384.508 1966.81 454.218 1972.69 515.998C1978.56 577.788 2031.03 606.508 2050.95 605.108C2070.87 603.708 2084.01 584.678 2084.01 584.678C2084.01 584.678 2030.39 565.528 2032.44 495.058C2034.47 424.598 2085.41 382.598 2085.41 382.598Z" fill="#C39C6F"/>
<path d="M2129.77 384.898C2129.01 384.728 2128.22 384.888 2127.59 385.348L2105.57 401.388C2104.04 402.498 2104.1 404.808 2105.69 405.828C2117.23 413.198 2153.96 441.098 2154.39 498.048C2154.94 570.658 2102.26 606.648 2102.26 606.648C2181.54 587.928 2222.64 532.348 2212.69 465.458C2203.48 403.608 2139.4 387.048 2129.77 384.898Z" fill="#C39C6F"/>
<path d="M2364.21 382.598C2291.83 384.508 2245.61 454.218 2251.49 515.998C2257.36 577.788 2309.83 606.508 2329.75 605.108C2349.67 603.708 2362.81 584.678 2362.81 584.678C2362.81 584.678 2309.19 565.528 2311.24 495.058C2313.28 424.598 2364.21 382.598 2364.21 382.598Z" fill="#C39C6F"/>
<path d="M2491.49 465.448C2482.28 403.608 2418.21 387.048 2408.57 384.898C2407.81 384.728 2407.02 384.888 2406.39 385.348L2384.37 401.388C2382.84 402.498 2382.9 404.808 2384.49 405.828C2396.03 413.198 2432.76 441.098 2433.19 498.048C2433.74 570.658 2381.06 606.648 2381.06 606.648C2460.34 587.918 2501.45 532.338 2491.49 465.448Z" fill="#C39C6F"/>
<path d="M509.3 710.557C488.3 708.557 421.5 710.067 400.69 709.787C384.09 709.477 368.09 708.477 351.09 710.477C350.09 710.477 349.09 713.477 350.09 714.477C356.09 726.477 371.09 734.477 370.09 748.477C370.09 837.477 365.09 926.477 361.09 1015.48C361.09 1018.48 360.09 1020.48 358.09 1022.48C351.09 1029.48 345.09 1035.48 339.09 1043.48C338.09 1044.48 337.09 1047.48 339.09 1047.48C360.09 1049.48 426.89 1047.97 447.7 1048.25C464.3 1048.56 480.3 1049.56 497.3 1047.56C498.3 1047.56 499.3 1044.56 498.3 1043.56C492.3 1031.56 477.3 1023.56 478.3 1009.56C478.3 920.557 483.3 831.557 487.3 742.557C487.3 739.557 488.3 737.557 490.3 735.557C497.3 728.557 503.3 722.557 509.3 714.557C510.3 713.557 511.3 710.557 509.3 710.557ZM386.11 1035.77C384.3 1032.15 382.93 1028.41 381.01 1025.17C379.86 1023.4 379.11 1022.25 377.69 1021.92C374.92 1021.54 373.39 1023.27 371.77 1025.76C369.75 1028.96 368.27 1032.63 366.39 1036.22C361.46 1027.57 364.24 1012.69 376.04 1011.9C388.79 1011.23 391.44 1027.03 386.11 1035.77ZM461.62 983.117C458.12 913.217 460.21 843.077 467.75 773.497C471.21 843.387 469.2 913.537 461.62 983.117Z" fill="#6C9548"/>
<path d="M510.34 354.097C489.29 352.757 422.44 352.737 401.64 353.117C385.04 353.327 369.02 352.837 352.09 355.367C351.09 355.397 350.19 358.427 351.22 359.397C357.59 371.207 372.97 382.357 372.41 396.377C375.21 485.337 373.01 574.447 371.81 663.527C371.9 666.527 370.97 668.557 369.03 670.617C362.25 677.837 356.45 684.017 350.7 692.207C349.73 693.237 348.83 696.267 350.83 696.207C371.88 697.547 438.6 693.937 459.41 693.557C476.01 693.347 492.03 693.837 508.96 691.307C509.96 691.277 510.86 688.247 509.83 687.277C503.46 675.467 488.21 667.947 488.77 653.927C485.97 564.967 488.17 475.857 489.37 386.777C489.28 383.777 490.21 381.747 492.15 379.687C498.93 372.467 504.73 366.287 510.48 358.097C511.44 357.057 512.34 354.027 510.34 354.097ZM397.44 683.017C395.52 679.457 394.03 675.757 392.01 672.577C390.81 670.837 390.02 669.727 388.59 669.437C385.8 669.147 384.33 670.917 382.79 673.457C380.87 676.717 379.51 680.427 377.74 684.077C372.54 675.587 374.86 660.627 386.62 659.467C399.34 658.397 402.5 674.117 397.44 683.017ZM471.26 628.007C465.56 558.257 465.45 488.077 470.79 418.297C476.45 488.057 476.64 558.237 471.26 628.007Z" fill="#6C9548"/>
<path d="M519.06 3.98714C498.05 2.13714 431.22 0.47719 410.41 0.34719C393.81 0.15719 377.8 -0.732832 360.82 1.38717C359.82 1.39717 358.84 4.39718 359.85 5.39718C365.93 17.3572 381.03 28.8772 380.12 42.8872C380.74 131.887 376.35 220.917 372.97 309.947C372.99 312.947 372 314.957 370.02 316.967C363.07 324.017 357.11 330.057 351.17 338.097C350.18 339.107 349.2 342.107 351.2 342.097C372.21 343.947 439 341.977 459.81 342.107C476.41 342.297 492.42 343.187 509.4 341.067C510.4 341.057 511.38 338.057 510.37 337.057C504.29 325.097 489.23 317.207 490.13 303.197C489.51 214.197 493.9 125.167 497.28 36.1372C497.26 33.1372 498.25 31.1271 500.23 29.1171C507.18 22.0671 513.14 16.0271 519.08 7.98714C520.09 6.98714 521.06 3.97714 519.06 3.98714ZM398.13 330.047C396.3 326.437 394.9 322.707 392.96 319.477C391.8 317.717 391.04 316.577 389.62 316.247C386.84 315.887 385.33 317.627 383.73 320.127C381.73 323.337 380.28 327.017 378.42 330.617C373.43 322.007 376.11 307.107 387.9 306.237C400.64 305.487 403.4 321.267 398.13 330.047ZM473.27 276.867C469.28 206.997 470.89 136.837 477.94 67.2171C481.89 137.087 480.37 207.247 473.27 276.867Z" fill="#6C9548"/>
<path d="M212.17 394.598C212.17 394.598 260.94 529.658 286.21 594.258C311.49 658.858 319.4 679.278 328.83 676.488C337.62 673.878 328.17 638.948 301.27 577.668C274.38 516.388 212.17 394.598 212.17 394.598Z" fill="#6C9548"/>
<path d="M110.301 448.088C110.301 448.088 146.041 497.998 165.451 525.828C184.861 553.658 268.091 652.978 274.851 661.528C281.621 670.078 305.361 696.638 311.231 689.998C317.101 683.358 289.341 643.178 250.461 596.548C203.921 540.728 110.301 448.088 110.301 448.088Z" fill="#6C9548"/>
<path d="M273.19 676.737C275.23 673.157 262.04 663.117 246.21 653.927C230.67 644.907 128.68 590.438 128.68 590.438C141.45 603.328 205.02 641.757 223.66 653.757C242.3 665.757 271 680.577 273.19 676.737Z" fill="#6C9548"/>
<path d="M303.15 704.308C290.85 695.958 215.75 667.028 160.34 649.928C104.94 632.818 0 601.928 0 601.928C0 601.928 67.15 631.038 89.62 641.498C112.23 652.028 271.9 714.688 291.66 721.138C312 727.778 315.06 712.388 303.15 704.308Z" fill="#6C9548"/>
<path d="M610.2 799.35V783H683.4V799.35H655.65V888H637.8V799.35H610.2ZM776.836 839.85V823.5H851.686V839.85H776.836ZM840.286 783H857.986V888H840.286V783ZM769.786 783H787.486V888H769.786V783ZM967.507 861L970.807 846H1019.56L1023.01 861H967.507ZM994.957 812.7L978.457 851.25L978.157 855.15L963.607 888H943.657L994.957 777.15L1046.26 888H1026.31L1012.06 856.05L1011.61 851.7L994.957 812.7ZM1131.97 783H1149.82V888H1131.97V783ZM1384.75 824.1L1377.55 888H1359.25L1373.65 777.75L1416.7 849L1459.9 777.75L1474.3 888H1456L1448.65 824.1L1416.7 878.25L1384.75 824.1ZM1577.62 861L1580.92 846H1629.67L1633.12 861H1577.62ZM1605.07 812.7L1588.57 851.25L1588.27 855.15L1573.72 888H1553.77L1605.07 777.15L1656.37 888H1636.42L1622.17 856.05L1621.72 851.7L1605.07 812.7ZM1748.98 854.25C1751.28 858.25 1753.73 861.8 1756.33 864.9C1759.03 867.9 1761.98 870.25 1765.18 871.95C1768.38 873.55 1771.98 874.35 1775.98 874.35C1780.78 874.35 1784.68 873.05 1787.68 870.45C1790.68 867.85 1792.18 864.5 1792.18 860.4C1792.18 856.5 1791.23 853.4 1789.33 851.1C1787.43 848.7 1784.78 846.7 1781.38 845.1C1778.08 843.4 1774.23 841.75 1769.83 840.15C1767.23 839.25 1764.33 838.05 1761.13 836.55C1757.93 834.95 1754.88 833 1751.98 830.7C1749.08 828.3 1746.68 825.4 1744.78 822C1742.88 818.5 1741.93 814.3 1741.93 809.4C1741.93 803.8 1743.38 798.9 1746.28 794.7C1749.18 790.4 1753.08 787.1 1757.98 784.8C1762.98 782.4 1768.63 781.2 1774.93 781.2C1781.13 781.2 1786.53 782.3 1791.13 784.5C1795.73 786.7 1799.58 789.5 1802.68 792.9C1805.88 796.3 1808.38 799.85 1810.18 803.55L1795.78 811.65C1794.48 809.05 1792.83 806.65 1790.83 804.45C1788.83 802.15 1786.48 800.35 1783.78 799.05C1781.18 797.65 1778.13 796.95 1774.63 796.95C1769.73 796.95 1766.13 798.1 1763.83 800.4C1761.53 802.6 1760.38 805.2 1760.38 808.2C1760.38 810.9 1761.18 813.35 1762.78 815.55C1764.48 817.65 1767.08 819.65 1770.58 821.55C1774.08 823.45 1778.63 825.4 1784.23 827.4C1787.33 828.5 1790.43 829.9 1793.53 831.6C1796.73 833.3 1799.63 835.45 1802.23 838.05C1804.83 840.55 1806.88 843.5 1808.38 846.9C1809.98 850.3 1810.78 854.3 1810.78 858.9C1810.78 863.8 1809.83 868.2 1807.93 872.1C1806.03 876 1803.43 879.3 1800.13 882C1796.83 884.6 1793.08 886.6 1788.88 888C1784.78 889.5 1780.48 890.25 1775.98 890.25C1769.78 890.25 1764.03 889.05 1758.73 886.65C1753.53 884.15 1748.98 880.85 1745.08 876.75C1741.18 872.65 1738.08 868.2 1735.78 863.4L1748.98 854.25ZM1909.35 854.25C1911.65 858.25 1914.1 861.8 1916.7 864.9C1919.4 867.9 1922.35 870.25 1925.55 871.95C1928.75 873.55 1932.35 874.35 1936.35 874.35C1941.15 874.35 1945.05 873.05 1948.05 870.45C1951.05 867.85 1952.55 864.5 1952.55 860.4C1952.55 856.5 1951.6 853.4 1949.7 851.1C1947.8 848.7 1945.15 846.7 1941.75 845.1C1938.45 843.4 1934.6 841.75 1930.2 840.15C1927.6 839.25 1924.7 838.05 1921.5 836.55C1918.3 834.95 1915.25 833 1912.35 830.7C1909.45 828.3 1907.05 825.4 1905.15 822C1903.25 818.5 1902.3 814.3 1902.3 809.4C1902.3 803.8 1903.75 798.9 1906.65 794.7C1909.55 790.4 1913.45 787.1 1918.35 784.8C1923.35 782.4 1929 781.2 1935.3 781.2C1941.5 781.2 1946.9 782.3 1951.5 784.5C1956.1 786.7 1959.95 789.5 1963.05 792.9C1966.25 796.3 1968.75 799.85 1970.55 803.55L1956.15 811.65C1954.85 809.05 1953.2 806.65 1951.2 804.45C1949.2 802.15 1946.85 800.35 1944.15 799.05C1941.55 797.65 1938.5 796.95 1935 796.95C1930.1 796.95 1926.5 798.1 1924.2 800.4C1921.9 802.6 1920.75 805.2 1920.75 808.2C1920.75 810.9 1921.55 813.35 1923.15 815.55C1924.85 817.65 1927.45 819.65 1930.95 821.55C1934.45 823.45 1939 825.4 1944.6 827.4C1947.7 828.5 1950.8 829.9 1953.9 831.6C1957.1 833.3 1960 835.45 1962.6 838.05C1965.2 840.55 1967.25 843.5 1968.75 846.9C1970.35 850.3 1971.15 854.3 1971.15 858.9C1971.15 863.8 1970.2 868.2 1968.3 872.1C1966.4 876 1963.8 879.3 1960.5 882C1957.2 884.6 1953.45 886.6 1949.25 888C1945.15 889.5 1940.85 890.25 1936.35 890.25C1930.15 890.25 1924.4 889.05 1919.1 886.65C1913.9 884.15 1909.35 880.85 1905.45 876.75C1901.55 872.65 1898.45 868.2 1896.15 863.4L1909.35 854.25ZM2075.42 861L2078.72 846H2127.47L2130.92 861H2075.42ZM2102.87 812.7L2086.37 851.25L2086.07 855.15L2071.52 888H2051.57L2102.87 777.15L2154.17 888H2134.22L2119.97 856.05L2119.52 851.7L2102.87 812.7ZM2285.29 848.1V833.1H2335.84C2336.04 840.8 2335.04 848.1 2332.84 855C2330.64 861.8 2327.34 867.85 2322.94 873.15C2318.54 878.45 2313.04 882.65 2306.44 885.75C2299.94 888.75 2292.54 890.25 2284.24 890.25C2276.34 890.25 2269.04 888.95 2262.34 886.35C2255.64 883.65 2249.79 879.85 2244.79 874.95C2239.89 870.05 2236.09 864.25 2233.39 857.55C2230.69 850.85 2229.34 843.5 2229.34 835.5C2229.34 827.5 2230.69 820.2 2233.39 813.6C2236.19 806.9 2240.04 801.15 2244.94 796.35C2249.94 791.45 2255.79 787.7 2262.49 785.1C2269.29 782.5 2276.64 781.2 2284.54 781.2C2291.44 781.2 2297.69 782.15 2303.29 784.05C2308.89 785.85 2313.89 788.5 2318.29 792C2322.79 795.4 2326.59 799.55 2329.69 804.45L2315.29 814.05C2312.39 809.05 2308.34 805.05 2303.14 802.05C2298.04 799.05 2291.84 797.55 2284.54 797.55C2277.74 797.55 2271.59 799.15 2266.09 802.35C2260.59 805.45 2256.19 809.85 2252.89 815.55C2249.59 821.15 2247.94 827.8 2247.94 835.5C2247.94 843.1 2249.54 849.8 2252.74 855.6C2256.04 861.3 2260.44 865.75 2265.94 868.95C2271.44 872.15 2277.64 873.75 2284.54 873.75C2289.24 873.75 2293.44 873.1 2297.14 871.8C2300.84 870.5 2304.04 868.65 2306.74 866.25C2309.44 863.85 2311.69 861.1 2313.49 858C2315.29 854.9 2316.64 851.6 2317.54 848.1H2285.29ZM2438.44 888V872.4H2491.39V888H2438.44ZM2438.44 798.6V783H2491.39V798.6H2438.44ZM2438.44 839.4V824.1H2488.39V839.4H2438.44ZM2427.49 783H2444.89V888H2427.49V783Z" fill="#C39C6F"/>
<line x1="609.008" y1="699.4" x2="2493.01" y2="702.4" stroke="#C39C6F" stroke-width="10"/>
</svg>
